<svg width="125" height="32" viewBox="0 0 125 32" fill="none" xmlns="http://www.w3.org/2000/svg">
<g opacity="0.6">
<path d="M37.6875 10.0721H40.6875V22.2021H37.6875V10.0721ZM41.8775 17.6221C41.8775 14.6221 43.7175 12.8321 46.5575 12.8321C49.3975 12.8321 51.2375 14.6221 51.2375 17.6221C51.2375 20.6221 49.4375 22.4221 46.5575 22.4221C43.6775 22.4221 41.8775 20.6721 41.8775 17.6221ZM48.2275 17.6221C48.2275 15.9721 47.5775 15.0021 46.5575 15.0021C45.5375 15.0021 44.8975 16.0021 44.8975 17.6221C44.8975 19.2421 45.5275 20.2221 46.5575 20.2221C47.5875 20.2221 48.2275 19.3021 48.2275 17.6321V17.6221ZM52.3675 22.7921H55.2475C55.3846 23.0966 55.6163 23.3487 55.9082 23.5109C56.2001 23.673 56.5366 23.7366 56.8675 23.6921C58.0075 23.6921 58.6075 23.0721 58.6075 22.1721V20.4921H58.5475C58.3085 21.007 57.9206 21.4384 57.434 21.7308C56.9474 22.0231 56.3843 22.1629 55.8175 22.1321C53.6275 22.1321 52.1775 20.4621 52.1775 17.5921C52.1775 14.7221 53.5575 12.9121 55.8575 12.9121C56.4421 12.8892 57.0197 13.0455 57.513 13.36C58.0063 13.6746 58.3917 14.1324 58.6175 14.6721V13.0021H61.6175V22.1021C61.6175 24.2921 59.6875 25.6521 56.8375 25.6521C54.1875 25.6521 52.5375 24.4621 52.3675 22.8021V22.7921ZM58.6175 17.6121C58.6175 16.1521 57.9475 15.2321 56.8875 15.2321C55.8275 15.2321 55.1775 16.1421 55.1775 17.6121C55.1775 19.0821 55.8175 19.9121 56.8875 19.9121C57.9575 19.9121 58.6175 19.1021 58.6175 17.6221V17.6121ZM62.7475 17.6121C62.7475 14.6121 64.5875 12.8221 67.4275 12.8221C70.2675 12.8221 72.1175 14.6121 72.1175 17.6121C72.1175 20.6121 70.3175 22.4121 67.4275 22.4121C64.5375 22.4121 62.7475 20.6721 62.7475 17.6221V17.6121ZM69.0975 17.6121C69.0975 15.9621 68.4475 14.9921 67.4275 14.9921C66.4075 14.9921 65.8175 16.0021 65.8175 17.6321C65.8175 19.2621 66.4475 20.2321 67.4675 20.2321C68.4875 20.2321 69.0975 19.3021 69.0975 17.6321V17.6121ZM73.2575 10.8221C73.2496 10.5192 73.3319 10.2208 73.4938 9.96475C73.6558 9.70865 73.8901 9.50641 74.1671 9.38365C74.4441 9.26089 74.7513 9.22314 75.0498 9.27519C75.3483 9.32725 75.6246 9.46676 75.8437 9.67603C76.0629 9.88531 76.2149 10.1549 76.2806 10.4507C76.3463 10.7465 76.3227 11.0551 76.2127 11.3375C76.1028 11.6198 75.9115 11.8632 75.6631 12.0367C75.4148 12.2102 75.1204 12.3061 74.8175 12.3121C74.6167 12.3259 74.4152 12.298 74.2257 12.2302C74.0361 12.1624 73.8627 12.0562 73.7162 11.9181C73.5697 11.7801 73.4533 11.6132 73.3744 11.428C73.2954 11.2429 73.2556 11.0434 73.2575 10.8421V10.8221ZM73.2575 13.0221H76.2575V22.2021H73.2575V13.0221ZM87.1475 17.6121C87.1475 20.6121 85.8175 22.3221 83.5375 22.3221C82.9529 22.3596 82.3708 22.2167 81.87 21.9127C81.3692 21.6086 80.9739 21.1581 80.7375 20.6221H80.6775V25.1421H77.6775V13.0021H80.6775V14.6421H80.7375C80.9629 14.0972 81.3507 13.635 81.8481 13.3183C82.3455 13.0016 82.9284 12.8458 83.5175 12.8721C85.8175 12.9121 87.1875 14.6321 87.1875 17.6321L87.1475 17.6121ZM84.1475 17.6121C84.1475 16.1521 83.4775 15.2221 82.4275 15.2221C81.3775 15.2221 80.7075 16.1621 80.6975 17.6121C80.6875 19.0621 81.3775 19.9921 82.4275 19.9921C83.4775 19.9921 84.1475 19.0821 84.1475 17.6321V17.6121ZM92.2975 12.8121C94.7875 12.8121 96.2975 13.9921 96.3675 15.8821H93.6375C93.6375 15.2321 93.0975 14.8221 92.2675 14.8221C91.4375 14.8221 91.0675 15.1421 91.0675 15.6121C91.0675 16.0821 91.3975 16.2321 92.0675 16.3721L93.9875 16.7621C95.8175 17.1521 96.5975 17.8921 96.5975 19.2821C96.5975 21.1821 94.8675 22.4021 92.3175 22.4021C89.7675 22.4021 88.0975 21.1821 87.9675 19.3121H90.8575C90.9475 19.9921 91.4875 20.3921 92.3675 20.3921C93.2475 20.3921 93.6475 20.1021 93.6475 19.6221C93.6475 19.1421 93.3675 19.0421 92.6475 18.8921L90.9175 18.5221C89.1275 18.1521 88.1875 17.2021 88.1875 15.8021C88.2075 14.0021 89.8175 12.8321 92.2975 12.8321V12.8121ZM106.607 22.1821H103.717V20.4721H103.658C103.499 21.0462 103.149 21.5487 102.665 21.8962C102.181 22.2436 101.593 22.4151 100.998 22.3821C100.542 22.408 100.086 22.3358 99.6602 22.1703C99.2347 22.0048 98.8497 21.75 98.5312 21.4229C98.2127 21.0959 97.968 20.7042 97.8139 20.2745C97.6597 19.8448 97.5996 19.387 97.6375 18.9321V13.0021H100.638V18.2421C100.638 19.3321 101.198 19.9121 102.128 19.9121C102.346 19.9125 102.562 19.8664 102.76 19.7767C102.958 19.687 103.137 19.5558 103.281 19.392C103.424 19.2281 103.531 19.0354 103.594 18.8268C103.658 18.6181 103.677 18.3983 103.648 18.1821V13.0021H106.648L106.607 22.1821ZM108.057 13.0021H110.958V14.7721H111.018C111.176 14.2056 111.52 13.7078 111.992 13.3568C112.464 13.0058 113.04 12.8212 113.628 12.8321C114.227 12.7842 114.821 12.9633 115.294 13.3339C115.766 13.7045 116.082 14.2393 116.178 14.8321H116.238C116.419 14.233 116.794 13.7114 117.305 13.3493C117.815 12.9872 118.432 12.8052 119.057 12.8321C119.465 12.8184 119.871 12.8907 120.249 13.0443C120.628 13.1978 120.97 13.4293 121.253 13.7235C121.535 14.0178 121.754 14.3683 121.893 14.7522C122.031 15.1361 122.087 15.545 122.057 15.9521V22.2021H119.057V16.7521C119.057 15.7521 118.607 15.2921 117.768 15.2921C117.581 15.2905 117.394 15.3291 117.223 15.4053C117.052 15.4815 116.899 15.5935 116.775 15.7338C116.651 15.8741 116.558 16.0393 116.503 16.2184C116.448 16.3976 116.434 16.5864 116.458 16.7721V22.2021H113.607V16.7121C113.607 15.7921 113.157 15.2921 112.337 15.2921C112.148 15.2922 111.96 15.3324 111.788 15.4101C111.616 15.4879 111.46 15.6014 111.335 15.7431C111.209 15.8848 111.116 16.0516 111.059 16.2325C111.003 16.4133 110.985 16.604 111.008 16.7921V22.2021H108.008L108.057 13.0021Z" fill="black"/>
<path d="M29.298 10.6218C28.7891 9.45821 28.1156 8.37378 27.298 7.40185C26.0895 5.92219 24.5813 4.71524 22.8727 3.86045C21.1641 3.00567 19.2938 2.52242 17.385 2.44251C15.4762 2.3626 13.5721 2.68784 11.798 3.39684C10.0239 4.10583 8.42014 5.1825 7.09217 6.55598C5.76419 7.92945 4.74214 9.5686 4.09329 11.3655C3.44444 13.1624 3.18349 15.0764 3.32763 16.9814C3.47178 18.8865 4.01773 20.7394 4.92957 22.4182C5.84141 24.0971 7.09846 25.5638 8.61798 26.7218C9.59298 27.4797 10.6703 28.0958 11.818 28.5518C13.427 29.2112 15.1491 29.5508 16.888 29.5518C20.4774 29.5439 23.9172 28.1131 26.4535 25.5731C28.9897 23.0331 30.4154 19.5912 30.418 16.0018C30.4206 14.1503 30.0393 12.3184 29.298 10.6218ZM16.878 5.19184C18.4396 5.19168 19.9823 5.53298 21.398 6.19184C21.0528 6.34101 20.6898 6.4452 20.318 6.50185C19.0946 6.67894 17.9613 7.24692 17.0872 8.12102C16.2131 8.99511 15.6451 10.1284 15.468 11.3518C15.3903 12.0379 15.0782 12.6762 14.5845 13.159C14.0908 13.6418 13.4457 13.9394 12.758 14.0018C11.5346 14.1789 10.4012 14.7469 9.52715 15.621C8.65306 16.4951 8.08507 17.6284 7.90798 18.8518C7.84802 19.5042 7.56967 20.1173 7.11798 20.5918C6.33863 18.9451 5.98853 17.1279 6.10025 15.3095C6.21197 13.4911 6.78188 11.7305 7.75695 10.1915C8.73201 8.65264 10.0805 7.38535 11.6771 6.50769C13.2736 5.63002 15.0662 5.17049 16.888 5.17184L16.878 5.19184ZM8.60798 23.0018C8.72798 22.8918 8.84798 22.7918 8.96798 22.6718C9.85763 21.8093 10.4287 20.6707 10.588 19.4418C10.6526 18.751 10.961 18.1058 11.458 17.6218C11.9363 17.124 12.58 16.8181 13.268 16.7618C14.4914 16.5847 15.6247 16.0167 16.4988 15.1426C17.3729 14.2685 17.9409 13.1352 18.118 11.9118C18.1613 11.1893 18.4713 10.5086 18.988 10.0018C19.4781 9.5137 20.1279 9.21895 20.818 9.17183C21.9419 9.0172 22.9901 8.51756 23.818 7.74185C24.7607 8.52392 25.5593 9.46474 26.178 10.5218C26.14 10.5731 26.0964 10.6201 26.048 10.6618C25.5707 11.164 24.9278 11.4766 24.238 11.5418C23.0133 11.7158 21.8783 12.2828 21.0036 13.1574C20.129 14.0321 19.562 15.1671 19.388 16.3918C19.3175 17.0802 19.0112 17.7231 18.521 18.2115C18.0307 18.7 17.3867 19.0039 16.698 19.0718C15.471 19.2475 14.3335 19.8144 13.4543 20.6881C12.5752 21.5619 12.0013 22.6959 11.818 23.9218C11.7642 24.4105 11.5963 24.8798 11.328 25.2918C10.302 24.6826 9.38307 23.909 8.60798 23.0018ZM16.878 26.8618C15.8633 26.8629 14.8534 26.7215 13.878 26.4418C14.2117 25.8198 14.4286 25.1419 14.518 24.4418C14.5881 23.7549 14.893 23.1132 15.3812 22.625C15.8694 22.1368 16.5111 21.8319 17.198 21.7618C18.4232 21.5867 19.5588 21.0196 20.4349 20.1453C21.3109 19.2711 21.8804 18.1366 22.058 16.9118C22.1281 16.2249 22.433 15.5832 22.9212 15.095C23.4094 14.6068 24.0511 14.3019 24.738 14.2318C25.66 14.1119 26.5388 13.7686 27.298 13.2318C27.7196 14.8297 27.7695 16.5029 27.444 18.1231C27.1185 19.7433 26.4261 21.2675 25.4201 22.5786C24.4141 23.8896 23.1212 24.9529 21.6404 25.6867C20.1597 26.4205 18.5306 26.8054 16.878 26.8118V26.8618Z" fill="black"/>
</g>
</svg>
