<svg width="155" height="44" viewBox="0 0 155 44" fill="none" xmlns="http://www.w3.org/2000/svg">
<g opacity="0.6">
<path d="M52.2572 28.0021V10.8901H49.4512V28.0021H52.2572Z" fill="black"/>
<path d="M53.9746 22.2979C53.9746 25.7939 56.3206 28.2779 59.8856 28.2779C63.4506 28.2779 65.7966 25.7939 65.7966 22.2979C65.7966 18.8019 63.4506 16.3179 59.8856 16.3179C56.3206 16.3179 53.9746 18.8019 53.9746 22.2979ZM56.8036 22.2979C56.8036 20.2509 58.0226 18.8249 59.8856 18.8249C61.7486 18.8249 62.9676 20.2509 62.9676 22.2979C62.9676 24.3219 61.7486 25.7709 59.8856 25.7709C58.0226 25.7709 56.8036 24.3219 56.8036 22.2979Z" fill="black"/>
<path d="M66.7402 22.068C66.7402 25.38 68.8792 27.772 72.0762 27.772C73.7322 27.772 75.1582 27.105 75.8712 26.001V27.933C75.8712 29.796 74.6982 31.038 72.7432 31.038C70.9952 31.038 69.7992 30.187 69.6382 28.692H66.8092C67.1772 31.659 69.4542 33.591 72.5822 33.591C76.2622 33.591 78.6082 31.176 78.6082 27.427V16.64H76.1242L75.9632 18.181C75.2732 16.985 73.8472 16.272 72.1682 16.272C68.9252 16.272 66.7402 18.733 66.7402 22.068ZM69.5922 21.999C69.5922 20.113 70.7882 18.733 72.5592 18.733C74.4912 18.733 75.7792 20.136 75.7792 21.999C75.7792 23.885 74.4912 25.334 72.5592 25.334C70.8112 25.334 69.5922 23.908 69.5922 21.999Z" fill="black"/>
<path d="M79.998 22.2979C79.998 25.7939 82.344 28.2779 85.909 28.2779C89.474 28.2779 91.82 25.7939 91.82 22.2979C91.82 18.8019 89.474 16.3179 85.909 16.3179C82.344 16.3179 79.998 18.8019 79.998 22.2979ZM82.827 22.2979C82.827 20.2509 84.046 18.8249 85.909 18.8249C87.772 18.8249 88.991 20.2509 88.991 22.2979C88.991 24.3219 87.772 25.7709 85.909 25.7709C84.046 25.7709 82.827 24.3219 82.827 22.2979Z" fill="black"/>
<path d="M94.8552 14.3169C95.7752 14.3169 96.5342 13.5809 96.5342 12.6379C96.5342 11.7179 95.7752 10.9819 94.8552 10.9819C93.9122 10.9819 93.1992 11.7179 93.1992 12.6379C93.1992 13.5809 93.9122 14.3169 94.8552 14.3169ZM93.4522 28.0019H96.2582V16.6399H93.4522V28.0019Z" fill="black"/>
<path d="M98.7168 33.2689H101.454V26.4379C102.167 27.6109 103.708 28.3009 105.41 28.3009C108.768 28.3009 110.769 25.7249 110.723 22.1829C110.654 18.6179 108.607 16.2949 105.387 16.2949C103.662 16.2949 102.098 17.0539 101.408 18.3649L101.247 16.6399H98.7168V33.2689ZM101.569 22.3209C101.569 20.2739 102.811 18.8479 104.766 18.8479C106.721 18.8479 107.894 20.2969 107.894 22.3209C107.894 24.3449 106.721 25.7709 104.766 25.7709C102.811 25.7709 101.569 24.3679 101.569 22.3209Z" fill="black"/>
<path d="M111.436 24.5979C111.528 26.8519 113.276 28.3009 115.99 28.3009C118.658 28.3009 120.475 26.8749 120.475 24.6669C120.475 23.0339 119.463 21.9299 117.6 21.4699L115.599 20.9869C114.748 20.7569 114.173 20.4579 114.173 19.7219C114.173 18.9399 114.794 18.3879 115.806 18.3879C116.864 18.3879 117.554 18.9859 117.554 19.9749H120.107C120.015 17.7209 118.336 16.2949 115.875 16.2949C113.437 16.2949 111.62 17.7209 111.62 19.8829C111.62 21.3549 112.471 22.5739 114.656 23.1489L116.634 23.6549C117.37 23.8619 117.83 24.2069 117.83 24.8509C117.83 25.7479 116.979 26.1619 115.944 26.1619C114.702 26.1619 113.989 25.5869 113.989 24.5979H111.436Z" fill="black"/>
<path d="M126.296 28.3011C127.837 28.3011 129.309 27.5881 129.976 26.5301L130.16 28.0021H132.782V16.6401H129.976V22.5971C129.976 24.6441 129.194 25.7941 127.354 25.7941C125.928 25.7941 124.939 25.1041 124.939 22.7581V16.6401H122.133V23.7471C122.133 26.4611 123.605 28.3011 126.296 28.3011Z" fill="black"/>
<path d="M138.064 28.0019V21.4699C138.064 19.6299 139.145 18.7559 140.479 18.7559C141.813 18.7559 142.687 19.6069 142.687 21.2169V28.0019H145.424V21.4929C145.424 19.6299 146.482 18.7559 147.816 18.7559C149.173 18.7559 150.047 19.6069 150.047 21.2169V28.0019H152.761V20.5729C152.761 17.9509 151.312 16.2949 148.552 16.2949C146.827 16.2949 145.47 17.1229 144.918 18.4569C144.297 17.1229 143.055 16.2949 141.169 16.2949C139.835 16.2949 138.639 16.9159 137.972 17.9279L137.834 16.6399H135.258V28.0019H138.064Z" fill="black"/>
<path d="M131.335 38.156C131.753 38.156 132.116 37.804 132.116 37.386C132.116 36.957 131.753 36.605 131.335 36.605C130.906 36.605 130.543 36.957 130.543 37.386C130.543 37.804 130.906 38.156 131.335 38.156Z" fill="black"/>
<path d="M132.926 35.3178C132.926 37.0008 133.96 38.1338 135.467 38.1338C136.765 38.1338 137.755 37.3528 137.964 36.1868H136.974C136.787 36.8358 136.215 37.2208 135.533 37.2208C134.565 37.2208 133.949 36.4728 133.949 35.3068C133.949 34.1188 134.598 33.3927 135.555 33.3927C136.215 33.3927 136.787 33.7448 136.963 34.4378H137.953C137.777 33.2608 136.853 32.4688 135.566 32.4688C134.004 32.4688 132.926 33.6238 132.926 35.3178Z" fill="black"/>
<path d="M138.352 35.307C138.352 36.924 139.452 38.134 141.102 38.134C142.752 38.134 143.852 36.924 143.852 35.307C143.852 33.69 142.752 32.48 141.102 32.48C139.452 32.48 138.352 33.69 138.352 35.307ZM139.397 35.307C139.397 34.207 140.068 33.404 141.102 33.404C142.136 33.404 142.807 34.207 142.807 35.307C142.807 36.407 142.136 37.21 141.102 37.21C140.068 37.21 139.397 36.407 139.397 35.307Z" fill="black"/>
<path d="M145.77 38.013V34.779C145.77 33.932 146.298 33.382 147.068 33.382C147.805 33.382 148.267 33.855 148.267 34.702V38.013H149.279V34.79C149.279 33.932 149.796 33.382 150.577 33.382C151.303 33.382 151.765 33.855 151.765 34.702V38.013H152.766V34.482C152.766 33.239 152.04 32.48 150.808 32.48C149.972 32.48 149.323 32.887 149.059 33.547C148.784 32.887 148.179 32.48 147.299 32.48C146.628 32.48 146.034 32.788 145.737 33.316L145.66 32.634H144.736V38.013H145.77Z" fill="black"/>
<path fill-rule="evenodd" clip-rule="evenodd" d="M2.81836 22.4373L2.82029 22.2369L2.82427 22.0364L2.83031 21.8359L2.8384 21.6354L2.84856 21.4349L2.86077 21.2344L2.87505 21.034L2.89138 20.8336L2.90978 20.6333L2.93024 20.433L2.95276 20.233L2.97733 20.033L3.00397 19.8332L3.03267 19.6336L3.06342 19.4342L3.09623 19.2351L3.1311 19.0361L3.16801 18.8375L3.20698 18.6391L3.248 18.441L3.29107 18.2432L3.33617 18.0458L3.38333 17.8488L3.43251 17.6521L3.48374 17.4559L3.53699 17.26L3.59228 17.0646L3.64959 16.8697L3.70892 16.6753L3.77026 16.4814L3.83362 16.288L3.89899 16.0951L3.96636 15.9028L4.03572 15.7111L4.10708 15.52L4.18042 15.3295L4.25575 15.1397L4.33305 14.9505L4.41232 14.7621L4.49355 14.5743L4.57674 14.3872L4.66188 14.2009L4.74896 14.0154L4.83798 13.8306L4.92893 13.6466L5.0218 13.4635L5.11658 13.2812L5.21327 13.0997L5.31185 12.9192L5.41232 12.7395L5.51468 12.5607L5.6189 12.3829L5.72499 12.206L5.83293 12.0301L5.94272 11.8552L6.05434 11.6813L6.16779 11.5085L6.28306 11.3366L6.40013 11.1659L6.519 10.9962L6.63965 10.8276L6.76207 10.6602L6.88626 10.4938L7.0122 10.3287L7.13989 10.1647L7.2693 10.0018L7.40043 9.84019L7.53327 9.67981L7.6678 9.52067L7.80402 9.36278L7.94191 9.20617L8.08145 9.05086L8.22264 8.89685L8.36547 8.74417L8.50991 8.59283L8.65596 8.44285L8.8036 8.29424L8.95282 8.14702L9.10361 8.00121L9.25595 7.85682L9.40983 7.71388L9.56523 7.57238L9.72214 7.43236L9.88055 7.29382L10.0404 7.15677L10.2018 7.02125L10.3646 6.88726L10.5288 6.75481L10.6945 6.62392L10.8616 6.4946L11.03 6.36688L11.1999 6.24075L11.3711 6.11625L11.5436 5.99338L11.7174 5.87215L11.8926 5.75258L12.069 5.63467L12.2467 5.51846L12.4257 5.40394L12.606 5.29114L12.7874 5.18006L12.9701 5.07071L13.1539 4.96312L13.3389 4.85729L13.5251 4.75323L13.7124 4.65096L13.9008 4.55048L14.0903 4.45182L14.2809 4.35497L14.4726 4.25996L14.6653 4.16679L14.8591 4.07547L15.0538 3.98602L15.2496 3.89845L15.4463 3.81276L15.644 3.72897L15.8426 3.64709L16.0421 3.56712L16.2425 3.48907L16.4438 3.41297L16.6459 3.3388L16.8489 3.2666L17.0527 3.19635L17.2573 3.12807L17.4626 3.06178L17.6687 2.99747L17.8756 2.93516L18.0832 2.87486L18.2914 2.81657L18.5004 2.76029L18.71 2.70604L18.9202 2.65383L19.131 2.60367L19.3425 2.55554L19.5545 2.50948L19.767 2.46547L19.9801 2.42353L20.1937 2.38367L20.4078 2.34588L20.6224 2.31018L20.8374 2.27657L21.0528 2.24505L21.2686 2.21564L21.4848 2.18833L21.7014 2.16313L21.9183 2.14003L22.1355 2.11907L22.353 2.10022L22.5708 2.08349L22.7888 2.0689L23.9612 2.00195L24.0281 7.65062L24.0664 7.65018L24.2283 7.64995L24.3902 7.65131L24.5521 7.65426L24.7142 7.65881L24.8762 7.66495L25.0383 7.67267L25.2004 7.682L25.3625 7.69293L25.5245 7.70544L25.6866 7.71956L25.8485 7.73528L26.0104 7.7526L26.1721 7.77151L26.3338 7.79202L26.4953 7.81413L26.6567 7.83783L26.8179 7.86314L26.979 7.89004L27.1398 7.91853L27.3005 7.94862L27.4609 7.9803L27.621 8.01358L27.781 8.04844L27.9406 8.08489L28.0999 8.12292L28.259 8.16254L28.4177 8.20375L28.576 8.24653L28.734 8.29089L28.8917 8.33682L29.0489 8.38432L29.2057 8.43339L29.3621 8.48403L29.5181 8.53623L29.6736 8.58998L29.8286 8.64529L29.9832 8.70214L30.1372 8.76055L30.2907 8.82049L30.4437 8.88198L30.5961 8.945L30.7479 9.00954L30.8992 9.07561L31.0499 9.1432L31.1999 9.2123L31.3493 9.2829L31.4981 9.35501L31.6462 9.42862L31.7936 9.50372L31.9403 9.5803L32.0863 9.65836L32.2316 9.7379L32.3761 9.8189L32.5199 9.90136L32.6629 9.98527L32.8051 10.0707L32.9465 10.1575L33.0871 10.2457L33.2268 10.3354L33.3657 10.4264L33.5037 10.5189L33.6409 10.6128L33.7771 10.708L33.9125 10.8047L34.0469 10.9027L34.1803 11.0021L34.3129 11.1029L34.4444 11.205L34.575 11.3085L34.7045 11.4132L34.8331 11.5193L34.9606 11.6268L35.0871 11.7355L35.2126 11.8455L35.337 11.9568L35.4602 12.0694L35.5824 12.1833L35.7035 12.2984L35.8235 12.4147L35.9423 12.5323L36.06 12.6511L36.1765 12.7712L36.2919 12.8924L36.406 13.0148L36.519 13.1384L36.6307 13.2632L36.7412 13.3891L36.8505 13.5162L36.9585 13.6444L37.0653 13.7737L37.1708 13.9042L37.275 14.0357L37.3779 14.1683L37.4795 14.302L37.5798 14.4368L37.6787 14.5726L37.7763 14.7095L37.8725 14.8474L37.9674 14.9862L38.0609 15.1261L38.153 15.267L38.2437 15.4089L38.3329 15.5517L38.4208 15.6954L38.5072 15.8401L38.5922 15.9857L38.6757 16.1322L38.7578 16.2796L38.8384 16.4279L38.9175 16.577L38.9951 16.727L39.0712 16.8778L39.1458 17.0294L39.2189 17.1819L39.2905 17.3351L39.3605 17.4891L39.429 17.6439L39.4959 17.7994L39.5612 17.9557L39.625 18.1126L39.6872 18.2703L39.7478 18.4286L39.8068 18.5877L39.8642 18.7473L39.92 18.9077L39.9742 19.0686L40.0268 19.2302L40.0777 19.3923L40.127 19.555L40.1746 19.7183L40.2206 19.8821L40.2649 20.0465L40.3076 20.2114L40.3485 20.3767L40.3879 20.5426L40.4255 20.7089L40.4614 20.8757L40.4957 21.0428L40.5282 21.2105L40.559 21.3785L40.5882 21.5469L40.6156 21.7156L40.6413 21.8847L40.6653 22.0542L40.6875 22.2239L40.708 22.394L40.7268 22.5643L40.7438 22.7349L40.7591 22.9057L40.7727 23.0768L40.7845 23.2481L40.7945 23.4196L40.8028 23.5912L40.8094 23.7631L40.8141 23.935L40.8172 24.1071L40.8184 24.2793L40.8179 24.4516L40.8156 24.624L40.8115 24.7965L40.8057 24.9689L40.7981 25.1414L40.7888 25.3139L40.7776 25.4864L40.7647 25.6589L40.75 25.8313L40.7335 26.0037L40.7153 26.176L40.6952 26.3481L40.6734 26.5202L40.6499 26.6921L40.6245 26.8639L40.5974 27.0355L40.5685 27.2069L40.5378 27.3781L40.5054 27.5491L40.4712 27.7199L40.4352 27.8904L40.3974 28.0606L40.3579 28.2306L40.3167 28.4002L40.2736 28.5695L40.2288 28.7384L40.1823 28.907L40.134 29.0752L40.084 29.243L40.0322 29.4105L39.9786 29.5774L39.9234 29.744L39.8664 29.91L39.8076 30.0756L39.7472 30.2407L39.685 30.4052L39.6211 30.5692L39.5555 30.7327L39.4882 30.8956L39.4192 31.0579L39.3485 31.2197L39.2761 31.3807L39.202 31.5412L39.1262 31.701L39.0488 31.8601L38.9696 32.0186L38.8889 32.1763L38.8064 32.3334L38.7224 32.4896L38.6366 32.6452L38.5493 32.7999L38.4603 32.9539L38.3697 33.1071L38.2775 33.2594L38.1837 33.411L38.0882 33.5616L37.9912 33.7114L37.8927 33.8603L37.7925 34.0083L37.6908 34.1554L37.5875 34.3016L37.4827 34.4468L37.3763 34.5911L37.2684 34.7344L37.159 34.8767L37.0481 35.0179L36.9357 35.1582L36.8218 35.2974L36.7064 35.4355L36.5895 35.5726L36.4712 35.7086L36.3514 35.8435L36.2302 35.9773L36.1076 36.11L35.9836 36.2415L35.8581 36.3719L35.7313 36.501L35.603 36.629L35.4734 36.7558L35.3425 36.8814L35.2102 37.0058L35.0766 37.1289L34.9416 37.2508L34.8053 37.3713L34.6678 37.4906L34.5289 37.6087L34.3888 37.7254L34.2474 37.8407L34.1048 37.9548L33.9609 38.0675L33.8158 38.1788L33.6695 38.2887L33.522 38.3973L33.3734 38.5045L33.2235 38.6102L33.0725 38.7146L32.9204 38.8175L32.7672 38.9189L32.6128 39.0189L32.4574 39.1175L32.3009 39.2145L32.1433 39.3101L31.9846 39.4041L31.8249 39.4967L31.6643 39.5877L31.5025 39.6771L31.3399 39.7651L31.1762 39.8514L31.0116 39.9362L30.846 40.0195L30.6795 40.1011L30.5121 40.1811L30.3438 40.2596L30.1746 40.3364L30.0046 40.4116L29.8337 40.4851L29.662 40.557L29.4895 40.6273L29.3162 40.6959L29.1421 40.7628L28.9672 40.8281L28.7916 40.8916L28.6152 40.9535L28.4382 41.0136L28.2605 41.0721L28.082 41.1288L27.9029 41.1838L27.7232 41.2371L27.5429 41.2886L27.3619 41.3384L27.1804 41.3865L26.9982 41.4327L26.8156 41.4772L26.6324 41.52L26.4486 41.5609L26.2644 41.6001L26.0797 41.6375L25.8945 41.6731L25.7089 41.7069L25.5229 41.7388L25.3364 41.769L25.1496 41.7974L24.9623 41.8239L24.7748 41.8486L24.5869 41.8715L24.3986 41.8925L24.2101 41.9117L24.0213 41.9291L23.8323 41.9446L23.643 41.9583L23.4535 41.9701L23.2637 41.9801L23.0738 41.9882L22.8838 41.9944L22.6935 41.9988L22.5032 42.0013L22.3127 42.002L22.1222 42.0008L21.9316 41.9977L21.7409 41.9928L21.5502 41.9859L21.3595 41.9772L21.1688 41.9667L20.9782 41.9542L20.7875 41.9399L20.597 41.9237L20.4065 41.9056L20.2161 41.8857L20.0259 41.8639L19.8358 41.8402L19.6458 41.8146L19.4561 41.7871L19.2665 41.7578L19.0772 41.7266L18.8881 41.6936L18.6992 41.6586L18.5107 41.6218L18.3224 41.5832L18.1345 41.5426L17.9468 41.5002L17.7596 41.456L17.5727 41.4099L17.3862 41.3619L17.2001 41.3121L17.0145 41.2605L16.8293 41.207L16.6445 41.1517L16.4603 41.0945L16.2766 41.0355L16.0934 40.9747L15.9107 40.912L15.7286 40.8475L15.5471 40.7813L15.3662 40.7132L15.1859 40.6433L15.0063 40.5716L14.8273 40.4981L14.649 40.4228L14.4714 40.3458L14.2945 40.267L14.1183 40.1864L13.9429 40.104L13.7683 40.0199L13.5945 39.934L13.4214 39.8464L13.2492 39.7571L13.0779 39.666L12.9073 39.5733L12.7377 39.4788L12.569 39.3826L12.4012 39.2847L12.2343 39.1851L12.0684 39.0839L11.9034 38.9809L11.7394 38.8764L11.5765 38.7701L11.4145 38.6623L11.2536 38.5527L11.0938 38.4416L10.935 38.3289L10.7773 38.2145L10.6207 38.0986L10.4652 37.981L10.3109 37.8619L10.1578 37.7413L10.0058 37.619L9.85498 37.4953L9.70539 37.37L9.55702 37.2432L9.40989 37.1149L9.26402 36.985L9.11942 36.8537L8.97611 36.721L8.83409 36.5867L8.6934 36.4511L8.55404 36.3139L8.41602 36.1754L8.27937 36.0355L8.1441 35.8941L8.01022 35.7514L7.87775 35.6073L7.74671 35.4618L7.6171 35.315L7.48894 35.1669L7.36225 35.0174L7.23704 34.8667L7.11333 34.7146L6.99112 34.5613L6.87044 34.4067L6.75129 34.2509L6.63369 34.0938L6.51765 33.9355L6.40319 33.776L6.29031 33.6153L6.17904 33.4535L6.06938 33.2905L5.96135 33.1263L5.85496 32.9611L5.75021 32.7947L5.64713 32.6272L5.54573 32.4587L5.44601 32.289L5.348 32.1184L5.25169 31.9467L5.1571 31.774L5.06425 31.6002L4.97313 31.4255L4.88378 31.2499L4.79618 31.0733L4.71037 30.8958L4.62634 30.7173L4.5441 30.538L4.46367 30.3577L4.38505 30.1767L4.30826 29.9947L4.23331 29.812L4.16019 29.6284L4.08893 29.444L4.01954 29.2589L3.95201 29.073L3.88636 28.8864L3.82259 28.6991L3.76072 28.511L3.70076 28.3223L3.6427 28.1329L3.58657 27.9429L3.53236 27.7522L3.48008 27.5609L3.42974 27.3691L3.38135 27.1767L3.33491 26.9837L3.29044 26.7902L3.24793 26.5961L3.20739 26.4016L3.16883 26.2066L3.13225 26.0112L3.09766 25.8153L3.06507 25.619L3.03447 25.4223L3.00588 25.2252L2.9793 25.0277L2.95474 24.8299L2.93219 24.6318L2.91166 24.4334L2.89316 24.2348L2.87669 24.0358L2.86225 23.8366L2.84985 23.6372L2.83949 23.4376L2.83117 23.2378L2.82489 23.0379L2.82066 22.8378L2.81849 22.6376L2.81836 22.4373ZM22.1965 7.76894L22.1509 3.91874L22.1076 3.92292L21.9088 3.94408L21.7105 3.96716L21.5123 3.9922L21.3149 4.0191L21.1177 4.04796L20.9207 4.07875L20.7243 4.11143L20.5281 4.14606L20.3329 4.18249L20.1374 4.22096L19.9433 4.26116L19.7489 4.30339L19.5555 4.34741L19.3623 4.39339L19.17 4.44113L18.9782 4.49079L18.7869 4.5423L18.5962 4.59567L18.4064 4.65083L18.2169 4.70789L18.0284 4.76672L17.8404 4.82742L17.6534 4.8898L17.4667 4.95415L17.281 5.02022L17.0962 5.08804L16.9119 5.15771L16.7286 5.22908L16.5463 5.30217L16.3645 5.37714L16.1836 5.45381L16.0036 5.53223L15.8246 5.6123L15.6465 5.69411L15.4694 5.77757L15.2929 5.86287L15.1177 5.94973L14.9434 6.03828L14.7701 6.1285L14.5978 6.22039L14.4267 6.31385L14.2563 6.40904L14.087 6.50588L13.9192 6.6041L13.7519 6.70424L13.5862 6.80571L13.4216 6.90876L13.2578 7.0135L13.0953 7.11977L12.934 7.22759L12.7742 7.33668L12.615 7.4477L12.4574 7.55991L12.301 7.67367L12.1457 7.78899L11.9918 7.90568L11.8393 8.02377L11.6877 8.14352L11.5378 8.26441L11.389 8.38689L11.2416 8.5107L11.0955 8.63595L10.9509 8.7624L10.8073 8.89045L10.6655 9.01964L10.5248 9.15032L10.3857 9.2821L10.248 9.41531L10.1117 9.54972L9.97689 9.68546L9.84335 9.8226L9.71156 9.96068L9.58125 10.1L9.4521 10.2409L9.32474 10.3827L9.19894 10.5255L9.07443 10.6698L8.95173 10.815L8.83039 10.9615L8.71068 11.109L8.59254 11.2577L8.47594 11.4074L8.36106 11.5581L8.24768 11.7099L8.13586 11.8629L8.02584 12.0166L7.91729 12.1716L7.81047 12.3274L7.7053 12.4842L7.60171 12.642L7.49987 12.8007L7.3997 12.9602L7.30121 13.1207L7.20448 13.282L7.10934 13.4443L7.01591 13.6075L6.92432 13.7713L6.83437 13.936L6.74614 14.1016L6.6597 14.2679L6.57496 14.435L6.49204 14.6027L6.41085 14.7712L6.33145 14.9404L6.25378 15.1104L6.17795 15.2809L6.10384 15.4522L6.03154 15.6241L5.96109 15.7965L5.8924 15.9696L5.82551 16.1433L5.76046 16.3175L5.69721 16.4923L5.63583 16.6675L5.57622 16.8434L5.51846 17.0197L5.46255 17.1965L5.40849 17.3736L5.35623 17.5514L5.30586 17.7294L5.25733 17.9079L5.21064 18.0867L5.16581 18.266L5.12285 18.4455L5.08175 18.6254L5.04251 18.8056L5.00514 18.9861L4.96964 19.1668L4.936 19.3478L4.90424 19.529L4.87435 19.7105L4.84634 19.8921L4.8202 20.0739L4.79594 20.2559L4.77355 20.438L4.75304 20.6202L4.73441 20.8026L4.71766 20.985L4.70278 21.1674L4.68978 21.35L4.67866 21.5326L4.66941 21.7151L4.66204 21.8977L4.65654 22.0802L4.65292 22.2627L4.65116 22.4451L4.65128 22.6275L4.65326 22.8097L4.65711 22.9919L4.66282 23.1739L4.67039 23.3557L4.67983 23.5374L4.69111 23.7188L4.70425 23.9001L4.71924 24.0811L4.73608 24.2619L4.75475 24.4425L4.77527 24.6227L4.79762 24.8027L4.8218 24.9823L4.84781 25.1616L4.87565 25.3406L4.90529 25.5191L4.93676 25.6973L4.97003 25.8751L5.0051 26.0524L5.04197 26.2294L5.08063 26.4058L5.12108 26.5818L5.16331 26.7573L5.20731 26.9323L5.25309 27.1068L5.30061 27.2806L5.34991 27.454L5.40095 27.6268L5.45373 27.799L5.50825 27.9706L5.56448 28.1415L5.62244 28.3118L5.68212 28.4814L5.7435 28.6504L5.80656 28.8186L5.87135 28.9862L5.93778 29.153L6.00589 29.3191L6.07568 29.4844L6.14711 29.6489L6.2202 29.8127L6.29492 29.9757L6.37127 30.1378L6.44923 30.2991L6.52881 30.4595L6.60998 30.6191L6.69275 30.7778L6.77709 30.9356L6.86301 31.0925L6.95048 31.2484L7.0395 31.4034L7.13006 31.5575L7.22216 31.7105L7.31573 31.8626L7.41087 32.0137L7.50746 32.1637L7.60556 32.3128L7.70513 32.4608L7.80614 32.6077L7.9086 32.7536L8.01253 32.8984L8.11785 33.0421L8.22462 33.1847L8.33274 33.3261L8.44231 33.4664L8.55319 33.6055L8.66547 33.7435L8.77913 33.8804L8.89406 34.016L9.01036 34.1504L9.12795 34.2836L9.24688 34.4156L9.36706 34.5463L9.48849 34.6758L9.61121 34.804L9.73516 34.931L9.86038 35.0567L9.98678 35.181L10.1144 35.3041L10.2432 35.4258L10.3732 35.5463L10.5043 35.6654L10.6366 35.7831L10.77 35.8994L10.9046 36.0144L11.0403 36.128L11.1769 36.2402L11.3148 36.3511L11.4536 36.4604L11.5935 36.5684L11.7344 36.675L11.8764 36.7801L12.0193 36.8837L12.1632 36.9859L12.308 37.0866L12.4539 37.1859L12.6006 37.2836L12.7484 37.3799L12.8969 37.4747L13.0464 37.5679L13.1968 37.6597L13.3479 37.7499L13.5 37.8386L13.6528 37.9257L13.8065 38.0113L13.9609 38.0953L14.1162 38.1778L14.2721 38.2587L14.4288 38.3381L14.5863 38.4158L14.7445 38.492L14.9033 38.5666L15.0628 38.6396L15.2229 38.7109L15.3838 38.7807L15.5452 38.8488L15.7073 38.9154L15.8699 38.9803L16.0331 39.0435L16.1969 39.1052L16.3611 39.1652L16.5259 39.2235L16.6913 39.2802L16.8571 39.3353L17.0234 39.3887L17.19 39.4404L17.3573 39.4905L17.5248 39.5389L17.6928 39.5856L17.8612 39.6307L18.0299 39.6741L18.199 39.7158L18.3683 39.7558L18.5381 39.7942L18.7081 39.8308L18.8783 39.8658L19.0489 39.8991L19.2197 39.9307L19.3907 39.9606L19.5619 39.9888L19.7333 40.0153L19.9049 40.0401L20.0767 40.0632L20.2485 40.0847L20.4205 40.1044L20.5926 40.1224L20.7648 40.1388L20.9371 40.1534L21.1094 40.1664L21.2817 40.1776L21.4541 40.1872L21.6264 40.195L21.7987 40.2012L21.971 40.2057L22.1433 40.2084L22.3154 40.2095L22.4875 40.2089L22.6595 40.2066L22.8313 40.2027L23.003 40.197L23.1746 40.1897L23.346 40.1807L23.5171 40.17L23.6881 40.1577L23.8589 40.1437L24.0294 40.128L24.1996 40.1106L24.3696 40.0916L24.5392 40.071L24.7086 40.0487L24.8776 40.0247L25.0463 39.9991L25.2146 39.9719L25.3826 39.943L25.5502 39.9125L25.7173 39.8804L25.884 39.8467L26.0503 39.8113L26.2161 39.7744L26.3814 39.7358L26.5463 39.6956L26.7106 39.6539L26.8744 39.6105L27.0376 39.5656L27.2004 39.5191L27.3625 39.471L27.5241 39.4214L27.685 39.3703L27.8454 39.3175L28.0051 39.2633L28.164 39.2075L28.3225 39.1501L28.4802 39.0913L28.6372 39.0309L28.7935 38.9691L28.949 38.9058L29.1038 38.8409L29.2579 38.7746L29.4112 38.7068L29.5636 38.6376L29.7154 38.5669L29.8663 38.4947L30.0163 38.4212L30.1656 38.3461L30.3139 38.2697L30.4614 38.1919L30.6081 38.1126L30.7537 38.032L30.8985 37.95L31.0423 37.8667L31.1854 37.7819L31.3272 37.6959L31.4684 37.6084L31.6083 37.5197L31.7473 37.4296L31.8854 37.3382L32.0225 37.2454L32.1583 37.1516L32.2932 37.0563L32.4271 36.9598L32.5599 36.8621L32.6917 36.763L32.8222 36.6629L32.9519 36.5613L33.0802 36.4587L33.2074 36.3549L33.3337 36.2498L33.4587 36.1435L33.5824 36.0362L33.7051 35.9276L33.8265 35.818L33.9468 35.7072L34.0659 35.5953L34.1836 35.4824L34.3003 35.3682L34.4157 35.253L34.5298 35.1368L34.6427 35.0195L34.7542 34.9013L34.8644 34.7821L34.9736 34.6615L35.0812 34.5403L35.1877 34.4179L35.2927 34.2947L35.3965 34.1704L35.4989 34.0453L35.5999 33.9192L35.6997 33.7921L35.798 33.6643L35.8951 33.5354L35.9906 33.4058L36.0849 33.2752L36.1779 33.1437L36.2691 33.0117L36.3592 32.8786L36.4477 32.7449L36.5349 32.6102L36.6208 32.4747L36.705 32.3387L36.7878 32.2019L36.8693 32.064L36.9491 31.9259L37.0276 31.7868L37.1047 31.647L37.1801 31.5068L37.2542 31.3656L37.3268 31.2238L37.3977 31.0819L37.4673 30.9388L37.5354 30.7952L37.6019 30.6512L37.6669 30.5066L37.7304 30.3614L37.7923 30.2158L37.8528 30.0694L37.9117 29.9226L37.969 29.7757L38.0248 29.6277L38.079 29.4797L38.1318 29.331L38.183 29.182L38.2326 29.0325L38.2805 28.883L38.3271 28.7324L38.3719 28.582L38.4152 28.4311L38.457 28.28L38.4972 28.1283L38.5357 27.9766L38.5728 27.8244L38.6082 27.6719L38.6421 27.5193L38.6744 27.3663L38.705 27.2134L38.7341 27.0598L38.7616 26.9066L38.7875 26.7528L38.8118 26.5989L38.8345 26.445L38.8557 26.2908L38.8752 26.1368L38.8932 25.9821L38.9095 25.828L38.9243 25.6734L38.9374 25.5191L38.949 25.3643L38.959 25.2101L38.9674 25.0554L38.9742 24.9006L38.9794 24.7462L38.9831 24.5921L38.9851 24.4374L38.9856 24.283L38.9845 24.1288L38.9818 23.9747L38.9775 23.8206L38.9716 23.6671L38.9642 23.513L38.9552 23.3596L38.9446 23.2062L38.9325 23.0533L38.9188 22.9001L38.9036 22.7476L38.8868 22.595L38.8684 22.4429L38.8485 22.2909L38.8271 22.1394L38.804 21.9878L38.7795 21.8369L38.7535 21.6865L38.7259 21.536L38.6967 21.386L38.6661 21.2366L38.6339 21.0871L38.6004 20.9387L38.5651 20.7901L38.5286 20.6425L38.4903 20.4947L38.4507 20.348L38.4096 20.2015L38.367 20.0553L38.323 19.91L38.2775 19.7652L38.2304 19.6205L38.1821 19.4769L38.1321 19.3334L38.0809 19.1908L38.0281 19.0485L37.974 18.9072L37.9183 18.7661L37.8613 18.6258L37.803 18.4864L37.7433 18.3476L37.6819 18.209L37.6196 18.0717L37.5555 17.9345L37.4903 17.7986L37.4237 17.6632L37.3556 17.5283L37.2864 17.3945L37.2157 17.2613L37.1436 17.1287L37.0706 16.9974L36.9959 16.8664L36.9201 16.7365L36.8428 16.6072L36.7646 16.4792L36.6847 16.3515L36.6039 16.225L36.5216 16.0991L36.4382 15.9743L36.3537 15.8506L36.2677 15.7274L36.1806 15.6053L36.0924 15.4841L36.0029 15.364L35.9123 15.2446L35.8205 15.1264L35.7276 15.009L35.6335 14.8927L35.5383 14.7774L35.4419 14.663L35.3444 14.5497L35.2459 14.4374L35.1464 14.3262L35.0457 14.216L34.9437 14.1067L34.8412 13.9989L34.737 13.8917L34.6323 13.786L34.5264 13.6811L34.4196 13.5775L34.3114 13.4747L34.2028 13.3735L34.0928 13.2731L33.9819 13.1739L33.8704 13.076L33.7578 12.9792L33.6439 12.8833L33.5294 12.7888L33.4141 12.6955L33.2978 12.6034L33.1806 12.5124L33.0628 12.4229L32.9437 12.3341L32.8242 12.247L32.7037 12.161L32.5823 12.0761L32.4604 11.9926L32.3372 11.9101L32.214 11.8293L32.0894 11.7494L31.9644 11.6709L31.8384 11.5936L31.7119 11.5176L31.5847 11.443L31.457 11.3698L31.3281 11.2975L31.1992 11.2269L31.0692 11.1574L30.9387 11.0893L30.8077 11.0226L30.6759 10.9571L30.5436 10.8929L30.4108 10.8302L30.2773 10.7687L30.1435 10.7087L30.009 10.6499L29.8697 10.5907L29.7387 10.5366L29.6024 10.4818L29.4663 10.4287L29.3291 10.3766L29.1919 10.3262L29.0541 10.277L28.916 10.2293L28.7773 10.1828L28.6385 10.1379L28.4991 10.0943L28.3594 10.0521L28.2196 10.0114L28.0792 9.97191L27.9383 9.93383L27.7976 9.8973L27.6566 9.86216L27.5147 9.82831L27.3733 9.79602L27.2312 9.76502L27.0891 9.73552L26.9465 9.70736L26.8041 9.68068L26.6613 9.65538L26.5186 9.63155L26.3752 9.60905L26.2322 9.58804L26.0889 9.56842L25.9454 9.55021L25.8019 9.53343L25.6584 9.51809L25.5148 9.50415L25.3711 9.49163L25.2273 9.48052L25.0834 9.47082L24.9399 9.46256L24.7963 9.45571L24.6522 9.45026L24.5089 9.44624L24.3653 9.44362L24.2218 9.44242L24.0781 9.44262L24.0493 9.44295L24.0946 13.2652L24.1761 13.2648L24.281 13.2654L24.3859 13.267L24.4909 13.2697L24.596 13.2734L24.7011 13.2782L24.8062 13.284L24.9114 13.2908L25.0166 13.2987L25.1218 13.3076L25.227 13.3176L25.3321 13.3286L25.4373 13.3407L25.5424 13.3538L25.6474 13.3679L25.7524 13.3832L25.8573 13.3994L25.9621 13.4167L26.0669 13.4351L26.1715 13.4545L26.276 13.475L26.3804 13.4965L26.4847 13.519L26.5888 13.5426L26.6927 13.5673L26.7965 13.593L26.9 13.6197L27.0034 13.6475L27.1066 13.6763L27.2096 13.7062L27.3124 13.7371L27.4149 13.769L27.5171 13.802L27.6191 13.836L27.7209 13.8711L27.8223 13.9072L27.9235 13.9443L28.0243 13.9824L28.1249 14.0216L28.2251 14.0618L28.325 14.103L28.4245 14.1453L28.5237 14.1885L28.6225 14.2328L28.7209 14.278L28.8189 14.3243L28.9166 14.3716L29.0138 14.4199L29.1106 14.4692L29.207 14.5195L29.3029 14.5707L29.3984 14.623L29.4934 14.6762L29.5879 14.7304L29.682 14.7856L29.7756 14.8418L29.8686 14.8989L29.9611 14.957L30.0531 15.0161L30.1446 15.0761L30.2355 15.137L30.3259 15.1989L30.4157 15.2618L30.5049 15.3255L30.5935 15.3902L30.6815 15.4559L30.769 15.5224L30.8557 15.5899L30.9419 15.6583L31.0274 15.7275L31.1123 15.7977L31.1965 15.8688L31.2801 15.9407L31.363 16.0135L31.4452 16.0872L31.5267 16.1618L31.6074 16.2372L31.6875 16.3135L31.7668 16.3906L31.8454 16.4686L31.9233 16.5474L32.0004 16.6271L32.0768 16.7075L32.1523 16.7888L32.2271 16.8709L32.3011 16.9538L32.3743 17.0374L32.4467 17.1219L32.5183 17.2071L32.5891 17.2931L32.659 17.3799L32.7281 17.4674L32.7963 17.5557L32.8637 17.6447L32.9302 17.7345L32.9958 17.8249L33.0606 17.9161L33.1244 18.008L33.1874 18.1006L33.2494 18.1939L33.3105 18.2878L33.3707 18.3825L33.43 18.4778L33.4884 18.5737L33.5458 18.6703L33.6022 18.7676L33.6577 18.8654L33.7122 18.9639L33.7657 19.063L33.8183 19.1627L33.8699 19.263L33.9204 19.3639L33.97 19.4654L34.0186 19.5674L34.0661 19.6699L34.1126 19.7731L34.1581 19.8767L34.2026 19.9809L34.246 20.0856L34.2884 20.1908L34.3297 20.2965L34.3699 20.4026L34.4091 20.5093L34.4472 20.6164L34.4843 20.724L34.5203 20.832L34.5551 20.9405L34.5889 21.0493L34.6216 21.1586L34.6532 21.2683L34.6837 21.3784L34.713 21.4889L34.7413 21.5997L34.7684 21.7109L34.7944 21.8224L34.8193 21.9343L34.843 22.0465L34.8656 22.159L34.887 22.2718L34.9073 22.385L34.9265 22.4984L34.9445 22.612L34.9613 22.726L34.977 22.8401L34.9915 22.9545L35.0049 23.0692L35.017 23.1841L35.028 23.2991L35.0379 23.4144L35.0465 23.5298L35.054 23.6454L35.0602 23.7611L35.0653 23.877L35.0692 23.9931L35.0719 24.1092L35.0734 24.2255L35.0737 24.3419L35.0728 24.4583L35.0707 24.5748L35.0674 24.6914L35.0629 24.8081L35.0572 24.9247L35.0503 25.0414L35.0422 25.1582L35.0329 25.2749L35.0223 25.3916L35.0106 25.5083L34.9976 25.6249L34.9835 25.7416L34.9681 25.8581L34.9515 25.9746L34.9337 26.091L34.9147 26.2073L34.8945 26.3235L34.873 26.4396L34.8504 26.5556L34.8265 26.6714L34.8014 26.7871L34.7752 26.9026L34.7477 27.0179L34.719 27.133L34.6891 27.248L34.658 27.3627L34.6257 27.4772L34.5922 27.5914L34.5575 27.7054L34.5216 27.8192L34.4844 27.9327L34.4461 28.0458L34.4066 28.1587L34.366 28.2713L34.3241 28.3835L34.281 28.4954L34.2368 28.607L34.1914 28.7182L34.1448 28.8291L34.097 28.9395L34.0481 29.0496L33.998 29.1593L33.9467 29.2685L33.8943 29.3773L33.8407 29.4857L33.7859 29.5936L33.73 29.7011L33.673 29.808L33.6148 29.9145L33.5555 30.0205L33.4951 30.126L33.4335 30.2309L33.3708 30.3354L33.307 30.4392L33.2421 30.5426L33.176 30.6453L33.1089 30.7475L33.0406 30.849L32.9713 30.95L32.9009 31.0504L32.8294 31.1501L32.7568 31.2492L32.6832 31.3477L32.6085 31.4455L32.5327 31.5426L32.4559 31.639L32.378 31.7348L32.2991 31.8298L32.2192 31.9242L32.1382 32.0178L32.0562 32.1107L31.9732 32.2028L31.8892 32.2942L31.8042 32.3848L31.7183 32.4747L31.6313 32.5637L31.5434 32.652L31.4544 32.7394L31.3646 32.8261L31.2737 32.9119L31.182 32.9968L31.0893 33.081L30.9956 33.1642L30.9011 33.2466L30.8056 33.3282L30.7093 33.4088L30.612 33.4886L30.5139 33.5674L30.4148 33.6453L30.3149 33.7223L30.2142 33.7984L30.1126 33.8735L30.0101 33.9477L29.9069 34.021L29.8028 34.0932L29.6979 34.1645L29.5921 34.2348L29.4856 34.3041L29.3783 34.3724L29.2703 34.4397L29.1614 34.5059L29.0519 34.5712L28.9415 34.6354L28.8305 34.6985L28.7187 34.7606L28.6062 34.8217L28.493 34.8817L28.3791 34.9406L28.2645 34.9984L28.1493 35.0551L28.0334 35.1108L27.9168 35.1653L27.7996 35.2187L27.6818 35.271L27.5634 35.3222L27.4443 35.3722L27.3247 35.4211L27.2045 35.4689L27.0837 35.5155L26.9624 35.561L26.8405 35.6053L26.7181 35.6484L26.5951 35.6903L26.4717 35.7311L26.3477 35.7706L26.2233 35.809L26.0984 35.8462L25.973 35.8821L25.8472 35.9169L25.7209 35.9504L25.5942 35.9827L25.4671 36.0138L25.3396 36.0437L25.2116 36.0723L25.0834 36.0997L24.9547 36.1258L24.8257 36.1507L24.6964 36.1744L24.5667 36.1968L24.4367 36.2179L24.3065 36.2377L24.1759 36.2563L24.045 36.2736L23.9139 36.2897L23.7826 36.3044L23.651 36.3179L23.5192 36.3301L23.3872 36.341L23.255 36.3506L23.1226 36.3589L22.99 36.3659L22.8573 36.3716L22.7244 36.376L22.5914 36.3791L22.4583 36.3809L22.325 36.3814L22.1917 36.3806L22.0584 36.3784L21.9249 36.375L21.7914 36.3702L21.6579 36.3641L21.5243 36.3567L21.3908 36.348L21.2572 36.338L21.1237 36.3266L20.9902 36.3139L20.8567 36.2999L20.7233 36.2846L20.59 36.268L20.4567 36.25L20.3236 36.2307L20.1906 36.2101L20.0577 36.1882L19.9249 36.1649L19.7923 36.1404L19.6599 36.1145L19.5277 36.0872L19.3956 36.0587L19.2638 36.0289L19.1322 35.9977L19.0008 35.9652L18.8697 35.9314L18.7388 35.8963L18.6082 35.8599L18.478 35.8222L18.348 35.7832L18.2183 35.7429L18.089 35.7012L17.9601 35.6583L17.8314 35.6141L17.7032 35.5686L17.5754 35.5218L17.4479 35.4737L17.3209 35.4243L17.1943 35.3737L17.0681 35.3217L16.9424 35.2685L16.8172 35.2141L16.6925 35.1583L16.5682 35.1013L16.4445 35.0431L16.3213 34.9836L16.1986 34.9228L16.0764 34.8608L15.9549 34.7976L15.8339 34.7331L15.7135 34.6674L15.5937 34.6005L15.4745 34.5323L15.3559 34.463L15.238 34.3924L15.1207 34.3206L15.0041 34.2477L14.8882 34.1735L14.773 34.0982L14.6585 34.0216L14.5447 33.9439L14.4316 33.8651L14.3193 33.7851L14.2077 33.7039L14.0969 33.6216L13.9868 33.5381L13.8776 33.4535L13.7692 33.3678L13.6616 33.2809L13.5548 33.193L13.4488 33.1039L13.3437 33.0138L13.2395 32.9225L13.1361 32.8302L13.0336 32.7368L12.9321 32.6424L12.8314 32.5469L12.7316 32.4503L12.6328 32.3527L12.535 32.2541L12.4381 32.1544L12.3421 32.0538L12.2471 31.9521L12.1532 31.8495L12.0602 31.7458L11.9682 31.6412L11.8773 31.5356L11.7873 31.4291L11.6985 31.3216L11.6106 31.2131L11.5239 31.1038L11.4382 30.9935L11.3536 30.8823L11.2701 30.7702L11.1876 30.6573L11.1063 30.5434L11.0262 30.4287L10.9471 30.3131L10.8692 30.1967L10.7924 30.0795L10.7168 29.9614L10.6424 29.8425L10.5692 29.7228L10.4971 29.6023L10.4262 29.4811L10.3566 29.359L10.2881 29.2363L10.2209 29.1127L10.1549 28.9885L10.0902 28.8635L10.0266 28.7378L9.9644 28.6114L9.90341 28.4843L9.84369 28.3566L9.78525 28.2281L9.72809 28.0991L9.67223 27.9694L9.61767 27.839L9.56441 27.7081L9.51248 27.5766L9.46186 27.4444L9.41257 27.3117L9.36461 27.1785L9.318 27.0446L9.27274 26.9103L9.22883 26.7754L9.18628 26.64L9.1451 26.5042L9.10529 26.3678L9.06686 26.231L9.02981 26.0937L8.99416 25.9559L8.9599 25.8178L8.92703 25.6792L8.89558 25.5402L8.86553 25.4008L8.8369 25.2611L8.80969 25.121L8.7839 24.9805L8.75954 24.8397L8.73662 24.6986L8.71513 24.5572L8.69508 24.4155L8.67648 24.2735L8.65933 24.1312L8.64363 23.9887L8.62938 23.846L8.61659 23.703L8.60527 23.5598L8.59541 23.4165L8.58701 23.2729L8.58009 23.1292L8.57464 22.9854L8.57067 22.8414L8.56817 22.6973L8.56715 22.553L8.56762 22.4087L8.56956 22.2643L8.573 22.1199L8.57791 21.9754L8.58432 21.8308L8.59222 21.6863L8.6016 21.5417L8.61248 21.3972L8.62484 21.2526L8.6387 21.1082L8.65406 20.9637L8.6709 20.8194L8.68924 20.6751L8.70907 20.5309L8.73039 20.3868L8.75321 20.2429L8.77751 20.0991L8.80331 19.9555L8.8306 19.812L8.85938 19.6687L8.88964 19.5257L8.9214 19.3828L8.95464 19.2402L8.98936 19.0978L9.02556 18.9557L9.06325 18.8139L9.10241 18.6723L9.14305 18.5311L9.18517 18.3902L9.22875 18.2496L9.27381 18.1093L9.32033 17.9695L9.36831 17.83L9.41776 17.6909L9.46866 17.5522L9.52101 17.4139L9.57481 17.2761L9.63006 17.1387L9.68675 17.0018L9.74488 16.8654L9.80444 16.7294L9.86544 16.594L9.92785 16.4591L9.99169 16.3247L10.0569 16.1909L10.1236 16.0577L10.1917 15.925L10.2611 15.793L10.332 15.6615L10.4043 15.5307L10.4779 15.4005L10.5529 15.2709L10.6293 15.1421L10.7071 15.0139L10.7862 14.8864L10.8667 14.7596L10.9485 14.6335L11.0317 14.5082L11.1161 14.3836L11.202 14.2598L11.2891 14.1367L11.3775 14.0144L11.4673 13.893L11.5583 13.7723L11.6507 13.6525L11.7443 13.5335L11.8392 13.4154L11.9353 13.2982L12.0327 13.1818L12.1314 13.0663L12.2313 12.9517L12.3324 12.8381L12.4348 12.7254L12.5383 12.6136L12.6431 12.5028L12.7491 12.3929L12.8562 12.2841L12.9645 12.1762L13.074 12.0693L13.1847 11.9635L13.2965 11.8586L13.4094 11.7549L13.5235 11.6521L13.6387 11.5505L13.7549 11.4499L13.8723 11.3504L13.9908 11.252L14.1103 11.1547L14.2309 11.0585L14.3526 10.9635L14.4753 10.8696L14.599 10.7769L14.7238 10.6853L14.8495 10.5949L14.9762 10.5057L15.104 10.4177L15.2327 10.3309L15.3623 10.2454L15.493 10.161L15.6245 10.0779L15.757 9.99599L15.8904 9.91538L16.0247 9.83604L16.1598 9.75798L16.2959 9.6812L16.4328 9.60571L16.5705 9.53154L16.7091 9.45868L16.8485 9.38714L16.9887 9.31693L17.1297 9.24806L17.2715 9.18054L17.4141 9.11438L17.5574 9.04958L17.7015 8.98615L17.8463 8.92411L17.9918 8.86346L18.138 8.8042L18.2848 8.74635L18.4324 8.68991L18.5806 8.63489L18.7295 8.5813L18.879 8.52914L19.0291 8.47842L19.1798 8.42915L19.331 8.38134L19.4829 8.33498L19.6353 8.29009L19.7883 8.24668L19.9417 8.20474L20.0957 8.16429L20.2502 8.12533L20.4052 8.08787L20.5606 8.05192L20.7165 8.01746L20.8728 7.98452L21.0295 7.9531L21.1867 7.92321L21.3442 7.89484L21.5021 7.868L21.6604 7.8427L21.819 7.81894L21.9779 7.79673L22.1371 7.77606L22.1965 7.76894ZM22.2637 13.4381L22.2179 9.57384L22.0874 9.59208L21.9471 9.61311L21.8067 9.63554L21.6672 9.65925L21.5275 9.68441L21.3885 9.71086L21.2498 9.73867L21.1116 9.76778L20.9737 9.79827L20.8361 9.83011L20.6989 9.86326L20.5623 9.89772L20.4258 9.93356L20.2947 9.96935L20.155 10.0091L20.0201 10.0488L19.8858 10.0898L19.7522 10.132L19.6189 10.1756L19.4861 10.2205L19.3539 10.2666L19.2224 10.3139L19.0914 10.3626L18.961 10.4124L18.8311 10.4636L18.7022 10.5159L18.5733 10.5696L18.4454 10.6244L18.3181 10.6804L18.1917 10.7376L18.0656 10.7961L17.9402 10.8558L17.8159 10.9165L17.6918 10.9786L17.569 11.0417L17.4464 11.1062L17.325 11.1715L17.2038 11.2384L17.0838 11.306L16.9646 11.3749L16.846 11.445L16.7283 11.5161L16.6112 11.5885L16.4953 11.6617L16.3799 11.7362L16.2656 11.8117L16.1521 11.8882L16.0394 11.9659L15.9274 12.0447L15.8167 12.1242L15.7066 12.2051L15.5974 12.2869L15.4892 12.3697L15.382 12.4534L15.2755 12.5383L15.1702 12.624L15.0658 12.7107L14.9622 12.7986L14.8599 12.8871L14.7583 12.9768L14.6577 13.0674L14.5582 13.1588L14.4598 13.2511L14.3621 13.3445L14.2658 13.4385L14.1704 13.5335L14.0759 13.6295L13.9826 13.7262L13.8903 13.8239L13.7991 13.9223L13.709 14.0215L13.6199 14.1216L13.5318 14.2226L13.4452 14.3241L13.3594 14.4266L13.2747 14.5299L13.1912 14.6338L13.1089 14.7384L13.0275 14.844L12.9474 14.9501L12.8684 15.057L12.7906 15.1646L12.7139 15.2729L12.6385 15.3817L12.5642 15.4913L12.491 15.6016L12.419 15.7125L12.3483 15.8239L12.2788 15.936L12.2104 16.0489L12.1432 16.1621L12.0773 16.276L12.0125 16.3905L11.9491 16.5053L11.8868 16.6209L11.8256 16.7371L11.7659 16.8535L11.7073 16.9707L11.65 17.0883L11.5939 17.2062L11.5391 17.3248L11.4855 17.4437L11.4332 17.5631L11.3821 17.6829L11.3324 17.8031L11.2839 17.9237L11.2366 18.0448L11.1906 18.1662L11.146 18.2879L11.1025 18.4101L11.0605 18.5324L11.0196 18.6552L10.9801 18.7783L10.9418 18.9017L10.9049 19.0253L10.8692 19.1492L10.8349 19.2733L10.8018 19.3978L10.77 19.5224L10.7396 19.6473L10.7104 19.7724L10.6826 19.8976L10.656 20.0231L10.6308 20.1487L10.6069 20.2744L10.5843 20.4004L10.563 20.5264L10.543 20.6526L10.5243 20.7787L10.5069 20.9051L10.4908 21.0315L10.4761 21.158L10.4626 21.2845L10.4505 21.4111L10.4397 21.5377L10.4301 21.6642L10.4219 21.7909L10.415 21.9175L10.4094 22.044L10.4051 22.1705L10.4021 22.2969L10.4004 22.4233L10.4 22.5497L10.4009 22.6759L10.403 22.802L10.4065 22.928L10.4113 23.0538L10.4173 23.1796L10.4247 23.3052L10.4333 23.4305L10.4432 23.5558L10.4544 23.6808L10.4669 23.8056L10.4806 23.9302L10.4956 24.0546L10.5118 24.1788L10.5294 24.3026L10.5482 24.4263L10.5682 24.5495L10.5895 24.6726L10.612 24.7954L10.6358 24.9177L10.6608 25.0399L10.687 25.1616L10.7145 25.2831L10.7432 25.404L10.7732 25.5247L10.8043 25.645L10.8367 25.7649L10.8702 25.8843L10.905 26.0034L10.9409 26.122L10.9781 26.2402L11.0164 26.358L11.0559 26.4752L11.0966 26.5919L11.1384 26.7082L11.1814 26.824L11.2256 26.9393L11.2709 27.054L11.3173 27.1682L11.3649 27.2819L11.4136 27.395L11.4635 27.5075L11.5144 27.6195L11.5665 27.7308L11.6197 27.8416L11.6739 27.9518L11.7293 28.0613L11.7857 28.1703L11.8432 28.2786L11.9018 28.3862L11.9614 28.4932L12.0221 28.5995L12.0838 28.7051L12.1466 28.81L12.2104 28.9143L12.2752 29.0178L12.341 29.1206L12.4079 29.2228L12.4756 29.324L12.5445 29.4247L12.6142 29.5245L12.685 29.6236L12.7567 29.7219L12.8294 29.8194L12.903 29.9161L12.9776 30.0121L13.053 30.1072L13.1294 30.2015L13.2067 30.295L13.2849 30.3877L13.364 30.4794L13.444 30.5705L13.5248 30.6605L13.6065 30.7498L13.689 30.8381L13.7724 30.9256L13.8566 31.0122L13.9417 31.0979L14.0275 31.1827L14.1142 31.2666L14.2017 31.3496L14.2898 31.4316L14.3789 31.5128L14.4686 31.5929L14.5591 31.6721L14.6504 31.7504L14.7424 31.8277L14.8351 31.9041L14.9285 31.9794L15.0226 32.0538L15.1174 32.1272L15.2129 32.1997L15.3091 32.2711L15.4058 32.3415L15.5032 32.4109L15.6013 32.4793L15.7 32.5467L15.7994 32.6131L15.8993 32.6784L15.9998 32.7427L16.1009 32.806L16.2025 32.8682L16.3047 32.9294L16.4075 32.9895L16.5107 33.0485L16.6146 33.1065L16.7188 33.1634L16.8237 33.2193L16.929 33.2741L17.0347 33.3277L17.141 33.3804L17.2478 33.4319L17.3549 33.4824L17.4624 33.5317L17.5705 33.58L17.6788 33.6271L17.7876 33.6731L17.8968 33.7181L18.0064 33.7619L18.1162 33.8046L18.2265 33.8462L18.3371 33.8867L18.448 33.9261L18.5592 33.9643L18.6708 34.0015L18.7826 34.0374L18.8947 34.0723L19.0071 34.106L19.1197 34.1386L19.2325 34.1701L19.3456 34.2004L19.4589 34.2297L19.5724 34.2577L19.6861 34.2846L19.8 34.3104L19.9141 34.3351L20.0283 34.3586L20.1426 34.3809L20.2572 34.4021L20.3717 34.4222L20.4865 34.4412L20.6013 34.4589L20.7162 34.4756L20.8312 34.4911L20.9462 34.5055L21.0613 34.5187L21.1764 34.5308L21.2916 34.5417L21.4068 34.5515L21.522 34.5601L21.6372 34.5677L21.7523 34.574L21.8674 34.5793L21.9826 34.5834L22.0976 34.5864L22.2125 34.5882L22.3274 34.5889L22.4422 34.5885L22.5569 34.5869L22.6715 34.5843L22.7859 34.5805L22.9003 34.5756L23.0144 34.5695L23.1284 34.5624L23.2422 34.5541L23.3559 34.5447L23.4693 34.5342L23.5826 34.5226L23.6957 34.5099L23.8085 34.4961L23.9211 34.4812L24.0334 34.4653L24.1455 34.4482L24.2573 34.43L24.3687 34.4108L24.48 34.3904L24.5909 34.369L24.7015 34.3466L24.8119 34.323L24.9217 34.2984L25.0313 34.2728L25.1405 34.246L25.2494 34.2183L25.3579 34.1895L25.466 34.1596L25.5737 34.1287L25.681 34.0968L25.7878 34.0639L25.8942 34.0299L26.0003 33.9949L26.1058 33.9589L26.2109 33.9219L26.3155 33.8839L26.4196 33.8449L26.5232 33.8049L26.6263 33.7639L26.729 33.7219L26.8311 33.679L26.9326 33.6351L27.0337 33.5903L27.1341 33.5445L27.2341 33.4977L27.3335 33.45L27.4321 33.4015L27.5305 33.3518L27.628 33.3014L27.7251 33.2499L27.8213 33.1977L27.9171 33.1445L28.0123 33.0904L28.1067 33.0354L28.2006 32.9795L28.2938 32.9228L28.3862 32.8652L28.4782 32.8067L28.5692 32.7475L28.6597 32.6873L28.7496 32.6262L28.8386 32.5644L28.9268 32.5019L29.0146 32.4383L29.1014 32.3742L29.1876 32.3091L29.2731 32.2432L29.3575 32.1767L29.4416 32.1092L29.5248 32.041L29.6069 31.9722L29.6887 31.9023L29.7694 31.832L29.8493 31.761L29.9287 31.6889L30.0069 31.6165L30.0845 31.5432L30.1613 31.4692L30.2371 31.3946L30.3122 31.3192L30.3865 31.2432L30.4599 31.1665L30.5323 31.0892L30.604 31.0112L30.6749 30.9326L30.7447 30.8535L30.8139 30.7735L30.882 30.6931L30.9492 30.6121L31.0157 30.5303L31.0811 30.4483L31.1457 30.3654L31.2094 30.2821L31.2722 30.1981L31.334 30.1137L31.3948 30.0289L31.4549 29.9432L31.5139 29.8573L31.572 29.7708L31.6293 29.6837L31.6853 29.5964L31.7407 29.5084L31.795 29.4199L31.8484 29.3311L31.9007 29.2418L31.9523 29.1519L32.0026 29.062L32.0522 28.9712L32.1007 28.8803L32.1481 28.789L32.1948 28.697L32.2402 28.6052L32.2849 28.5124L32.3283 28.4199L32.3711 28.3264L32.4125 28.2331L32.4532 28.139L32.4928 28.045L32.5313 27.9506L32.5689 27.8558L32.6055 27.7607L32.6409 27.6656L32.6756 27.5699L32.709 27.4741L32.7415 27.3781L32.773 27.2818L32.8035 27.1852L32.833 27.0885L32.8614 26.9917L32.8888 26.8945L32.9151 26.7973L32.9405 26.6998L32.9648 26.6022L32.9881 26.5046L33.0104 26.4065L33.0316 26.3085L33.0519 26.2104L33.071 26.1123L33.0892 26.014L33.1063 25.9153L33.1224 25.817L33.1375 25.7184L33.1515 25.6197L33.1645 25.5212L33.1765 25.4225L33.1875 25.3235L33.1974 25.2252L33.2064 25.1261L33.2143 25.0274L33.2211 24.9289L33.227 24.8301L33.2318 24.7315L33.2356 24.633L33.2384 24.5342L33.2401 24.436L33.2409 24.3374L33.2406 24.2391L33.2394 24.1408L33.2371 24.0429L33.2338 23.9448L33.2295 23.8469L33.2242 23.7494L33.2179 23.6516L33.2106 23.5541L33.2024 23.4571L33.1931 23.3598L33.1828 23.2631L33.1715 23.1662L33.1593 23.0698L33.1461 22.9735L33.1319 22.8773L33.1167 22.7815L33.1006 22.686L33.0835 22.5907L33.0654 22.4957L33.0463 22.4006L33.0263 22.3062L33.0054 22.2121L32.9835 22.1181L32.9606 22.0243L32.9369 21.9313L32.9121 21.838L32.8865 21.7455L32.8599 21.6531L32.8324 21.5613L32.804 21.4696L32.7746 21.3783L32.7444 21.2876L32.7133 21.1972L32.6811 21.1069L32.6483 21.0174L32.6144 20.9281L32.5797 20.8394L32.5441 20.7509L32.5076 20.6628L32.4703 20.5755L32.432 20.4883L32.393 20.4018L32.3531 20.3158L32.3123 20.23L32.2706 20.1447L32.2283 20.0602L32.1849 19.9759L32.1409 19.8924L32.096 19.8094L32.0502 19.7265L32.0038 19.6446L31.9564 19.563L31.9083 19.4821L31.8593 19.4015L31.8098 19.3218L31.7592 19.2423L31.7081 19.1637L31.6561 19.0856L31.6034 19.0081L31.5498 18.931L31.4956 18.8547L31.4408 18.7791L31.385 18.7038L31.3287 18.6294L31.2715 18.5555L31.2139 18.4824L31.1553 18.4097L31.0961 18.3378L31.0362 18.2665L30.9757 18.1958L30.9146 18.126L30.8526 18.0566L30.7902 17.9881L30.727 17.9201L30.6634 17.8531L30.5988 17.7864L30.5339 17.7207L30.4681 17.6554L30.4019 17.5911L30.3352 17.5275L30.2678 17.4645L30.1997 17.4022L30.1311 17.3408L30.062 17.2801L29.9921 17.2199L29.9222 17.1609L29.8513 17.1022L29.78 17.0445L29.7082 16.9876L29.6358 16.9312L29.563 16.8758L29.4899 16.8213L29.4159 16.7673L29.3414 16.714L29.2669 16.6619L29.1914 16.6102L29.116 16.5597L29.0399 16.5097L28.9633 16.4605L28.8862 16.4121L28.809 16.3647L28.731 16.3179L28.6529 16.2721L28.5741 16.2269L28.4954 16.1828L28.416 16.1394L28.3362 16.0967L28.2561 16.0549L28.1758 16.0141L28.095 15.9739L28.0138 15.9346L27.9325 15.8962L27.851 15.8587L27.7686 15.8218L27.6866 15.786L27.604 15.751L27.521 15.7167L27.4379 15.6834L27.3547 15.651L27.2711 15.6194L27.187 15.5885L27.1031 15.5587L27.0187 15.5296L26.9341 15.5014L26.8496 15.4741L26.7647 15.4477L26.6798 15.4221L26.5942 15.3973L26.5089 15.3735L26.4234 15.3505L26.3377 15.3284L26.2519 15.3071L26.1657 15.2867L26.0797 15.2672L25.9937 15.2486L25.9073 15.2308L25.8207 15.2138L25.7346 15.1979L25.6479 15.1827L25.5614 15.1684L25.4745 15.1549L25.3881 15.1424L25.301 15.1306L25.2145 15.1199L25.1277 15.1099L25.0409 15.1008L24.9542 15.0926L24.8673 15.0852L24.7808 15.0787L24.6938 15.0731L24.6072 15.0683L24.5208 15.0644L24.4338 15.0613L24.3475 15.0591L24.2611 15.0578L24.1748 15.0573L24.1158 15.0575L24.1605 18.8329L24.1872 18.833L24.2368 18.8337L24.2865 18.8349L24.3363 18.8365L24.3861 18.8388L24.436 18.8415L24.4859 18.8447L24.5359 18.8485L24.5859 18.8528L24.636 18.8576L24.6861 18.8629L24.7362 18.8687L24.7864 18.8751L24.8365 18.882L24.8867 18.8894L24.9369 18.8974L24.9871 18.9059L25.0372 18.9149L25.0874 18.9245L25.1375 18.9345L25.1876 18.9452L25.2377 18.9563L25.2878 18.968L25.3377 18.9802L25.3877 18.9929L25.4376 19.0062L25.4874 19.02L25.5372 19.0343L25.5869 19.0492L25.6365 19.0646L25.686 19.0806L25.7355 19.0971L25.7848 19.1141L25.8341 19.1316L25.8832 19.1497L25.9322 19.1683L25.9811 19.1874L26.0299 19.2071L26.0785 19.2273L26.127 19.248L26.1754 19.2693L26.2236 19.2911L26.2717 19.3134L26.3196 19.3363L26.3673 19.3596L26.4149 19.3835L26.4622 19.408L26.5094 19.4329L26.5564 19.4584L26.6032 19.4844L26.6498 19.5109L26.6962 19.5379L26.7423 19.5654L26.7883 19.5935L26.834 19.6221L26.8795 19.6512L26.9247 19.6807L26.9697 19.7108L27.0145 19.7415L27.059 19.7726L27.1032 19.8042L27.1472 19.8363L27.1909 19.8689L27.2343 19.902L27.2774 19.9356L27.3203 19.9697L27.3628 20.0043L27.405 20.0393L27.447 20.0749L27.4886 20.1109L27.5299 20.1474L27.5709 20.1844L27.6115 20.2219L27.6518 20.2598L27.6917 20.2982L27.7314 20.3371L27.7706 20.3764L27.8095 20.4162L27.8481 20.4564L27.8862 20.4971L27.924 20.5383L27.9614 20.5799L27.9985 20.6219L28.0351 20.6644L28.0713 20.7073L28.1072 20.7506L28.1426 20.7944L28.1776 20.8386L28.2122 20.8832L28.2464 20.9283L28.2802 20.9737L28.3135 21.0196L28.3463 21.0658L28.3788 21.1125L28.4108 21.1596L28.4423 21.2071L28.4734 21.2549L28.5041 21.3032L28.5342 21.3518L28.5639 21.4008L28.5931 21.4502L28.6218 21.4999L28.6501 21.55L28.6778 21.6005L28.7051 21.6513L28.7319 21.7025L28.7581 21.754L28.7839 21.8058L28.8091 21.858L28.8338 21.9106L28.858 21.9634L28.8817 22.0166L28.9049 22.0701L28.9275 22.1239L28.9496 22.178L28.9711 22.2324L28.9921 22.2871L29.0126 22.3421L29.0325 22.3974L29.0518 22.453L29.0706 22.5088L29.0888 22.5649L29.1064 22.6213L29.1235 22.6779L29.14 22.7348L29.1559 22.792L29.1713 22.8493L29.1861 22.9069L29.2002 22.9648L29.2138 23.0229L29.2268 23.0811L29.2392 23.1397L29.251 23.1984L29.2621 23.2572L29.2727 23.3164L29.2827 23.3757L29.2921 23.4351L29.3008 23.4948L29.3089 23.5546L29.3164 23.6146L29.3233 23.6748L29.3296 23.7351L29.3352 23.7955L29.3402 23.8561L29.3446 23.9169L29.3483 23.9777L29.3514 24.0387L29.3538 24.0998L29.3557 24.161L29.3568 24.2223L29.3574 24.2837L29.3572 24.3451L29.3565 24.4067L29.3551 24.4684L29.353 24.5301L29.3503 24.5919L29.3469 24.6537L29.3429 24.7156L29.3382 24.7775L29.3328 24.8395L29.3268 24.9015L29.3202 24.9635L29.3128 25.0255L29.3048 25.0876L29.2962 25.1497L29.2869 25.2117L29.2769 25.2737L29.2662 25.3357L29.2549 25.3977L29.2429 25.4597L29.2303 25.5216L29.2169 25.5835L29.2029 25.6453L29.1883 25.7071L29.1729 25.7688L29.1569 25.8305L29.1403 25.892L29.1229 25.9535L29.1049 26.0148L29.0862 26.0761L29.0669 26.1373L29.0469 26.1983L29.0262 26.2593L29.0049 26.3201L28.9828 26.3807L28.9601 26.4413L28.9368 26.5016L28.9128 26.5619L28.8881 26.6219L28.8628 26.6818L28.8368 26.7415L28.8101 26.8011L28.7828 26.8604L28.7548 26.9195L28.7261 26.9785L28.6969 27.0372L28.6669 27.0957L28.6363 27.154L28.605 27.212L28.5731 27.2698L28.5406 27.3274L28.5074 27.3847L28.4735 27.4418L28.4391 27.4985L28.4039 27.5551L28.3682 27.6113L28.3318 27.6672L28.2947 27.7229L28.2571 27.7782L28.2188 27.8333L28.1799 27.888L28.1403 27.9424L28.1002 27.9965L28.0594 28.0502L28.018 28.1036L27.976 28.1567L27.9334 28.2094L27.8902 28.2617L27.8464 28.3137L27.802 28.3653L27.7569 28.4165L27.7113 28.4673L27.6651 28.5178L27.6183 28.5678L27.571 28.6174L27.523 28.6667L27.4745 28.7155L27.4254 28.7638L27.3758 28.8118L27.3255 28.8593L27.2747 28.9063L27.2234 28.9529L27.1715 28.9991L27.1191 29.0448L27.0661 29.09L27.0126 29.1347L26.9585 29.179L26.9039 29.2228L26.8488 29.266L26.7932 29.3088L26.7371 29.3511L26.6804 29.3929L26.6233 29.4341L26.5656 29.4748L26.5075 29.5151L26.4488 29.5547L26.3897 29.5939L26.3301 29.6324L26.27 29.6705L26.2094 29.708L26.1484 29.7449L26.0869 29.7812L26.025 29.817L25.9626 29.8522L25.8997 29.8868L25.8365 29.9209L25.7728 29.9543L25.7087 29.9872L25.6441 30.0194L25.5792 30.0511L25.5138 30.0821L25.448 30.1125L25.3819 30.1423L25.3153 30.1714L25.2484 30.2L25.1811 30.2279L25.1134 30.2551L25.0453 30.2817L24.9769 30.3077L24.9081 30.333L24.839 30.3577L24.7696 30.3817L24.6998 30.405L24.6297 30.4277L24.5593 30.4496L24.4886 30.4709L24.4175 30.4916L24.3462 30.5115L24.2746 30.5308L24.2027 30.5493L24.1305 30.5672L24.058 30.5843L23.9853 30.6008L23.9123 30.6165L23.8391 30.6316L23.7656 30.6459L23.6919 30.6595L23.618 30.6724L23.5438 30.6846L23.4695 30.696L23.3949 30.7067L23.3202 30.7167L23.2452 30.726L23.1701 30.7345L23.0948 30.7422L23.0193 30.7493L22.9437 30.7555L22.8679 30.7611L22.7919 30.7658L22.7159 30.7699L22.6397 30.7732L22.5634 30.7757L22.4869 30.7774L22.4104 30.7784L22.3338 30.7787L22.2571 30.7782L22.1803 30.7769L22.1034 30.7748L22.0265 30.772L21.9495 30.7684L21.8724 30.764L21.7953 30.7589L21.7182 30.753L21.6411 30.7463L21.5639 30.7388L21.4868 30.7306L21.4096 30.7215L21.3325 30.7117L21.2553 30.7011L21.1782 30.6898L21.1011 30.6776L21.0241 30.6647L20.9471 30.651L20.8702 30.6365L20.7933 30.6213L20.7165 30.6052L20.6398 30.5884L20.5632 30.5707L20.4867 30.5523L20.4102 30.5332L20.3339 30.5132L20.2578 30.4924L20.1817 30.4709L20.1059 30.4486L20.0301 30.4255L19.9545 30.4016L19.8791 30.377L19.8038 30.3516L19.7288 30.3254L19.6539 30.2984L19.5792 30.2706L19.5048 30.2421L19.4305 30.2128L19.3565 30.1827L19.2827 30.1519L19.2092 30.1203L19.1359 30.0879L19.0628 30.0548L18.9901 30.0209L18.9175 29.9862L18.8453 29.9508L18.7734 29.9146L18.7018 29.8777L18.6305 29.84L18.5595 29.8016L18.4888 29.7624L18.4185 29.7225L18.3484 29.6818L18.2788 29.6404L18.2095 29.5983L18.1406 29.5554L18.072 29.5118L18.0038 29.4675L17.936 29.4224L17.8686 29.3766L17.8017 29.3301L17.7351 29.2829L17.6689 29.235L17.6032 29.1863L17.5379 29.137L17.4731 29.087L17.4087 29.0362L17.3448 28.9848L17.2813 28.9327L17.2183 28.8799L17.1558 28.8264L17.0938 28.7722L17.0323 28.7174L16.9713 28.6619L16.9108 28.6057L16.8508 28.5489L16.7914 28.4914L16.7324 28.4333L16.6741 28.3745L16.6163 28.3151L16.559 28.255L16.5023 28.1944L16.4462 28.133L16.3907 28.0711L16.3357 28.0086L16.2814 27.9454L16.2276 27.8817L16.1744 27.8173L16.1219 27.7523L16.07 27.6868L16.0187 27.6207L15.968 27.554L15.918 27.4867L15.8687 27.4189L15.82 27.3505L15.7719 27.2815L15.7245 27.212L15.6778 27.142L15.6318 27.0714L15.5865 27.0003L15.5418 26.9287L15.4979 26.8566L15.4546 26.7839L15.4121 26.7108L15.3703 26.6371L15.3292 26.563L15.2888 26.4884L15.2492 26.4133L15.2103 26.3377L15.1721 26.2617L15.1347 26.1853L15.0981 26.1083L15.0622 26.031L15.0271 25.9532L14.9928 25.875L14.9592 25.7963L14.9264 25.7173L14.8944 25.6378L14.8632 25.558L14.8328 25.4777L14.8033 25.3971L14.7745 25.3161L14.7465 25.2348L14.7193 25.1531L14.693 25.071L14.6675 24.9886L14.6428 24.9059L14.6189 24.8228L14.5959 24.7394L14.5738 24.6557L14.5524 24.5717L14.532 24.4874L14.5124 24.4029L14.4936 24.318L14.4757 24.2329L14.4587 24.1475L14.4425 24.0619L14.4272 23.976L14.4128 23.8899L14.3993 23.8036L14.3866 23.717L14.3748 23.6303L14.364 23.5433L14.354 23.4562L14.3449 23.3688L14.3367 23.2813L14.3294 23.1936L14.323 23.1058L14.3175 23.0178L14.3129 22.9297L14.3092 22.8415L14.3064 22.7531L14.3046 22.6646L14.3037 22.5761L14.3036 22.4874L14.3045 22.3986L14.3064 22.3098L14.3091 22.2209L14.3128 22.1319L14.3174 22.0429L14.3229 21.9539L14.3293 21.8648L14.3367 21.7757L14.345 21.6866L14.3542 21.5975L14.3644 21.5084L14.3755 21.4193L14.3875 21.3303L14.4005 21.2413L14.4144 21.1523L14.4293 21.0634L14.445 20.9745L14.4617 20.8857L14.4794 20.797L14.498 20.7084L14.5175 20.6199L14.5379 20.5315L14.5593 20.4433L14.5816 20.3551L14.6049 20.2671L14.6291 20.1793L14.6542 20.0916L14.6802 20.004L14.7072 19.9167L14.7351 19.8295L14.7639 19.7425L14.7937 19.6558L14.8244 19.5692L14.856 19.4829L14.8885 19.3968L14.922 19.311L14.9564 19.2254L14.9917 19.14L15.0279 19.055L15.065 18.9702L15.1031 18.8857L15.142 18.8015L15.1819 18.7176L15.2226 18.6341L15.2643 18.5508L15.3068 18.4679L15.3503 18.3854L15.3946 18.3032L15.4399 18.2214L15.486 18.1399L15.533 18.0588L15.5809 17.9782L15.6297 17.8979L15.6793 17.818L15.7299 17.7386L15.7813 17.6595L15.8335 17.5809L15.8866 17.5028L15.9406 17.4251L15.9954 17.3479L16.0511 17.2712L16.1076 17.1949L16.1649 17.1191L16.2231 17.0439L16.2821 16.9691L16.342 16.8949L16.4027 16.8211L16.4641 16.748L16.5264 16.6753L16.5895 16.6032L16.6534 16.5317L16.7181 16.4607L16.7836 16.3904L16.8499 16.3206L16.917 16.2514L16.9848 16.1828L17.0534 16.1148L17.1228 16.0474L17.1929 15.9807L17.2638 15.9146L17.3354 15.8491L17.4077 15.7843L17.4808 15.7201L17.5547 15.6567L17.6292 15.5938L17.7045 15.5317L17.7804 15.4703L17.8571 15.4095L17.9344 15.3495L18.0125 15.2902L18.0912 15.2316L18.1706 15.1737L18.2507 15.1166L18.3314 15.0602L18.4128 15.0045L18.4949 14.9496L18.5775 14.8955L18.6608 14.8422L18.7448 14.7896L18.8293 14.7378L18.9145 14.6868L19.0002 14.6366L19.0866 14.5872L19.1735 14.5386L19.261 14.4908L19.3491 14.4439L19.4377 14.3978L19.5269 14.3525L19.6166 14.3081L19.7069 14.2645L19.7977 14.2218L19.889 14.1799L19.9808 14.1389L20.0731 14.0988L20.166 14.0595L20.2593 14.0211L20.353 13.9837L20.4473 13.9471L20.542 13.9114L20.6371 13.8766L20.7327 13.8428L20.8288 13.8098L20.9252 13.7778L21.0221 13.7467L21.1193 13.7165L21.217 13.6873L21.315 13.659L21.4134 13.6317L21.5122 13.6053L21.6113 13.5798L21.7108 13.5553L21.8106 13.5318L21.9108 13.5093L22.0112 13.4877L22.112 13.4671L22.213 13.4475L22.2637 13.4381ZM23.5056 20.6984L22.353 20.9738L22.2853 15.2643L22.231 15.2765L22.1492 15.2958L22.0675 15.3159L21.9864 15.3367L21.9054 15.3583L21.8249 15.3807L21.7444 15.404L21.6647 15.4278L21.5848 15.4526L21.5059 15.4779L21.4268 15.5042L21.3482 15.5312L21.27 15.5589L21.1921 15.5873L21.1149 15.6164L21.0378 15.6464L20.9611 15.677L20.8849 15.7083L20.8088 15.7405L20.7337 15.7731L20.6586 15.8067L20.5842 15.8408L20.5099 15.8758L20.4363 15.9113L20.3629 15.9476L20.2903 15.9845L20.218 16.0221L20.1462 16.0604L20.0749 16.0993L20.004 16.1389L19.9336 16.1792L19.864 16.22L19.7943 16.2617L19.7255 16.3038L19.6573 16.3466L19.5895 16.39L19.5221 16.4341L19.4554 16.4788L19.3892 16.5241L19.3235 16.5699L19.2585 16.6163L19.1938 16.6634L19.1298 16.7111L19.0664 16.7593L19.0035 16.8081L18.9413 16.8573L18.8797 16.9072L18.8185 16.9577L18.7579 17.0088L18.6981 17.0602L18.6388 17.1123L18.5801 17.1648L18.522 17.2179L18.4645 17.2716L18.4077 17.3257L18.3515 17.3802L18.2958 17.4354L18.2409 17.4909L18.1866 17.547L18.133 17.6034L18.0798 17.6606L18.0275 17.7179L17.9758 17.7758L17.9247 17.8342L17.8744 17.8928L17.8246 17.9521L17.7757 18.0115L17.7272 18.0717L17.6796 18.132L17.6325 18.1929L17.5862 18.2542L17.5406 18.3157L17.4956 18.3776L17.4514 18.4399L17.4078 18.5027L17.3649 18.5657L17.3228 18.6292L17.2814 18.6928L17.2407 18.7568L17.2006 18.8213L17.1614 18.8859L17.1227 18.9511L17.0849 19.0162L17.0477 19.0819L17.0112 19.1478L16.9756 19.2139L16.9406 19.2803L16.9064 19.347L16.8728 19.4141L16.8401 19.4811L16.808 19.5487L16.7767 19.6163L16.7462 19.6842L16.7163 19.7523L16.6872 19.8207L16.6589 19.8891L16.6313 19.9579L16.6045 20.0268L16.5783 20.0959L16.553 20.165L16.5284 20.2345L16.5045 20.3041L16.4814 20.3738L16.459 20.4436L16.4374 20.5137L16.4165 20.5838L16.3965 20.6539L16.3771 20.7243L16.3584 20.7948L16.3406 20.8653L16.3235 20.9359L16.3071 21.0066L16.2915 21.0774L16.2767 21.1483L16.2626 21.2191L16.2492 21.29L16.2366 21.3611L16.2248 21.432L16.2137 21.503L16.2033 21.5742L16.1937 21.6451L16.1849 21.7163L16.1768 21.7872L16.1694 21.8583L16.1628 21.9295L16.1569 22.0004L16.1518 22.0714L16.1474 22.1424L16.1437 22.2132L16.1408 22.284L16.1386 22.3547L16.1372 22.4255L16.1364 22.4961L16.1365 22.5666L16.1372 22.637L16.1387 22.7074L16.1409 22.7776L16.1438 22.8477L16.1474 22.9177L16.1518 22.9875L16.1569 23.0572L16.1627 23.1268L16.1692 23.1962L16.1764 23.2656L16.1843 23.3345L16.1929 23.4036L16.2022 23.4722L16.2123 23.5409L16.223 23.6092L16.2344 23.6774L16.2465 23.7455L16.2593 23.8132L16.2728 23.8808L16.2869 23.948L16.3018 24.0152L16.3173 24.082L16.3335 24.1487L16.3503 24.2149L16.3679 24.2812L16.386 24.3469L16.4048 24.4126L16.4243 24.4778L16.4444 24.5429L16.4652 24.6076L16.4866 24.6719L16.5087 24.7362L16.5314 24.8L16.5547 24.8634L16.5786 24.9267L16.6032 24.9896L16.6284 25.0521L16.6542 25.1143L16.6805 25.1761L16.7076 25.2377L16.7352 25.2989L16.7634 25.3597L16.7922 25.4201L16.8215 25.4801L16.8516 25.54L16.882 25.5992L16.9131 25.6581L16.9448 25.7167L16.9771 25.7748L17.0099 25.8326L17.0432 25.89L17.0771 25.9468L17.1116 26.0034L17.1465 26.0595L17.182 26.1151L17.2181 26.1704L17.2546 26.2252L17.2917 26.2797L17.3292 26.3334L17.3673 26.387L17.4059 26.44L17.4449 26.4925L17.4846 26.5447L17.5246 26.5963L17.5651 26.6474L17.6061 26.6981L17.6476 26.7484L17.6894 26.798L17.7319 26.8473L17.7747 26.8961L17.8179 26.9443L17.8618 26.9921L17.9058 27.0392L17.9504 27.0861L17.9954 27.1323L18.0407 27.178L18.0866 27.2232L18.1328 27.2679L18.1794 27.3121L18.2264 27.3557L18.2738 27.3988L18.3216 27.4414L18.3697 27.4834L18.4182 27.5249L18.467 27.5659L18.5162 27.6063L18.5658 27.6462L18.6158 27.6855L18.6659 27.7242L18.7165 27.7624L18.7674 27.8001L18.8186 27.8372L18.8701 27.8737L18.9219 27.9097L18.974 27.9451L19.0264 27.9799L19.079 28.0141L19.1319 28.0478L19.1853 28.081L19.2387 28.1134L19.2924 28.1454L19.3465 28.1768L19.4006 28.2075L19.455 28.2377L19.5099 28.2674L19.5648 28.2964L19.6199 28.3248L19.6752 28.3526L19.7309 28.3799L19.7865 28.4065L19.8426 28.4326L19.8987 28.4581L19.9549 28.4829L20.0115 28.5072L20.0682 28.5309L20.1249 28.554L20.1819 28.5765L20.239 28.5983L20.2964 28.6196L20.3536 28.6403L20.4113 28.6604L20.4688 28.6798L20.5265 28.6987L20.5844 28.717L20.6424 28.7347L20.7004 28.7517L20.7585 28.7682L20.8168 28.784L20.8751 28.7993L20.9334 28.8139L20.9918 28.828L21.0502 28.8414L21.1087 28.8542L21.1673 28.8665L21.2259 28.8781L21.2845 28.8892L21.3431 28.8996L21.4018 28.9095L21.4605 28.9187L21.5192 28.9274L21.5777 28.9354L21.6364 28.9428L21.695 28.9497L21.7537 28.956L21.8123 28.9616L21.8709 28.9667L21.9294 28.9712L21.9878 28.9751L22.0463 28.9784L22.1046 28.9811L22.1628 28.9833L22.2212 28.9848L22.2792 28.9858L22.3372 28.9862L22.3952 28.986L22.453 28.9853L22.5109 28.9839L22.5686 28.982L22.626 28.9796L22.6834 28.9765L22.7409 28.9729L22.7979 28.9687L22.855 28.964L22.9118 28.9587L22.9686 28.9529L23.0252 28.9464L23.0815 28.9395L23.1379 28.932L23.1939 28.9239L23.2497 28.9153L23.3056 28.9062L23.3611 28.8965L23.4164 28.8863L23.4716 28.8755L23.5266 28.8642L23.5812 28.8524L23.6356 28.8401L23.69 28.8272L23.7441 28.8138L23.7979 28.8L23.8515 28.7856L23.9048 28.7707L23.9581 28.7552L24.0109 28.7393L24.0633 28.7229L24.1159 28.7059L24.1679 28.6885L24.2197 28.6707L24.2712 28.6523L24.3224 28.6334L24.3735 28.614L24.4242 28.5942L24.4745 28.5739L24.5246 28.5532L24.5744 28.5319L24.624 28.5102L24.673 28.4881L24.722 28.4655L24.7705 28.4425L24.8186 28.419L24.8666 28.3951L24.914 28.3708L24.9613 28.346L25.0082 28.3207L25.0547 28.2951L25.1008 28.2691L25.1467 28.2426L25.1922 28.2157L25.2372 28.1884L25.2819 28.1607L25.3263 28.1326L25.3703 28.1042L25.414 28.0753L25.4572 28.0461L25.5001 28.0164L25.5426 27.9864L25.5846 27.9561L25.6263 27.9253L25.6676 27.8942L25.7085 27.8627L25.749 27.8309L25.7892 27.7987L25.8288 27.7663L25.8681 27.7335L25.9069 27.7003L25.9453 27.6668L25.9834 27.633L26.021 27.5988L26.0582 27.5644L26.0948 27.5297L26.1312 27.4946L26.1671 27.4592L26.2026 27.4236L26.2376 27.3877L26.2721 27.3514L26.3062 27.315L26.34 27.2781L26.3731 27.2412L26.406 27.2038L26.4383 27.1662L26.4701 27.1285L26.5017 27.0903L26.5325 27.0521L26.5631 27.0135L26.5932 26.9748L26.6227 26.9358L26.6519 26.8965L26.6805 26.8572L26.7087 26.8174L26.7365 26.7775L26.7637 26.7376L26.7905 26.6972L26.8169 26.6568L26.8426 26.6162L26.868 26.5754L26.8929 26.5344L26.9173 26.4932L26.9413 26.4519L26.9647 26.4104L26.9877 26.3688L27.0102 26.3269L27.0322 26.2851L27.0537 26.243L27.0748 26.2008L27.0954 26.1585L27.1155 26.1159L27.1351 26.0734L27.1542 26.0307L27.1728 25.988L27.191 25.945L27.2086 25.9021L27.2259 25.8588L27.2425 25.8159L27.2588 25.7723L27.2744 25.7294L27.2897 25.6858L27.3045 25.6422L27.3187 25.5988L27.3325 25.5552L27.3458 25.5117L27.3587 25.4677L27.3709 25.4243L27.3829 25.3802L27.3942 25.3368L27.4051 25.2928L27.4155 25.2488L27.4254 25.2051L27.4348 25.1615L27.4438 25.1173L27.4523 25.0736L27.4603 25.0295L27.4678 24.9859L27.4749 24.9421L27.4815 24.8982L27.4876 24.8543L27.4932 24.8105L27.4984 24.7669L27.5031 24.7234L27.5073 24.6795L27.5111 24.636L27.5144 24.5924L27.5172 24.5489L27.5196 24.5055L27.5215 24.4622L27.5229 24.4191L27.5239 24.3757L27.5245 24.3324L27.5246 24.2895L27.5242 24.2466L27.5234 24.2038L27.5221 24.1611L27.5204 24.1182L27.5182 24.0761L27.5156 24.0331L27.5126 23.9912L27.5091 23.9491L27.5052 23.9067L27.5008 23.8648L27.4961 23.8233L27.4908 23.7812L27.4852 23.74L27.4791 23.6985L27.4727 23.6576L27.4657 23.6163L27.4584 23.5753L27.4507 23.5347L27.4426 23.4942L27.434 23.4536L27.425 23.4135L27.4157 23.3734L27.4059 23.3336L27.3958 23.2941L27.3851 23.2543L27.3743 23.2153L27.3629 23.1759L27.3512 23.1372L27.3391 23.0985L27.3266 23.0601L27.3137 23.0218L27.3004 22.9836L27.2869 22.946L27.2729 22.9085L27.2585 22.8709L27.2438 22.8339L27.2287 22.7967L27.2134 22.7604L27.1975 22.7237L27.1815 22.6876L27.165 22.6518L27.1482 22.616L27.1311 22.5806L27.1136 22.5454L27.0958 22.5104L27.0777 22.4758L27.0592 22.4414L27.0405 22.4073L27.0214 22.3734L27.0019 22.3398L26.9823 22.3065L26.9623 22.2735L26.9419 22.2406L26.9213 22.2083L26.9004 22.1761L26.8792 22.1442L26.8577 22.1125L26.836 22.0813L26.8139 22.0502L26.7916 22.0195L26.769 21.9891L26.7461 21.959L26.7231 21.9292L26.6996 21.8996L26.676 21.8705L26.6521 21.8416L26.628 21.813L26.6036 21.7847L26.5791 21.7568L26.5542 21.7292L26.5291 21.7019L26.5038 21.6748L26.4783 21.6482L26.4525 21.6219L26.4265 21.5958L26.4004 21.5702L26.374 21.5449L26.3475 21.5199L26.3205 21.4951L26.2937 21.4708L26.2665 21.4467L26.2392 21.4231L26.2116 21.3997L26.1839 21.3768L26.156 21.3541L26.128 21.3318L26.0998 21.3098L26.0714 21.2881L26.0429 21.2669L26.0142 21.2459L25.9853 21.2253L25.9564 21.2051L25.9273 21.1851L25.8981 21.1656L25.8687 21.1464L25.8391 21.1275L25.8096 21.109L25.7797 21.0908L25.7499 21.073L25.72 21.0556L25.6899 21.0385L25.6596 21.0217L25.6294 21.0053L25.5991 20.9892L25.5686 20.9735L25.5382 20.9582L25.5074 20.9431L25.4768 20.9285L25.446 20.9143L25.4152 20.9003L25.3843 20.8867L25.3532 20.8734L25.3224 20.8606L25.2912 20.8481L25.26 20.8359L25.2289 20.8241L25.1977 20.8126L25.1665 20.8015L25.1352 20.7907L25.1039 20.7802L25.0727 20.7702L25.0413 20.7604L25.0099 20.751L24.9787 20.742L24.9471 20.7333L24.9159 20.725L24.8845 20.717L24.8531 20.7093L24.8217 20.702L24.7904 20.695L24.759 20.6884L24.7277 20.6821L24.6965 20.6761L24.6653 20.6705L24.6339 20.6652L24.6029 20.6603L24.5715 20.6557L24.5406 20.6514L24.5094 20.6474L24.4784 20.6438L24.4476 20.6405L24.4166 20.6376L24.3858 20.6349L24.355 20.6326L24.3243 20.6306L24.2936 20.6289L24.263 20.6276L24.2327 20.6266L24.2022 20.6258L24.1719 20.6254L24.1416 20.6253L24.1115 20.6256L24.0814 20.6261L24.0515 20.6269L24.0216 20.6281L23.992 20.6295L23.9622 20.6313L23.9328 20.6333L23.9034 20.6356L23.8741 20.6383L23.845 20.6412L23.8158 20.6444L23.787 20.6479L23.7582 20.6517L23.7296 20.6558L23.701 20.6602L23.6727 20.6648L23.6444 20.6697L23.6165 20.6749L23.5884 20.6804L23.5607 20.6861L23.533 20.6921L23.5056 20.6984Z" fill="black"/>
</g>
</svg>
