<svg width="133" height="36" viewBox="0 0 133 36" fill="none" xmlns="http://www.w3.org/2000/svg">
<g opacity="0.6">
<path d="M39.3281 11.7621H42.5381V24.7621H39.3281V11.7621ZM43.8181 19.8721C43.8181 16.6521 45.8181 14.7221 48.8181 14.7221C51.8181 14.7221 53.8181 16.6521 53.8181 19.8721C53.8181 23.0921 51.8881 25.0421 48.8181 25.0421C45.7481 25.0421 43.8181 23.1621 43.8181 19.8721ZM50.6381 19.8721C50.6381 18.1021 49.9481 17.0621 48.8481 17.0621C47.7481 17.0621 47.0681 18.0621 47.0681 19.8721C47.0681 21.6821 47.7481 22.6721 48.8481 22.6721C49.9481 22.6721 50.6581 21.6821 50.6581 19.8821L50.6381 19.8721ZM55.0981 25.4321H58.1981C58.3392 25.7658 58.5857 26.0443 58.8999 26.2248C59.2141 26.4054 59.5787 26.4782 59.9381 26.4321C61.1681 26.4321 61.8081 25.7721 61.8081 24.7921V22.9921H61.8181C61.5532 23.5526 61.1248 24.0197 60.5894 24.3321C60.0539 24.6445 59.4364 24.7874 58.8181 24.7421C56.4681 24.7421 54.9081 22.9521 54.9081 19.8721C54.9081 16.7921 56.3981 14.8721 58.9081 14.8721C59.5422 14.8382 60.1713 15.0017 60.7085 15.3402C61.2458 15.6787 61.6649 16.1755 61.9081 16.7621H61.8181V14.9521H64.9981V24.6921C64.9981 27.0421 62.9181 28.5121 59.8581 28.5121C57.0781 28.5021 55.2981 27.2321 55.1181 25.4421L55.0981 25.4321ZM61.8181 19.8721C61.8181 18.3021 61.0981 17.3121 59.9581 17.3121C58.8181 17.3121 58.1181 18.3121 58.1181 19.8721C58.1181 21.4321 58.8081 22.3521 59.9581 22.3521C61.1081 22.3521 61.8181 21.5021 61.8181 19.8721ZM66.2681 19.8721C66.2681 16.6521 68.2681 14.7221 71.2681 14.7221C74.2681 14.7221 76.2681 16.6521 76.2681 19.8721C76.2681 23.0921 74.3281 25.0421 71.2681 25.0421C68.2081 25.0421 66.2881 23.1621 66.2881 19.8721H66.2681ZM73.0881 19.8721C73.0881 18.1021 72.3881 17.0621 71.2981 17.0621C70.2081 17.0621 69.5181 18.0621 69.5181 19.8721C69.5181 21.6821 70.1981 22.6721 71.2981 22.6721C72.3981 22.6721 73.1081 21.6821 73.1081 19.8821L73.0881 19.8721ZM77.5681 12.5821C77.5541 12.2551 77.6383 11.9314 77.8098 11.6527C77.9813 11.3739 78.2323 11.1529 78.5305 11.018C78.8287 10.883 79.1604 10.8404 79.483 10.8956C79.8056 10.9507 80.1043 11.1011 80.3407 11.3274C80.5771 11.5538 80.7404 11.8456 80.8096 12.1655C80.8787 12.4854 80.8506 12.8187 80.7288 13.1224C80.607 13.4262 80.3971 13.6866 80.1261 13.8701C79.8551 14.0536 79.5354 14.1518 79.2081 14.1521C78.999 14.1574 78.7908 14.1211 78.5958 14.0454C78.4008 13.9696 78.2227 13.8558 78.072 13.7107C77.9213 13.5656 77.8009 13.392 77.7179 13.1999C77.6348 13.0079 77.5907 12.8013 77.5881 12.5921L77.5681 12.5821ZM77.5681 14.9421H80.8181V24.8021H77.6181L77.5681 14.9421ZM92.5081 19.8721C92.5081 23.0821 91.0681 24.9421 88.6181 24.9421C87.9909 24.9808 87.3669 24.826 86.8304 24.4988C86.2939 24.1715 85.8708 23.6875 85.6181 23.1121H85.5581V27.9721H82.3481V14.9721H85.5381V16.7321H85.5981C85.8421 16.1454 86.2611 15.6481 86.7979 15.3081C87.3348 14.9681 87.9634 14.8019 88.5981 14.8321C91.1181 14.8121 92.5681 16.6621 92.5681 19.8821L92.5081 19.8721ZM89.2381 19.8721C89.2381 18.3121 88.5081 17.3021 87.3781 17.3021C86.2481 17.3021 85.5381 18.3021 85.5281 19.8721C85.5181 21.4421 86.2481 22.4321 87.3781 22.4321C88.5081 22.4321 89.2981 21.5021 89.2981 19.8821L89.2381 19.8721ZM97.9881 14.7121C100.678 14.7121 102.348 15.9821 102.368 18.0221H99.4381C99.4381 17.3121 98.8481 16.8721 97.9681 16.8721C97.0881 16.8721 96.6681 17.2121 96.6681 17.7221C96.6681 18.2321 97.0381 18.3921 97.7781 18.5421L99.8381 18.9621C101.838 19.3821 102.638 20.1821 102.638 21.6721C102.638 23.6721 100.788 25.0321 98.0381 25.0321C95.2881 25.0321 93.4981 23.7121 93.3681 21.7021H96.4781C96.5681 22.4321 97.1481 22.8621 98.0881 22.8621C99.0281 22.8621 99.4681 22.5621 99.4681 22.0321C99.4681 21.5021 99.1681 21.4121 98.3981 21.2521L96.5381 20.8621C94.6081 20.4521 93.5981 19.4421 93.5981 17.9321C93.6581 15.9721 95.3381 14.7221 98.0481 14.7221L97.9881 14.7121ZM113.388 24.7921H110.278V22.9421H110.218C110.044 23.5592 109.665 24.0985 109.143 24.4711C108.621 24.8438 107.988 25.0275 107.348 24.9921C106.865 25.0078 106.383 24.9212 105.936 24.7378C105.489 24.5545 105.085 24.2786 104.752 23.9283C104.418 23.5779 104.163 23.161 104.002 22.705C103.841 22.249 103.778 21.764 103.818 21.2821V14.9521H107.028V20.5921C107.028 21.7521 107.638 22.3821 108.638 22.3821C108.873 22.3803 109.104 22.3282 109.317 22.2294C109.53 22.1305 109.719 21.9871 109.871 21.8089C110.024 21.6307 110.137 21.4218 110.202 21.1964C110.266 20.9709 110.282 20.7342 110.248 20.5021V14.9521H113.448L113.388 24.7921ZM114.938 14.9421H118.058V16.8421H118.128C118.3 16.2334 118.67 15.6991 119.178 15.3227C119.687 14.9464 120.306 14.7492 120.938 14.7621C121.573 14.7069 122.206 14.8905 122.712 15.277C123.219 15.6635 123.563 16.2252 123.678 16.8521H123.818C124.018 16.2218 124.42 15.6752 124.963 15.2973C125.505 14.9193 126.158 14.7312 126.818 14.7621C127.257 14.7454 127.695 14.8216 128.102 14.9857C128.51 15.1497 128.878 15.398 129.183 15.7143C129.488 16.0305 129.722 16.4076 129.871 16.8208C130.021 17.234 130.081 17.674 130.048 18.1121V24.8021H126.818V18.9321C126.818 17.9321 126.348 17.3721 125.438 17.3721C125.236 17.3688 125.036 17.4092 124.851 17.4904C124.666 17.5717 124.502 17.692 124.368 17.843C124.234 17.9941 124.134 18.1722 124.075 18.3654C124.017 18.5586 124.001 18.7621 124.028 18.9621V24.8021H120.968V18.9021C120.968 17.9021 120.478 17.3721 119.598 17.3721C119.394 17.3705 119.192 17.4125 119.006 17.4953C118.819 17.5782 118.653 17.6999 118.517 17.8524C118.382 18.0049 118.281 18.1846 118.221 18.3794C118.16 18.5743 118.142 18.7798 118.168 18.9821V24.8021H114.958L114.938 14.9421Z" fill="black"/>
<path d="M32.9798 12.6119C32.9799 10.6216 32.3789 8.67768 31.2555 7.03474C30.1321 5.3918 28.5386 4.12645 26.6839 3.40445C24.8292 2.68244 22.7996 2.53744 20.8611 2.98843C18.9225 3.43942 17.1654 4.46538 15.8198 5.93192H3.33984V32.2719H29.6898V19.9619C30.724 19.0369 31.5516 17.9042 32.1185 16.6377C32.6854 15.3712 32.9789 13.9995 32.9798 12.6119ZM27.9098 12.6119C27.9118 13.5656 27.6308 14.4985 27.1024 15.2925C26.5739 16.0864 25.8219 16.7058 24.9413 17.0721C24.0607 17.4385 23.0913 17.5354 22.1556 17.3505C21.22 17.1657 20.3602 16.7074 19.6851 16.0337C19.01 15.36 18.55 14.5012 18.3632 13.5659C18.1764 12.6307 18.2713 11.661 18.6358 10.7797C19.0003 9.89838 19.6181 9.14501 20.4109 8.61494C21.2038 8.08487 22.1361 7.80193 23.0898 7.80192C24.3664 7.80192 25.5909 8.30837 26.4945 9.21013C27.3982 10.1119 27.9072 11.3353 27.9098 12.6119ZM24.6198 27.2019H8.40984V11.0019H13.3498C13.2544 11.5334 13.2042 12.072 13.1998 12.6119C13.2025 15.2341 14.2453 17.7481 16.0995 19.6023C17.9536 21.4564 20.4676 22.4993 23.0898 22.5019C23.6025 22.4992 24.1141 22.4557 24.6198 22.3719V27.2019Z" fill="black"/>
</g>
</svg>
