<svg width="121" height="121" viewBox="0 0 121 121" fill="none" xmlns="http://www.w3.org/2000/svg">
<path d="M71.2366 1.4047L67.9166 8.8797L66.7766 8.7757L65.9466 4.3117L64.2866 8.6717L63.1466 8.5677L61.2776 0.470703L62.8336 0.574703L64.0786 6.1807L65.7386 1.9237L66.8786 2.0277L67.7086 6.4917L69.9916 1.1977L71.2366 1.4047ZM76.3196 9.5027L76.0076 10.7477L71.2376 9.5027L73.2076 1.9237L77.8756 3.0657L77.5636 4.3117L74.2446 3.4817L73.7266 5.5577L76.6306 6.2837L76.3196 7.4257L73.4146 6.6997L72.8966 8.5677L76.3196 9.5027ZM83.3716 11.1637C82.9576 12.2017 81.8166 12.9277 80.3646 12.3057L77.3566 11.0597L80.2606 3.7927L83.0606 4.9347C84.3056 5.4537 84.8246 6.4917 84.4096 7.6337C84.0986 8.2567 83.5796 8.7757 82.7496 8.7757C83.5796 9.2947 83.6836 10.3327 83.3726 11.1637H83.3716ZM82.1276 10.5407C82.3356 10.0207 82.2316 9.3987 81.4016 9.0867L79.8456 8.4637L79.0156 10.5407L80.5716 11.1637C81.2976 11.3707 81.9206 11.0597 82.1276 10.5407ZM80.9876 5.5577L80.2606 7.3227L81.7126 7.9447C82.2316 8.1527 82.6466 7.9447 82.8536 7.4257C83.0616 6.9067 82.9576 6.3877 82.3356 6.1807L80.9876 5.5577ZM84.4096 11.5787L85.6536 12.2017C85.3436 12.7207 85.6536 13.4467 86.3796 13.8617C87.1056 14.2777 87.7286 14.0697 88.0396 13.5517C88.3506 13.0317 88.0396 12.6167 87.5206 12.0977L86.7946 11.3707C85.5496 10.2287 85.7576 9.1907 86.0686 8.5677C86.6916 7.3227 88.2466 7.1147 89.4916 7.8417C90.7366 8.5677 91.2546 9.8137 90.6316 11.1637L89.3876 10.5407C89.6986 10.0207 89.4916 9.2947 88.8696 8.9837C88.2466 8.6717 87.6246 8.7757 87.3136 9.2947C87.2096 9.5027 87.0026 9.9177 87.7286 10.5407L88.4546 11.1637C89.3876 12.0977 89.9066 13.0317 89.2846 14.1737C88.5576 15.4197 87.1056 15.6277 85.7576 14.9007C84.2016 14.1737 83.7876 12.7207 84.4096 11.5787ZM93.5366 10.5407L94.6776 11.2667L90.3216 17.7037L89.1806 16.9767L93.5366 10.5407ZM99.9676 16.8727L98.2046 15.4197L94.0556 20.5067L93.0186 19.6767L97.1676 14.5887L95.4036 13.1357L96.2336 12.2017L100.798 15.9387L99.9676 16.8727ZM100.798 25.3857L99.8636 26.2157L96.4406 22.6857L102.042 17.2887L105.361 20.7137L104.428 21.5437L102.146 19.1567L100.59 20.6107L102.665 22.7907L101.731 23.6207L99.6566 21.4407L98.2036 22.7907L100.798 25.3857ZM102.354 25.4897L103.184 26.5277C102.665 26.9427 102.665 27.6697 103.184 28.3967C103.702 29.0197 104.325 29.1227 104.843 28.8117C105.258 28.4997 105.258 27.8777 104.947 27.2547L104.532 26.3197C103.91 24.7627 104.532 23.9327 105.051 23.5167C106.192 22.6867 107.54 23.1017 108.474 24.2437C109.303 25.3857 109.303 26.8387 108.163 27.6697L107.333 26.6317C107.851 26.2157 107.955 25.5937 107.436 24.9707C107.022 24.4507 106.399 24.2437 105.881 24.6587C105.673 24.7627 105.362 25.0747 105.777 26.0087L106.192 26.9427C106.71 28.0847 106.71 29.2267 105.673 30.0577C104.532 30.8877 103.08 30.5767 102.147 29.3307C101.109 27.8777 101.213 26.3207 102.354 25.4897ZM110.756 38.1547C111.689 37.7397 112.623 38.2587 112.934 39.0887C113.245 39.9187 112.934 40.9577 112.104 41.3727C111.171 41.7877 110.237 41.2687 109.822 40.4387C109.407 39.6087 109.822 38.5697 110.756 38.1547ZM114.489 55.2837L114.074 52.2737L112.104 51.8577L111.896 50.4047L119.987 52.3767L120.194 53.8297L112.83 57.6717L112.622 56.2177L114.489 55.2837ZM115.63 54.7637L118.638 53.3107L115.423 52.5847L115.63 54.7637ZM118.016 64.1077C116.771 64.1077 115.526 63.3807 115.526 61.6157V59.8517H112.726V58.5017L120.505 58.6057L120.401 61.7197C120.505 63.3807 119.26 64.1077 118.016 64.1077ZM118.016 62.6547C118.638 62.6547 119.26 62.3427 119.26 61.6157V59.8517H116.771V61.5117C116.771 62.3427 117.393 62.6547 118.016 62.6547ZM117.186 71.3747C115.941 71.1667 114.8 70.3367 115.008 68.5717L115.215 66.8067L112.414 66.3917L112.622 65.0417L120.297 66.0797L119.883 69.1947C119.779 70.9597 118.43 71.5827 117.186 71.3747ZM117.393 70.0247C118.016 70.1287 118.638 69.9217 118.742 69.0907L118.949 67.3257L116.46 67.0147L116.252 68.6747C116.149 69.5057 116.771 69.9217 117.393 70.0247ZM119.26 73.6587L118.949 75.0077L112.622 73.4507L111.896 76.3577L110.651 76.0457L111.688 71.7897L119.26 73.6577V73.6587ZM117.497 79.5757L117.082 80.9257L109.718 78.4337L110.133 77.0837L117.497 79.5757ZM112.934 81.3407C114.904 82.2747 115.838 84.6627 114.904 86.6347C114.386 87.7767 113.349 88.5037 112.208 88.8147L111.896 87.5687C112.622 87.3617 113.349 86.9457 113.66 86.1157C114.282 84.7657 113.66 83.2087 112.311 82.5857C110.963 81.9637 109.407 82.4827 108.785 83.8317C108.474 84.5587 108.474 85.3887 108.888 86.1157L107.747 86.7387C107.229 85.7007 107.125 84.4547 107.644 83.3127C108.577 81.2367 110.859 80.4057 112.934 81.3407ZM105.154 91.5137L106.814 88.9187L105.569 87.2577L106.399 86.0117L111.378 92.7597L110.548 94.0057L102.458 92.2407L103.287 90.9947L105.154 91.5137ZM106.399 91.8257L109.614 92.6557L107.54 90.0607L106.399 91.8257ZM104.117 100.338L105.569 98.5737L100.486 94.4207L101.316 93.3827L106.398 97.5347L107.851 95.7707L108.784 96.6007L105.05 101.065L104.117 100.338ZM103.806 102.415L102.872 103.349L97.3746 97.8467L98.3086 96.9127L103.806 102.415ZM98.8266 101.895C100.176 103.66 99.9676 106.048 98.2046 107.501C96.4416 108.851 94.0546 108.643 92.6036 106.878C91.2546 105.114 91.4626 102.622 93.1216 101.273C94.9886 99.9227 97.4786 100.234 98.8266 101.895ZM93.7446 106.048C94.6776 107.19 96.3376 107.501 97.4786 106.567C98.6186 105.633 98.7226 103.972 97.7886 102.83C96.8556 101.688 95.3006 101.376 94.0556 102.311C92.9146 103.245 92.8106 104.802 93.7446 106.048ZM88.1436 114.145L84.2026 107.398L85.2396 106.775L90.5296 109.785L87.9366 105.217L89.1806 104.491L93.1226 111.239L91.9816 111.861L86.6916 108.851L89.2846 113.315L88.1436 114.145ZM83.9946 109.993L82.7496 110.512C82.5426 109.993 81.8166 109.681 80.9866 109.993C80.2606 110.304 79.9496 110.927 80.1566 111.446C80.3646 111.965 80.8826 112.069 81.6096 111.965L82.6466 111.861C84.3066 111.654 85.0316 112.484 85.2396 113.107C85.7576 114.353 85.0316 115.703 83.6836 116.222C82.3356 116.741 80.9866 116.429 80.4686 115.08L81.7126 114.561C81.9206 115.183 82.5426 115.391 83.2686 115.08C83.8916 114.872 84.2026 114.249 83.9946 113.626C83.8916 113.419 83.6836 113.003 82.7496 113.107L81.8166 113.211C80.5716 113.315 79.4306 113.107 79.0166 111.965C78.4966 110.616 79.2236 109.37 80.5716 108.747C82.0246 108.228 83.4766 108.851 83.9946 109.993ZM69.5776 114.976C69.6806 115.91 68.9546 116.741 68.0216 116.844C67.0876 116.948 66.1546 116.325 66.0516 115.391C65.9466 114.457 66.6726 113.626 67.6066 113.522C68.5396 113.315 69.4746 113.938 69.5776 114.976ZM48.7296 111.654L48.5216 116.948L51.3216 113.003L52.4636 113.211L53.8116 117.883L55.2636 112.796L56.6126 113.003L54.4346 120.582L53.2926 120.374L51.6336 114.664L48.3136 119.544L47.1736 119.336L47.4846 111.446L48.7296 111.654ZM45.4096 114.872C44.6836 116.948 42.4016 118.09 40.3276 117.26C38.2526 116.533 37.2156 114.249 37.9416 112.173C38.6676 110.097 40.9496 108.955 43.0246 109.785C45.0986 110.512 46.1356 112.796 45.4096 114.872ZM39.1866 112.692C38.6676 114.145 39.2906 115.599 40.7426 116.118C42.0906 116.637 43.5426 115.806 44.0616 114.457C44.5806 113.107 43.9576 111.55 42.6096 111.031C41.1576 110.512 39.7056 111.239 39.1866 112.692ZM32.1336 107.19C32.6516 106.256 33.8966 105.633 35.2446 106.359L38.1496 107.917L34.4156 114.768L31.7186 113.315C30.4736 112.692 30.1626 111.55 30.6816 110.512C30.9916 109.993 31.5116 109.474 32.3416 109.578C31.7186 108.955 31.7186 107.917 32.1336 107.19ZM33.8966 113.107L34.8296 111.446L33.3776 110.72C32.8596 110.408 32.4446 110.616 32.1336 111.135C31.9256 111.654 31.9256 112.173 32.4436 112.381L33.8966 113.107ZM33.2746 108.02C32.9626 108.539 33.0666 109.162 33.7926 109.578L35.2446 110.408L36.2826 108.436L34.8296 107.605C34.2076 107.19 33.5856 107.501 33.2746 108.02ZM27.7766 110.927L26.6366 110.201L30.9926 103.764L32.1326 104.491L27.7776 110.927H27.7766ZM24.5616 108.747L23.5236 107.917L27.5696 102.83L25.1836 100.961L25.9096 100.027L29.3326 102.83L24.5616 108.747ZM20.9316 96.6007L21.7616 95.7707L25.1836 99.1957L19.6866 104.698L16.2636 101.273L17.0936 100.443L19.4786 102.83L20.9306 101.376L18.8566 99.2997L19.7896 98.3657L21.8646 100.442L23.4206 99.0917L20.9306 96.6017L20.9316 96.6007ZM13.9816 89.7487C13.1516 90.2687 12.1146 89.8527 11.6996 89.0227C11.1816 88.1927 11.3896 87.1537 12.2186 86.6347C13.0486 86.1157 14.0856 86.5307 14.6046 87.2577C15.0196 88.1917 14.8116 89.2297 13.9816 89.7487ZM3.40156 78.7457L2.98756 77.3957L10.4556 75.1117L10.8706 76.4617L3.40156 78.7457ZM2.36456 75.0077L2.05456 73.6577L8.48456 72.3087L7.86256 69.2987L9.10656 69.0907L9.93656 73.3467L2.36456 75.0077ZM1.12056 68.8827L1.01656 67.5327L7.55056 66.8067L7.24056 63.7967L8.48456 63.6927L8.89956 68.0527L1.12056 68.8827ZM5.68356 62.9657L0.601562 62.8607V61.5107L5.58056 61.6147C6.72056 61.6147 7.24056 60.8887 7.24056 60.0577C7.24056 59.2277 6.82456 58.5007 5.68356 58.5007L0.705563 58.3967V57.0467H5.78756C7.55056 57.0467 8.58756 58.5007 8.58756 60.0577C8.48456 61.6147 7.44756 62.9657 5.68356 62.9657ZM6.30656 55.4907L6.51356 54.1407C7.13556 54.2457 7.75856 53.7267 7.86156 52.8957C7.96556 52.0657 7.55156 51.5457 7.03156 51.4427C6.51356 51.3387 6.09856 51.7537 5.78756 52.3767L5.37256 53.3107C4.75056 54.9717 3.71256 55.0757 2.98656 54.9717C1.63856 54.7647 0.912562 53.4147 1.11956 52.0657C1.32756 50.6117 2.36456 49.6777 3.81656 49.8857L3.60956 51.2357C2.98656 51.1307 2.46856 51.5457 2.36456 52.2727C2.26056 52.8957 2.57256 53.5187 3.19456 53.6227C3.40156 53.6227 3.92056 53.6227 4.23156 52.7927L4.64656 51.8577C5.16556 50.7157 5.89156 49.8847 7.13656 49.9887C8.58756 50.1967 9.31356 51.5457 9.10656 52.9987C8.89956 54.7647 7.65456 55.6987 6.30656 55.4907ZM4.64656 42.7227L4.02456 44.9027L10.3516 46.5627L10.0406 47.9127L3.71356 46.2527L3.09156 48.4327L1.95056 48.1207L3.40156 42.5147L4.64656 42.7227ZM9.41756 40.4387L9.10756 41.0607L11.6996 42.0997L11.1806 43.3447L3.92056 40.4387L5.06056 37.6357C5.68356 35.9747 7.13556 35.7667 8.27656 36.2857C9.31456 36.7007 10.0406 37.6357 9.83256 38.9857L13.2556 38.1547L12.6336 39.7117L9.41756 40.4387ZM8.06956 40.6457L8.58756 39.4007C9.00256 38.4657 8.58756 37.9467 7.96556 37.6357C7.34356 37.3237 6.61756 37.5317 6.30556 38.2587L5.68356 39.7117L8.06956 40.6457ZM14.3966 32.5487L12.8406 35.2477L14.1896 36.8047L13.4636 38.0507L8.17356 31.6147L8.89956 30.3687L17.0936 31.7187L16.3676 32.9637L14.3966 32.5487ZM13.1516 32.3407L9.83256 31.7177L12.0106 34.2097L13.1516 32.3407ZM14.9156 23.6207L13.5666 25.3857L18.8566 29.2267L18.0266 30.3687L12.7366 26.5277L11.3886 28.2927L10.3516 27.5657L13.7746 22.8947L14.9146 23.6207H14.9156ZM15.1226 21.6487L16.0566 20.6107L21.8646 25.8007L20.9316 26.8387L15.1226 21.6487ZM19.9976 21.7517C18.5456 20.0917 18.5456 17.5997 20.2056 16.1467C21.8656 14.6927 24.3546 14.7967 25.8056 16.4577C27.2586 18.1187 27.1556 20.6107 25.5986 22.0637C23.9386 23.6207 21.4486 23.4137 19.9976 21.7517ZM24.8726 17.3917C23.8356 16.2497 22.2796 16.1467 21.1386 17.0807C19.9986 18.1187 20.1016 19.6757 21.0346 20.8177C21.9686 21.9597 23.6276 22.0637 24.7696 21.1287C25.8066 20.0907 25.8066 18.5337 24.8726 17.3917ZM29.9556 8.9837L34.2076 15.5237L33.1706 16.2497L27.6736 13.5507L30.5776 17.9107L29.4366 18.6377L25.1836 12.0977L26.2216 11.3707L31.6146 14.0707L28.7106 9.7107L29.9556 8.9837ZM34.4156 12.8247L35.6606 12.2017C35.9706 12.7207 36.6976 13.0317 37.4236 12.6167C38.1496 12.3047 38.3566 11.6827 38.1496 11.0597C37.9426 10.5397 37.3196 10.4367 36.6976 10.6447L35.6606 10.8517C34.0006 11.1637 33.2746 10.4367 32.9636 9.8137C32.3416 8.5677 33.0676 7.2187 34.3116 6.5957C35.5566 5.9727 37.0086 6.2837 37.6316 7.6337L36.3866 8.2567C36.0756 7.6337 35.4526 7.4267 34.8306 7.7367C34.2086 8.0487 33.8966 8.6717 34.2086 9.1907C34.3116 9.3987 34.5186 9.8137 35.4526 9.6057L36.3866 9.3987C37.6306 9.1907 38.7716 9.3987 39.2906 10.4367C39.9126 11.6827 39.2906 13.0317 37.8386 13.7587C36.4896 14.4857 35.0386 13.9657 34.4156 12.8247ZM48.5216 7.1147C48.3136 6.1807 49.0396 5.3497 49.9736 5.1417C50.9066 4.9347 51.8406 5.5577 52.0476 6.4917C52.2556 7.4257 51.5296 8.3607 50.5956 8.4637C49.6616 8.5677 48.7286 8.0497 48.5216 7.1147Z" fill="black"/>
</svg>
