<svg width="135" height="28" viewBox="0 0 135 28" fill="none" xmlns="http://www.w3.org/2000/svg">
<path d="M45.7049 14.2761H63.65V19.1193H45.7049V14.2761ZM62.9363 3.86338H69.3088V24.9565H62.9363V3.86338ZM40.25 3.86338H46.6226V24.9565H40.25V3.86338Z" fill="black"/>
<path d="M95.3923 24.9565H89.2746V7.68691H95.3923V24.9565ZM89.5295 18.5075L89.5805 19.731C89.5295 20.0879 89.3596 20.5042 89.0707 20.98C88.7988 21.4559 88.4165 21.9487 87.9236 22.4585C87.4308 22.9683 86.8276 23.4441 86.1138 23.8859C85.4001 24.3108 84.5844 24.6591 83.6668 24.931C82.7491 25.2029 81.7295 25.3389 80.608 25.3389C79.4864 25.3389 78.4243 25.2199 77.4217 24.982C76.4191 24.7611 75.5269 24.3872 74.7452 23.8604C73.9635 23.3336 73.3517 22.6284 72.9099 21.7447C72.4681 20.8441 72.2472 19.7225 72.2472 18.38V7.68691H78.3648V17.7428C78.3648 18.6774 78.5178 19.3997 78.8236 19.9095C79.1465 20.4193 79.6478 20.7761 80.3276 20.98C81.0073 21.167 81.8825 21.2604 82.9531 21.2604C83.9557 21.2604 84.8818 21.116 85.7315 20.8271C86.5981 20.5212 87.3544 20.1559 88.0001 19.731C88.6629 19.3062 89.1727 18.8983 89.5295 18.5075Z" fill="black"/>
<path d="M98.0699 2.58887H104.188V24.9565H98.0699V2.58887Z" fill="black"/>
<path fill-rule="evenodd" clip-rule="evenodd" d="M125.292 13.008H115.733C113.973 13.008 112.547 14.4345 112.547 16.1943C112.547 17.954 113.973 19.3805 115.733 19.3805H125.292C127.051 19.3805 128.478 17.954 128.478 16.1943C128.478 14.4345 127.051 13.008 125.292 13.008ZM115.733 7.43202C110.894 7.43202 106.971 11.355 106.971 16.1943C106.971 21.0335 110.894 24.9565 115.733 24.9565H125.292C130.131 24.9565 134.054 21.0335 134.054 16.1943C134.054 11.355 130.131 7.43202 125.292 7.43202H115.733Z" fill="black"/>
<path d="M28 14C28 21.732 21.732 28 14 28C6.26801 28 0 21.732 0 14C0 6.26801 6.26801 0 14 0C21.732 0 28 6.26801 28 14Z" fill="#1A55F9"/>
<path d="M22 14C22 12.9494 21.7931 11.9091 21.391 10.9385C20.989 9.96793 20.3997 9.08601 19.6569 8.34315C18.914 7.60028 18.0321 7.011 17.0615 6.60896C16.0909 6.20693 15.0506 6 14 6C12.9494 6 11.9091 6.20693 10.9385 6.60896C9.96793 7.011 9.08601 7.60028 8.34315 8.34315C7.60028 9.08601 7.011 9.96793 6.60896 10.9385C6.20693 11.9091 6 12.9494 6 14L22 14Z" fill="white"/>
</svg>
