<svg width="28" height="28" viewBox="0 0 28 28" fill="none" xmlns="http://www.w3.org/2000/svg">
<path d="M28 14C28 21.732 21.732 28 14 28C6.26801 28 0 21.732 0 14C0 6.26801 6.26801 0 14 0C21.732 0 28 6.26801 28 14Z" fill="#1A55F9"/>
<path d="M22 14C22 12.9494 21.7931 11.9091 21.391 10.9385C20.989 9.96793 20.3997 9.08601 19.6569 8.34315C18.914 7.60028 18.0321 7.011 17.0615 6.60896C16.0909 6.20693 15.0506 6 14 6C12.9494 6 11.9091 6.20693 10.9385 6.60896C9.96793 7.011 9.08601 7.60028 8.34315 8.34315C7.60028 9.08601 7.011 9.96793 6.60896 10.9385C6.20693 11.9091 6 12.9494 6 14L22 14Z" fill="white"/>
</svg>
