<svg width="17" height="16" viewBox="0 0 17 16" fill="none" xmlns="http://www.w3.org/2000/svg">
<path d="M6.90354 3.60558C7.74797 2.09075 8.17019 1.33333 8.80143 1.33333C9.43267 1.33333 9.85489 2.09074 10.6993 3.60558L10.9178 3.99748C11.1578 4.42795 11.2777 4.64319 11.4648 4.7852C11.6519 4.92721 11.8849 4.97993 12.3508 5.08536L12.7751 5.18135C14.4149 5.55237 15.2348 5.73787 15.4298 6.36515C15.6249 6.99242 15.0659 7.64604 13.948 8.95328L13.6588 9.29148C13.3411 9.66295 13.1823 9.84869 13.1109 10.0785C13.0394 10.3083 13.0634 10.5561 13.1114 11.0517L13.1552 11.5029C13.3242 13.2471 13.4087 14.1191 12.898 14.5068C12.3873 14.8945 11.6196 14.541 10.0843 13.8341L9.68711 13.6512C9.25082 13.4503 9.03267 13.3499 8.80143 13.3499C8.5702 13.3499 8.35205 13.4503 7.91576 13.6512L7.51855 13.8341C5.98322 14.541 5.21555 14.8945 4.70486 14.5068C4.19418 14.1191 4.27869 13.2471 4.4477 11.5029L4.49142 11.0517C4.53945 10.5561 4.56346 10.3083 4.49201 10.0785C4.42055 9.84869 4.26172 9.66295 3.94404 9.29148L3.65483 8.95328C2.53693 7.64604 1.97798 6.99242 2.17305 6.36515C2.36811 5.73787 3.188 5.55237 4.82779 5.18135L5.25202 5.08536C5.718 4.97993 5.95099 4.92721 6.13806 4.7852C6.32514 4.64319 6.44512 4.42795 6.68508 3.99748L6.90354 3.60558Z" fill="#FBBF24"/>
</svg>
