<svg width="141" height="30" viewBox="0 0 141 30" fill="none" xmlns="http://www.w3.org/2000/svg">
<g opacity="0.6">
<path d="M23.2374 13.3727C22.8584 13.754 22.5682 14.2142 22.3874 14.7204C22.2066 15.2267 22.1397 15.7666 22.1914 16.3017L22.1734 16.2837C22.2266 16.9136 22.1416 17.5474 21.9245 18.1411C21.7074 18.7347 21.3634 19.2738 20.9165 19.7208C20.4695 20.1677 19.9304 20.5118 19.3367 20.7288C18.7431 20.9459 18.1092 21.0309 17.4794 20.9777L17.4974 20.9957C16.744 20.9256 15.9873 21.0895 15.3304 21.4652C14.6736 21.8409 14.1486 22.41 13.8271 23.095C13.5056 23.78 13.4031 24.5474 13.5337 25.2928C13.6644 26.0381 14.0217 26.725 14.557 27.2598C15.0923 27.7946 15.7795 28.1513 16.5249 28.2812C17.2704 28.4112 18.0377 28.308 18.7224 27.9859C19.4071 27.6637 19.9757 27.1383 20.3508 26.4811C20.7259 25.8239 20.8892 25.0671 20.8184 24.3137L20.8374 24.3317C20.7842 23.7019 20.8691 23.068 21.0862 22.4743C21.3033 21.8807 21.6474 21.3416 22.0943 20.8946C22.5413 20.4477 23.0804 20.1036 23.674 19.8866C24.2677 19.6695 24.9015 19.5845 25.5314 19.6377L25.5124 19.6197C26.1278 19.675 26.7473 19.5741 27.3134 19.3263C27.8794 19.0785 28.3738 18.6918 28.7506 18.2021C29.1274 17.7124 29.3746 17.1354 29.469 16.5248C29.5635 15.9141 29.5023 15.2895 29.2911 14.7087C29.0799 14.128 28.7255 13.61 28.2608 13.2027C27.7961 12.7954 27.2361 12.512 26.6327 12.3788C26.0293 12.2456 25.402 12.2668 24.809 12.4405C24.216 12.6143 23.6765 12.9349 23.2404 13.3727H23.2374Z" fill="black"/>
<path d="M15.8595 18.6382L15.8405 18.6202C16.3758 18.6741 16.9164 18.6084 17.4233 18.4278C17.9301 18.2472 18.3905 17.9563 18.7711 17.576C19.1516 17.1957 19.443 16.7355 19.6239 16.2288C19.8049 15.7221 19.871 15.1816 19.8175 14.6462L19.8365 14.6642C19.7833 14.0343 19.8683 13.4005 20.0853 12.8068C20.3024 12.2132 20.6465 11.6741 21.0934 11.2271C21.5404 10.7802 22.0795 10.4361 22.6731 10.2191C23.2668 10.002 23.9006 9.91702 24.5305 9.97019L24.5115 9.95219C25.265 10.023 26.0219 9.85955 26.6791 9.48429C27.3364 9.10903 27.8618 8.54016 28.1838 7.85529C28.5058 7.17043 28.6087 6.4029 28.4785 5.65739C28.3483 4.91188 27.9913 4.2247 27.4561 3.68956C26.921 3.15443 26.2338 2.79739 25.4883 2.66717C24.7428 2.53694 23.9753 2.63985 23.2904 2.96187C22.6055 3.28388 22.0367 3.80933 21.6614 4.46654C21.2861 5.12374 21.1227 5.88071 21.1935 6.63419L21.1755 6.61519C21.2288 7.24508 21.144 7.87902 20.927 8.47274C20.71 9.06646 20.3659 9.60565 19.919 10.0527C19.472 10.4996 18.9328 10.8437 18.3391 11.0607C17.7453 11.2777 17.1114 11.3625 16.4815 11.3092L16.4995 11.3282C15.9642 11.2743 15.4235 11.34 14.9167 11.5206C14.4099 11.7011 13.9495 11.9921 13.5689 12.3724C13.1883 12.7527 12.897 13.2129 12.716 13.7196C12.5351 14.2263 12.469 14.7668 12.5225 15.3022L12.5045 15.2842C12.5575 15.914 12.4724 16.5478 12.2553 17.1414C12.0381 17.7349 11.6941 18.274 11.2472 18.7209C10.8003 19.1678 10.2613 19.5118 9.6677 19.729C9.07414 19.9461 8.44035 20.0312 7.81054 19.9782L7.82854 19.9962C7.07506 19.9254 6.31809 20.0888 5.66088 20.4641C5.00368 20.8394 4.47823 21.4082 4.15622 22.0931C3.8342 22.778 3.73128 23.5455 3.86151 24.291C3.99174 25.0365 4.34878 25.7237 4.88391 26.2588C5.41905 26.794 6.10623 27.151 6.85174 27.2812C7.59725 27.4114 8.36478 27.3085 9.04965 26.9865C9.73451 26.6645 10.3034 26.1391 10.6786 25.4819C11.0539 24.8246 11.2173 24.0677 11.1465 23.3142L11.1655 23.3322C11.1123 22.7023 11.1973 22.0685 11.4144 21.4748C11.6314 20.8812 11.9755 20.3421 12.4224 19.8951C12.8694 19.4482 13.4085 19.1041 14.0021 18.8871C14.5958 18.67 15.2296 18.585 15.8595 18.6382Z" fill="black"/>
<path d="M9.15857 16.6309C9.53759 16.2497 9.82777 15.7895 10.0084 15.2832C10.1891 14.7769 10.2557 14.2369 10.2036 13.7019L10.2226 13.7199C10.1694 13.0899 10.2543 12.4558 10.4715 11.862C10.6887 11.2682 11.033 10.729 11.4802 10.282C11.9274 9.83501 12.4667 9.49102 13.0606 9.27407C13.6545 9.05711 14.2886 8.97241 14.9186 9.02589L14.8996 9.00789C15.6528 9.07846 16.4095 8.91497 17.0664 8.53973C17.7233 8.1645 18.2484 7.59577 18.5703 6.91112C18.8921 6.22646 18.9949 5.45921 18.8647 4.71398C18.7345 3.96875 18.3775 3.28183 17.8426 2.74689C17.3077 2.21195 16.6207 1.85503 15.8755 1.72481C15.1303 1.59458 14.363 1.6974 13.6784 2.01922C12.9937 2.34104 12.425 2.86621 12.0498 3.52311C11.6745 4.18001 11.511 4.93667 11.5816 5.68989L11.5636 5.67189C11.6168 6.30174 11.5318 6.93561 11.3147 7.52925C11.0976 8.12289 10.7536 8.662 10.3066 9.10896C9.85968 9.55592 9.32056 9.89995 8.72692 10.117C8.13328 10.3341 7.49942 10.4191 6.86957 10.3659L6.88757 10.3839C6.27214 10.3287 5.65273 10.4298 5.08675 10.6777C4.52077 10.9256 4.02652 11.3124 3.64981 11.8022C3.2731 12.2919 3.02612 12.8689 2.93174 13.4795C2.83737 14.0902 2.89866 14.7148 3.10993 15.2954C3.3212 15.8761 3.67563 16.394 4.14036 16.8012C4.60509 17.2085 5.16509 17.4918 5.76847 17.625C6.37184 17.7581 6.99907 17.7368 7.59204 17.5631C8.185 17.3893 8.7245 17.0687 9.16056 16.6309H9.15857Z" fill="black"/>
<path d="M40.1348 6.65674H43.1048V21.1097H40.1348V6.65674Z" fill="black"/>
<path d="M44.7873 16.1611C44.7832 15.1225 45.0874 14.1059 45.6614 13.2403C46.2354 12.3747 47.0533 11.6989 48.0117 11.2986C48.9701 10.8982 50.0257 10.7913 51.0449 10.9914C52.0641 11.1915 53.0011 11.6895 53.737 12.4225C54.4729 13.1554 54.9746 14.0903 55.1788 15.1087C55.383 16.1271 55.2804 17.1832 54.8839 18.1432C54.4874 19.1031 53.8149 19.9239 52.9516 20.5013C52.0882 21.0788 51.0729 21.3871 50.0342 21.3871C49.3448 21.395 48.6608 21.2653 48.022 21.0057C47.3832 20.7461 46.8025 20.3618 46.314 19.8753C45.8254 19.3887 45.4389 18.8096 45.1768 18.1719C44.9146 17.5342 44.7822 16.8506 44.7873 16.1611ZM52.3112 16.1611C52.2988 15.7134 52.1547 15.2793 51.897 14.913C51.6392 14.5468 51.2793 14.2646 50.8621 14.1019C50.4447 13.9391 49.9888 13.9029 49.5511 13.9979C49.1134 14.0929 48.7135 14.3147 48.4012 14.6358C48.089 14.9568 47.8781 15.3628 47.7954 15.803C47.7126 16.2431 47.7614 16.6979 47.9357 17.1105C48.11 17.5231 48.402 17.8751 48.7752 18.1226C49.1485 18.3701 49.5864 18.5021 50.0342 18.5021C50.3409 18.5103 50.646 18.4548 50.9303 18.3392C51.2145 18.2236 51.4718 18.0504 51.6857 17.8305C51.8996 17.6105 52.0656 17.3486 52.1732 17.0613C52.2809 16.774 52.3279 16.4675 52.3112 16.1611Z" fill="black"/>
<path d="M67.1192 11.2108V20.6108C67.1192 23.9368 64.5252 25.3428 61.8922 25.3428C60.9652 25.4122 60.0369 25.2249 59.2092 24.8016C58.3816 24.3782 57.6865 23.7351 57.2002 22.9428L59.7342 21.4778C59.9386 21.8908 60.2643 22.2315 60.6676 22.4544C61.071 22.6772 61.5328 22.7716 61.9912 22.7248C62.2842 22.7654 62.5826 22.7396 62.8643 22.6493C63.1459 22.559 63.4037 22.4065 63.6185 22.2032C63.8333 21.9998 63.9996 21.7508 64.1052 21.4744C64.2107 21.1981 64.2527 20.9016 64.2282 20.6068V19.7018C63.8804 20.1273 63.4378 20.4654 62.9357 20.6889C62.4336 20.9124 61.8862 21.0151 61.3372 20.9888C60.031 20.9476 58.7921 20.3998 57.8827 19.4612C56.9733 18.5227 56.4648 17.2671 56.4648 15.9603C56.4648 14.6535 56.9733 13.3979 57.8827 12.4594C58.7921 11.5208 60.031 10.973 61.3372 10.9318C61.8862 10.9055 62.4336 11.0082 62.9357 11.2317C63.4378 11.4552 63.8804 11.7933 64.2282 12.2188V11.2088L67.1192 11.2108ZM64.2292 15.9618C64.2492 15.4832 64.1254 15.0095 63.8739 14.6018C63.6224 14.194 63.2546 13.8709 62.8179 13.674C62.3812 13.477 61.8956 13.4153 61.4235 13.4967C60.9514 13.5781 60.5145 13.7989 60.1689 14.1308C59.8234 14.4626 59.5851 14.8902 59.4846 15.3586C59.3842 15.827 59.4262 16.3148 59.6054 16.7591C59.7845 17.2034 60.0925 17.584 60.4897 17.8518C60.8869 18.1196 61.3552 18.2624 61.8342 18.2618C62.1463 18.2836 62.4594 18.2398 62.7535 18.1332C63.0476 18.0266 63.3161 17.8595 63.5417 17.6429C63.7673 17.4262 63.9451 17.1647 64.0635 16.8751C64.1819 16.5856 64.2384 16.2745 64.2292 15.9618Z" fill="black"/>
<path d="M68.8009 16.1611C68.7968 15.1225 69.1009 14.1059 69.675 13.2403C70.249 12.3747 71.067 11.6989 72.0254 11.2986C72.9838 10.8982 74.0394 10.7913 75.0586 10.9914C76.0778 11.1915 77.0147 11.6895 77.7506 12.4225C78.4865 13.1554 78.9883 14.0903 79.1925 15.1087C79.3967 16.1271 79.294 17.1832 78.8975 18.1432C78.501 19.1031 77.8285 19.9239 76.9652 20.5013C76.1018 21.0788 75.0866 21.3871 74.0479 21.3871C73.3585 21.395 72.6743 21.2653 72.0356 21.0057C71.3968 20.7461 70.8162 20.3618 70.3277 19.8753C69.8391 19.3887 69.4525 18.8096 69.1904 18.1719C68.9282 17.5342 68.7958 16.8506 68.8009 16.1611ZM76.3249 16.1611C76.3125 15.7134 76.1684 15.2793 75.9107 14.913C75.6529 14.5468 75.2929 14.2646 74.8757 14.1019C74.4584 13.9391 74.0024 13.9029 73.5648 13.9979C73.1271 14.0929 72.7271 14.3147 72.4148 14.6358C72.1026 14.9568 71.8918 15.3628 71.809 15.803C71.7262 16.2431 71.775 16.6979 71.9493 17.1105C72.1236 17.5231 72.4156 17.8751 72.7888 18.1226C73.1621 18.3701 73.6 18.5021 74.0479 18.5021C74.3546 18.5103 74.6597 18.4548 74.9439 18.3392C75.2282 18.2236 75.4854 18.0504 75.6993 17.8305C75.9132 17.6105 76.0793 17.3486 76.1869 17.0613C76.2946 16.774 76.3416 16.4675 76.3249 16.1611Z" fill="black"/>
<path d="M80.6797 8.55788C80.6797 8.20543 80.7842 7.8609 80.98 7.56786C81.1758 7.27481 81.4542 7.0464 81.7798 6.91153C82.1054 6.77665 82.4637 6.74136 82.8094 6.81012C83.155 6.87888 83.4726 7.0486 83.7218 7.29782C83.971 7.54703 84.1407 7.86455 84.2095 8.21023C84.2782 8.5559 84.2429 8.9142 84.1081 9.23982C83.9732 9.56544 83.7448 9.84375 83.4517 10.0396C83.1587 10.2354 82.8142 10.3399 82.4617 10.3399C81.9906 10.3352 81.54 10.146 81.2068 9.81276C80.8737 9.47958 80.6844 9.02904 80.6797 8.55788ZM80.9797 11.2109H83.9507V21.1109H80.9757L80.9797 11.2109Z" fill="black"/>
<path d="M96.774 16.1607C96.8083 16.815 96.713 17.4696 96.4934 18.0869C96.2739 18.7042 95.9345 19.272 95.4947 19.7577C95.055 20.2433 94.5235 20.6373 93.931 20.9169C93.3384 21.1964 92.6965 21.3561 92.042 21.3867C91.4916 21.4167 90.9415 21.3239 90.4314 21.115C89.9214 20.906 89.4642 20.5862 89.093 20.1787V25.0697H86.123V11.2107H89.093V12.1407C89.4643 11.7335 89.9216 11.4139 90.4316 11.2052C90.9417 10.9964 91.4917 10.9037 92.042 10.9337C92.6966 10.9642 93.3387 11.1238 93.9314 11.4034C94.5241 11.683 95.0556 12.077 95.4954 12.5628C95.9352 13.0486 96.2746 13.6166 96.494 14.2341C96.7134 14.8515 96.8086 15.5063 96.774 16.1607ZM93.804 16.1607C93.7924 15.6974 93.6444 15.2478 93.3785 14.8681C93.1126 14.4885 92.7407 14.1957 92.3093 14.0265C91.8778 13.8572 91.406 13.8189 90.9529 13.9165C90.4998 14.014 90.0856 14.243 89.762 14.5748C89.4384 14.9067 89.22 15.3265 89.1339 15.782C89.0477 16.2374 89.0978 16.708 89.2779 17.1351C89.4579 17.5622 89.76 17.9266 90.1462 18.1829C90.5324 18.4391 90.9855 18.5758 91.449 18.5757C91.7672 18.5899 92.0849 18.5366 92.3811 18.4194C92.6772 18.3023 92.9452 18.1238 93.1675 17.8958C93.3899 17.6677 93.5615 17.3953 93.6712 17.0963C93.7809 16.7973 93.8262 16.4784 93.804 16.1607Z" fill="black"/>
<path d="M105.938 18.1398C105.938 20.4168 103.959 21.3868 101.821 21.3868C100.957 21.465 100.09 21.2824 99.3313 20.8623C98.5724 20.4423 97.957 19.8043 97.5645 19.0308L100.137 17.5658C100.242 17.9233 100.465 18.2344 100.771 18.4469C101.076 18.6595 101.446 18.7608 101.817 18.7338C102.529 18.7338 102.886 18.5158 102.886 18.1208C102.886 17.0308 98.0154 17.6058 98.0154 14.1808C98.0154 12.0218 99.8375 10.9338 101.896 10.9338C102.67 10.9093 103.436 11.0929 104.115 11.4654C104.794 11.838 105.361 12.3858 105.756 13.0518L103.222 14.4178C103.111 14.1585 102.926 13.9376 102.69 13.7827C102.454 13.6278 102.178 13.5458 101.896 13.5468C101.381 13.5468 101.064 13.7468 101.064 14.1008C101.068 15.2298 105.938 14.4768 105.938 18.1398Z" fill="black"/>
<path d="M116.789 11.2109V21.1109H113.819V20.1799C113.476 20.5907 113.041 20.9144 112.549 21.1244C112.057 21.3344 111.523 21.4247 110.989 21.3879C108.989 21.3879 107.289 19.9629 107.289 17.2879V11.2109H110.259V16.8529C110.234 17.0887 110.261 17.3271 110.338 17.5514C110.414 17.7758 110.539 17.9808 110.703 18.1521C110.867 18.3234 111.066 18.4569 111.287 18.5434C111.507 18.6299 111.744 18.6673 111.981 18.6529C113.07 18.6529 113.822 18.0199 113.822 16.6139V11.2139L116.789 11.2109Z" fill="black"/>
<path d="M133.818 15.0322V21.1102H130.848V15.2892C130.848 14.2992 130.373 13.6662 129.423 13.6662C128.433 13.6662 127.878 14.3592 127.878 15.5272V21.1102H124.909V15.2892C124.909 14.2992 124.434 13.6662 123.483 13.6662C122.493 13.6662 121.939 14.3592 121.939 15.5272V21.1102H118.969V11.2102H121.939V12.1202C122.247 11.7165 122.651 11.3963 123.114 11.189C123.578 10.9816 124.086 10.8937 124.592 10.9332C125.1 10.9083 125.606 11.0156 126.061 11.2445C126.515 11.4733 126.902 11.8161 127.185 12.2392C127.514 11.7965 127.95 11.4445 128.452 11.2161C128.954 10.9877 129.506 10.8904 130.056 10.9332C132.329 10.9342 133.818 12.5572 133.818 15.0322Z" fill="black"/>
<path d="M136.331 11.1502C137.548 11.1502 138.535 10.1634 138.535 8.94619C138.535 7.72895 137.548 6.74219 136.331 6.74219C135.114 6.74219 134.127 7.72895 134.127 8.94619C134.127 10.1634 135.114 11.1502 136.331 11.1502Z" fill="black"/>
</g>
</svg>
