<svg width="135" height="34" viewBox="0 0 135 34" fill="none" xmlns="http://www.w3.org/2000/svg">
<g opacity="0.6">
<path d="M16.2691 6.65186V2.40186H2.86914V31.6019H16.2691V27.3519C13.5241 27.3519 10.8915 26.2614 8.95058 24.3204C7.00958 22.3794 5.91914 19.7469 5.91914 17.0019C5.91914 14.2569 7.00958 11.6243 8.95058 9.68331C10.8915 7.74231 13.5241 6.65186 16.2691 6.65186Z" fill="black"/>
<path d="M16.2676 6.65186V27.3519C19.0126 27.3519 21.6452 26.2614 23.5862 24.3204C25.5272 22.3794 26.6176 19.7469 26.6176 17.0019C26.6176 14.2569 25.5272 11.6243 23.5862 9.68331C21.6452 7.74231 19.0126 6.65186 16.2676 6.65186Z" fill="black"/>
<path d="M34.1387 9.25195H37.1387V23.702H34.1387V9.25195Z" fill="black"/>
<path d="M38.8188 18.7518C38.8188 17.7122 39.1275 16.696 39.7057 15.832C40.2839 14.968 41.1056 14.2951 42.0667 13.8986C43.0278 13.5022 44.0849 13.4 45.1041 13.605C46.1233 13.81 47.0587 14.313 47.7917 15.0502C48.5247 15.7875 49.0224 16.7257 49.2216 17.7461C49.4207 18.7665 49.3125 19.823 48.9105 20.7818C48.5085 21.7405 47.831 22.5584 46.9637 23.1316C46.0964 23.7049 45.0784 24.0077 44.0388 24.0018C43.3493 24.0072 42.6656 23.8749 42.0279 23.6125C41.3902 23.3502 40.8112 22.9632 40.325 22.4743C39.8388 21.9853 39.4552 21.4041 39.1965 20.7649C38.9379 20.1257 38.8095 19.4413 38.8188 18.7518ZM46.3388 18.7518C46.327 18.3036 46.1833 17.8688 45.9257 17.5019C45.6681 17.1349 45.3081 16.852 44.8905 16.6886C44.473 16.5252 44.0166 16.4885 43.5784 16.5832C43.1401 16.6778 42.7395 16.8995 42.4266 17.2207C42.1137 17.5418 41.9024 17.948 41.8192 18.3886C41.736 18.8292 41.7845 19.2845 41.9587 19.6976C42.1329 20.1107 42.425 20.4634 42.7986 20.7113C43.1721 20.9593 43.6104 21.0916 44.0588 21.0918C44.3641 21.0978 44.6673 21.0407 44.9495 20.9241C45.2317 20.8076 45.4868 20.6341 45.6989 20.4145C45.911 20.1949 46.0755 19.9338 46.1822 19.6478C46.2889 19.3617 46.3354 19.0567 46.3188 18.7518H46.3388Z" fill="black"/>
<path d="M61.1277 13.8021V23.2121C61.1277 26.5321 58.5277 27.9421 55.8977 27.9421C54.97 28.0182 54.0395 27.8339 53.211 27.4099C52.3824 26.9859 51.6886 26.339 51.2077 25.5421L53.7377 24.0821C53.9427 24.4955 54.2688 24.8365 54.6726 25.0598C55.0764 25.2831 55.5386 25.3781 55.9977 25.3321C56.2902 25.3681 56.587 25.3391 56.8669 25.2471C57.1469 25.155 57.403 25.0023 57.617 24.7997C57.8311 24.5971 57.9977 24.3498 58.105 24.0753C58.2123 23.8009 58.2576 23.5061 58.2377 23.2121V22.3021C57.8886 22.7254 57.4456 23.0614 56.944 23.2836C56.4423 23.5058 55.8958 23.608 55.3477 23.5821C54.0216 23.5821 52.7499 23.0553 51.8122 22.1176C50.8745 21.18 50.3477 19.9082 50.3477 18.5821C50.3477 17.256 50.8745 15.9843 51.8122 15.0466C52.7499 14.1089 54.0216 13.5821 55.3477 13.5821C55.8958 13.5562 56.4423 13.6584 56.944 13.8806C57.4456 14.1028 57.8886 14.4388 58.2377 14.8621V13.8621L61.1277 13.8021ZM58.2377 18.5521C58.2576 18.0737 58.134 17.6002 57.8827 17.1926C57.6314 16.785 57.264 16.4619 56.8275 16.2648C56.3911 16.0677 55.9058 16.0057 55.4338 16.0867C54.9619 16.1677 54.5249 16.388 54.1792 16.7193C53.8335 17.0506 53.5948 17.4778 53.4938 17.9459C53.3928 18.414 53.4341 18.9015 53.6124 19.3459C53.7908 19.7903 54.098 20.1712 54.4945 20.4396C54.8911 20.708 55.3589 20.8517 55.8377 20.8521C56.1502 20.8746 56.4639 20.8313 56.7585 20.7251C57.0532 20.6188 57.3224 20.4519 57.5485 20.2351C57.7747 20.0184 57.9529 19.7566 58.0716 19.4667C58.1903 19.1768 58.2469 18.8652 58.2377 18.5521Z" fill="black"/>
<path d="M62.8187 18.752C62.8187 17.7132 63.1269 16.6978 63.7042 15.8342C64.2815 14.9706 65.102 14.2977 66.0619 13.9007C67.0218 13.5036 68.0779 13.4002 69.0966 13.6036C70.1153 13.807 71.0507 14.308 71.7846 15.0432C72.5184 15.7785 73.0176 16.7149 73.219 17.7339C73.4205 18.753 73.3151 19.8089 72.9162 20.768C72.5173 21.7272 71.8428 22.5464 70.9782 23.1221C70.1135 23.6978 69.0975 24.004 68.0587 24.002C67.3679 24.0087 66.6826 23.8774 66.0432 23.6158C65.4038 23.3542 64.823 22.9676 64.335 22.4786C63.8469 21.9896 63.4614 21.4081 63.201 20.7682C62.9407 20.1283 62.8107 19.4428 62.8187 18.752ZM70.3387 18.752C70.3269 18.3034 70.1829 17.8682 69.9249 17.501C69.6669 17.1339 69.3062 16.851 68.8881 16.6879C68.47 16.5248 68.0131 16.4887 67.5746 16.5842C67.1361 16.6796 66.7355 16.9024 66.423 17.2245C66.1105 17.5466 65.9 17.9538 65.818 18.395C65.7359 18.8362 65.7858 19.2918 65.9615 19.7047C66.1372 20.1177 66.4309 20.4696 66.8058 20.7164C67.1806 20.9631 67.6199 21.0938 68.0687 21.092C68.374 21.098 68.6772 21.0409 68.9594 20.9243C69.2416 20.8078 69.4967 20.6343 69.7088 20.4147C69.9209 20.1951 70.0854 19.934 70.1921 19.648C70.2988 19.3619 70.3453 19.0569 70.3287 18.752H70.3387Z" fill="black"/>
<path d="M74.6875 11.1521C74.6875 10.8001 74.7919 10.4559 74.9875 10.1632C75.1831 9.87043 75.4611 9.64229 75.7863 9.50756C76.1116 9.37284 76.4695 9.33759 76.8148 9.40627C77.16 9.47495 77.4772 9.64448 77.7262 9.89342C77.9751 10.1424 78.1446 10.4596 78.2133 10.8048C78.282 11.1501 78.2467 11.508 78.112 11.8333C77.9773 12.1585 77.7491 12.4365 77.4564 12.6321C77.1637 12.8277 76.8196 12.9321 76.4675 12.9321C75.997 12.9269 75.5473 12.7377 75.2146 12.405C74.8819 12.0723 74.6927 11.6226 74.6875 11.1521ZM74.9775 13.8021H77.9775V23.7021H74.9775V13.8021Z" fill="black"/>
<path d="M90.8188 18.7521C90.8524 19.4105 90.7555 20.0691 90.5336 20.6899C90.3118 21.3107 89.9693 21.8815 89.526 22.3694C89.0826 22.8574 88.5472 23.2528 87.9504 23.533C87.3537 23.8132 86.7074 23.9726 86.0488 24.0021C85.4899 24.0393 84.9298 23.9498 84.4104 23.7403C83.8909 23.5307 83.4255 23.2066 83.0488 22.7921V27.6821H80.0488V13.8021H83.0488V14.7321C83.426 14.3188 83.8918 13.9962 84.4113 13.7884C84.9308 13.5805 85.4906 13.4929 86.0488 13.5321C86.7048 13.5616 87.3485 13.7201 87.9432 13.9984C88.5379 14.2767 89.072 14.6695 89.5149 15.1542C89.9579 15.6389 90.301 16.2061 90.5247 16.8235C90.7484 17.4408 90.8484 18.0961 90.8188 18.7521ZM87.8188 18.7521C87.807 18.2876 87.6583 17.837 87.3915 17.4567C87.1247 17.0764 86.7515 16.7832 86.3188 16.6141C85.8861 16.4449 85.4131 16.4073 84.959 16.5058C84.505 16.6043 84.0902 16.8347 83.7665 17.168C83.4428 17.5013 83.2247 17.9227 83.1396 18.3795C83.0544 18.8362 83.1059 19.3079 83.2877 19.7355C83.4695 20.163 83.7734 20.5274 84.1614 20.783C84.5494 21.0386 85.0042 21.1739 85.4688 21.1721C85.787 21.1856 86.1045 21.1317 86.4004 21.0139C86.6964 20.8961 86.9641 20.7171 87.186 20.4886C87.4079 20.2601 87.5789 19.9872 87.688 19.688C87.7971 19.3887 87.8416 19.0698 87.8188 18.7521Z" fill="black"/>
<path d="M99.9484 20.7322C99.9484 23.0122 97.9484 23.9822 95.8284 23.9822C94.9637 24.06 94.0956 23.8767 93.3362 23.456C92.5768 23.0353 91.961 22.3965 91.5684 21.6222L94.1484 20.1622C94.2506 20.519 94.4722 20.8299 94.7762 21.0429C95.0802 21.2559 95.4481 21.358 95.8184 21.3322C96.5284 21.3322 96.8884 21.1122 96.8884 20.7122C96.8884 19.6222 92.0184 20.2022 92.0184 16.7722C92.0184 14.6122 93.8384 13.5322 95.8984 13.5322C96.6814 13.4971 97.4594 13.6748 98.1495 14.0463C98.8397 14.4178 99.4164 14.9693 99.8184 15.6422L97.2384 17.0022C97.1244 16.7442 96.9382 16.5248 96.7022 16.3704C96.4661 16.216 96.1904 16.1333 95.9084 16.1322C95.3884 16.1322 95.0784 16.3322 95.0784 16.6822C95.0784 17.8222 99.9484 17.0722 99.9484 20.7322Z" fill="black"/>
<path d="M110.819 13.8018V23.7018H107.819V22.7718C107.478 23.1835 107.045 23.5092 106.556 23.7229C106.066 23.9366 105.533 24.0321 104.999 24.0018C102.999 24.0018 101.289 22.5718 101.289 19.9018V13.8018H104.289V19.4518C104.265 19.688 104.293 19.9265 104.371 20.1509C104.449 20.3752 104.574 20.58 104.738 20.7512C104.903 20.9223 105.103 21.0557 105.324 21.1422C105.545 21.2286 105.782 21.266 106.019 21.2518C107.099 21.2518 107.859 20.6118 107.859 19.2518V13.8018H110.819Z" fill="black"/>
<path d="M127.819 17.6222V23.7022H124.819V17.8822C124.819 16.8822 124.349 16.2622 123.399 16.2622C122.449 16.2622 121.849 16.9522 121.849 18.1222V23.7022H118.849V17.8822C118.849 16.8822 118.379 16.2622 117.429 16.2622C116.479 16.2622 115.879 16.9522 115.879 18.1222V23.7022H112.879V13.8022H115.879V14.7122C116.19 14.3102 116.595 13.9918 117.06 13.7858C117.524 13.5798 118.033 13.4926 118.539 13.5322C119.046 13.5057 119.552 13.6117 120.006 13.8396C120.46 14.0675 120.847 14.4096 121.129 14.8322C121.459 14.3906 121.895 14.0398 122.397 13.8125C122.898 13.5851 123.45 13.4887 123.999 13.5322C126.339 13.5322 127.819 15.1522 127.819 17.6222Z" fill="black"/>
<path d="M130.339 13.7418C131.554 13.7418 132.539 12.7568 132.539 11.5418C132.539 10.3268 131.554 9.3418 130.339 9.3418C129.124 9.3418 128.139 10.3268 128.139 11.5418C128.139 12.7568 129.124 13.7418 130.339 13.7418Z" fill="black"/>
</g>
</svg>
