<svg width="133" height="40" viewBox="0 0 133 40" fill="none" xmlns="http://www.w3.org/2000/svg">
<g opacity="0.6">
<path d="M24.0488 11.3917H26.0488V25.3117H32.0488V27.3117H24.0488V11.3917ZM38.2788 11.3917C39.4655 11.3917 40.6255 11.7436 41.6122 12.4029C42.5989 13.0622 43.368 13.9992 43.8221 15.0956C44.2762 16.192 44.395 17.3984 44.1635 18.5622C43.932 19.7261 43.3606 20.7952 42.5214 21.6343C41.6823 22.4735 40.6132 23.0449 39.4493 23.2764C38.2855 23.5079 37.0791 23.3891 35.9827 22.935C34.8863 22.4808 33.9493 21.7118 33.29 20.7251C32.6307 19.7384 32.2788 18.5784 32.2788 17.3917C32.2788 16.6038 32.434 15.8235 32.7355 15.0956C33.037 14.3676 33.479 13.7062 34.0362 13.1491C34.5933 12.5919 35.2547 12.1499 35.9827 11.8484C36.7106 11.5469 37.4909 11.3917 38.2788 11.3917ZM38.2788 21.3917C39.0699 21.3917 39.8433 21.1571 40.5011 20.7176C41.1589 20.278 41.6716 19.6533 41.9743 18.9224C42.2771 18.1915 42.3563 17.3873 42.2019 16.6113C42.0476 15.8354 41.6666 15.1227 41.1072 14.5633C40.5478 14.0039 39.8351 13.6229 39.0592 13.4686C38.2832 13.3142 37.479 13.3934 36.7481 13.6962C36.0172 13.9989 35.3924 14.5116 34.9529 15.1694C34.5134 15.8272 34.2788 16.6006 34.2788 17.3917C34.2841 18.4491 34.7078 19.4614 35.4574 20.2072C36.207 20.953 37.2214 21.3717 38.2788 21.3717V21.3917ZM34.2788 25.3317H42.2788V27.3317H34.2788V25.3317ZM59.8788 27.3317H57.8788V25.9017C56.589 26.8045 55.0532 27.2897 53.4788 27.2917C52.1363 27.3007 50.8131 26.9717 49.6312 26.335C48.4492 25.6982 47.4465 24.7743 46.7155 23.6483C45.9844 22.5223 45.5484 21.2304 45.4478 19.8916C45.3471 18.5529 45.585 17.2103 46.1395 15.9877C46.694 14.765 47.5473 13.7015 48.6207 12.8953C49.6942 12.089 50.9533 11.5658 52.282 11.374C53.6108 11.1821 54.9665 11.3278 56.2241 11.7975C57.4818 12.2672 58.6011 13.0458 59.4788 14.0617L58.0088 15.3717C57.3412 14.6253 56.4975 14.0579 55.5544 13.7212C54.6114 13.3844 53.5991 13.289 52.6098 13.4437C51.6204 13.5984 50.6856 13.9983 49.8903 14.6068C49.0951 15.2154 48.4648 16.0132 48.057 16.9278C47.6491 17.8423 47.4766 18.8443 47.5552 19.8426C47.6338 20.8409 47.9609 21.8036 48.5069 22.643C49.0529 23.4824 49.8002 24.1719 50.6809 24.6485C51.5615 25.1251 52.5475 25.3737 53.5488 25.3717C54.3798 25.3734 55.2014 25.1956 55.9574 24.8504C56.7133 24.5052 57.3858 24.0008 57.9288 23.3717H52.5288V21.3717H59.8988L59.8788 27.3317ZM67.2388 11.4317C68.4255 11.4317 69.5855 11.7836 70.5722 12.4429C71.5589 13.1022 72.328 14.0392 72.7821 15.1356C73.2362 16.232 73.355 17.4384 73.1235 18.6022C72.892 19.7661 72.3206 20.8352 71.4814 21.6743C70.6423 22.5135 69.5732 23.0849 68.4093 23.3164C67.2455 23.5479 66.0391 23.4291 64.9427 22.975C63.8463 22.5208 62.9093 21.7518 62.25 20.7651C61.5907 19.7784 61.2388 18.6184 61.2388 17.4317C61.2335 16.6387 61.3855 15.8526 61.6859 15.1187C61.9863 14.3848 62.4292 13.7177 62.989 13.1561C63.5488 12.5944 64.2144 12.1493 64.9473 11.8464C65.6802 11.5436 66.4658 11.389 67.2588 11.3917L67.2388 11.4317ZM67.2388 21.4317C68.0299 21.4317 68.8033 21.1971 69.4611 20.7576C70.1189 20.318 70.6316 19.6933 70.9343 18.9624C71.2371 18.2315 71.3163 17.4273 71.1619 16.6513C71.0076 15.8754 70.6266 15.1627 70.0672 14.6033C69.5078 14.0439 68.7951 13.6629 68.0192 13.5086C67.2432 13.3542 66.439 13.4334 65.7081 13.7362C64.9772 14.0389 64.3524 14.5516 63.9129 15.2094C63.4734 15.8672 63.2388 16.6406 63.2388 17.4317C63.2546 18.4856 63.6857 19.4907 64.4385 20.2285C65.1912 20.9662 66.2048 21.3771 67.2588 21.3717L67.2388 21.4317ZM63.2388 25.3717H71.2388V27.3717H63.2388V25.3717ZM75.3688 11.3917H77.3688V27.2917H75.3688V11.3917ZM80.1388 11.3917H82.1388C82.2418 11.3808 82.3457 11.3808 82.4488 11.3917C83.2864 11.3008 84.1338 11.3874 84.9357 11.6457C85.7376 11.9041 86.4762 12.3284 87.1032 12.8911C87.7303 13.4538 88.2318 14.1423 88.5751 14.9117C88.9185 15.6811 89.0959 16.5142 89.0959 17.3567C89.0959 18.1992 88.9185 19.0323 88.5751 19.8017C88.2318 20.5711 87.7303 21.2596 87.1032 21.8223C86.4762 22.385 85.7376 22.8093 84.9357 23.0677C84.1338 23.326 83.2864 23.4126 82.4488 23.3217H82.1388V27.3217H80.1388V11.3917ZM82.1388 13.3917V21.3017H82.4488C83.0137 21.3769 83.5881 21.3306 84.1337 21.1657C84.6792 21.0009 85.1832 20.7214 85.6119 20.346C86.0407 19.9706 86.3842 19.5079 86.6196 18.9889C86.855 18.4699 86.9768 17.9066 86.9768 17.3367C86.9768 16.7668 86.855 16.2035 86.6196 15.6845C86.3842 15.1655 86.0407 14.7028 85.6119 14.3274C85.1832 13.9519 84.6792 13.6725 84.1337 13.5076C83.5881 13.3428 83.0137 13.2965 82.4488 13.3717C82.3399 13.383 82.2325 13.4065 82.1288 13.4417L82.1388 13.3917ZM96.5488 12.5417L95.0688 13.7117C94.8135 13.4449 94.4873 13.2565 94.1286 13.1687C93.7699 13.0809 93.3936 13.0973 93.0439 13.216C92.6941 13.3346 92.3856 13.5506 92.1544 13.8386C91.9232 14.1266 91.779 14.4746 91.7388 14.8417V15.0017C91.7388 15.8817 92.3488 16.4717 93.5388 16.5517C98.1188 16.8317 100.219 18.9817 100.219 21.8217V22.0017C100.101 23.1257 99.6619 24.1921 98.9551 25.0741C98.2483 25.9561 97.303 26.6164 96.2318 26.9767C95.1605 27.3369 94.0083 27.3819 92.9122 27.1062C91.8161 26.8306 90.8222 26.2459 90.0488 25.4217L91.5788 24.2417C91.9349 24.6234 92.3698 24.923 92.8533 25.1199C93.3368 25.3167 93.8573 25.4061 94.3788 25.3817C95.342 25.4325 96.2875 25.1092 97.0179 24.4793C97.7484 23.8495 98.2073 22.9618 98.2988 22.0017V21.8617C98.2988 19.1917 95.6788 18.7017 93.4088 18.4817C91.3088 18.2817 89.7988 16.9717 89.7988 15.0817V15.0017C89.8728 14.0177 90.3219 13.0997 91.0532 12.4373C91.7845 11.7748 92.7423 11.4184 93.7288 11.4417C94.2516 11.4263 94.7717 11.5206 95.2558 11.7187C95.7398 11.9168 96.1769 12.2142 96.5388 12.5917L96.5488 12.5417ZM108.049 25.2617C110.539 25.2617 112.509 22.5717 112.509 19.2617V11.2617H114.509V19.2617C114.509 23.6617 111.629 27.2117 108.089 27.2117C104.549 27.2117 101.669 23.6617 101.669 19.2617V11.2617H103.669V19.2617C103.589 22.6217 105.559 25.3117 108.039 25.3117L108.049 25.2617ZM129.859 27.2617H127.859V17.3617L123.249 23.3617L118.639 17.3617V27.2917H116.639V11.3917L123.239 20.0817L129.839 11.3917L129.859 27.2617Z" fill="black"/>
<path d="M14.4484 9.00201C14.4484 7.55923 13.8753 6.17554 12.8551 5.15535C11.8349 4.13515 10.4511 3.56201 9.00836 3.56201C7.56558 3.56201 6.1819 4.13515 5.1617 5.15535C4.1415 6.17554 3.56836 7.55923 3.56836 9.00201V25.452L8.04836 28.662V36.482H9.96836V28.662L14.4484 25.452V9.00201ZM12.5284 18.202L9.96836 20.762V18.362L12.5284 15.802V18.202ZM5.52836 15.802L8.08836 18.362V20.762L5.52836 18.202V15.802ZM12.5284 13.082L9.00836 16.602L5.48836 13.002V10.602L9.00836 14.122L12.5284 10.602V13.082ZM9.00836 5.48201C9.78251 5.48543 10.5342 5.74254 11.1483 6.21394C11.7624 6.68534 12.205 7.34504 12.4084 8.09201L9.00836 11.482L5.60836 8.09201C5.8043 7.33761 6.24373 6.66896 6.85849 6.18982C7.47325 5.71067 8.22895 5.4478 9.00836 5.442V5.48201ZM5.48836 24.482V20.882L8.04836 23.442V26.302L5.48836 24.482ZM9.96836 26.312V23.442L12.5284 20.882V24.472L9.96836 26.312Z" fill="black"/>
</g>
</svg>
