<svg width="133" height="36" viewBox="0 0 133 36" fill="none" xmlns="http://www.w3.org/2000/svg">
<g opacity="0.6">
<path d="M45.6476 25.7064C45.0528 25.7387 44.4645 25.5696 43.9776 25.2264C43.7742 25.0756 43.6105 24.8775 43.5007 24.6493C43.3909 24.421 43.3384 24.1695 43.3476 23.9164V14.6464C43.3428 14.6072 43.3469 14.5673 43.3598 14.5299C43.3726 14.4925 43.3938 14.4586 43.4218 14.4306C43.4498 14.4026 43.4837 14.3814 43.5211 14.3686C43.5585 14.3557 43.5984 14.3516 43.6376 14.3564H45.3176C45.5076 14.3564 45.5976 14.4564 45.5976 14.6464V23.1964C45.5976 23.5764 45.7676 23.7664 46.1176 23.7664C46.266 23.7725 46.4144 23.7557 46.5576 23.7164C46.7576 23.7164 46.8676 23.7764 46.8776 23.9564L47.0276 25.2064C47.0348 25.2429 47.0341 25.2804 47.0256 25.3166C47.0171 25.3527 47.0009 25.3867 46.9781 25.416C46.9554 25.4454 46.9266 25.4696 46.8938 25.4869C46.8609 25.5042 46.8247 25.5143 46.7876 25.5164C46.4196 25.638 46.0351 25.7021 45.6476 25.7064Z" fill="black"/>
<path d="M55.0977 24.6367C54.2536 25.3342 53.1927 25.7157 52.0977 25.7157C51.0027 25.7157 49.9419 25.3342 49.0977 24.6367C48.3558 23.8877 47.9395 22.876 47.9395 21.8217C47.9395 20.7674 48.3558 19.7557 49.0977 19.0067C49.9435 18.3128 51.0037 17.9336 52.0977 17.9336C53.1917 17.9336 54.2519 18.3128 55.0977 19.0067C55.8226 19.7626 56.2273 20.7694 56.2273 21.8167C56.2273 22.864 55.8226 23.8708 55.0977 24.6267V24.6367ZM50.6777 23.3167C51.0695 23.6716 51.5791 23.8681 52.1077 23.8681C52.6363 23.8681 53.146 23.6716 53.5377 23.3167C53.8923 22.9091 54.0875 22.387 54.0875 21.8467C54.0875 21.3065 53.8923 20.7844 53.5377 20.3767C53.146 20.0219 52.6363 19.8253 52.1077 19.8253C51.5791 19.8253 51.0695 20.0219 50.6777 20.3767C50.3232 20.7844 50.1279 21.3065 50.1279 21.8467C50.1279 22.387 50.3232 22.9091 50.6777 23.3167Z" fill="black"/>
<path d="M65.4792 18.1866C65.6692 18.1866 65.7592 18.2866 65.7592 18.4766V25.6466C65.7767 26.1306 65.6861 26.6123 65.4941 27.0568C65.3021 27.5014 65.0135 27.8976 64.6492 28.2166C63.8406 28.9061 62.8008 29.2634 61.7392 29.2166C60.7804 29.2503 59.8343 28.9885 59.0292 28.4666C58.6854 28.2409 58.3917 27.9468 58.1664 27.6028C57.941 27.2587 57.7888 26.872 57.7192 26.4666C57.7192 26.2666 57.7192 26.1766 57.9892 26.1766H59.6692C59.7405 26.179 59.8097 26.2021 59.8682 26.2429C59.9268 26.2837 59.9723 26.3405 59.9992 26.4066C60.1082 26.7103 60.3254 26.9632 60.6092 27.1166C60.9551 27.2951 61.3401 27.3845 61.7292 27.3766C61.964 27.3895 62.199 27.3554 62.4205 27.2764C62.642 27.1975 62.8455 27.0751 63.0192 26.9166C63.1779 26.7508 63.3013 26.5545 63.3821 26.3397C63.4629 26.1249 63.4993 25.8959 63.4892 25.6666V25.0366C62.8877 25.479 62.1556 25.7078 61.4092 25.6866C60.8868 25.7056 60.366 25.6189 59.8779 25.4316C59.3899 25.2442 58.9448 24.9603 58.5692 24.5966C57.8483 23.8508 57.4453 22.854 57.4453 21.8166C57.4453 20.7793 57.8483 19.7825 58.5692 19.0366C58.9466 18.6762 59.3923 18.395 59.88 18.2095C60.3678 18.024 60.8877 17.938 61.4092 17.9566C62.1772 17.9363 62.929 18.1799 63.5392 18.6466V18.4866C63.5346 18.4483 63.5386 18.4094 63.5509 18.3728C63.5632 18.3363 63.5835 18.3029 63.6103 18.2751C63.6371 18.2473 63.6698 18.2259 63.7059 18.2123C63.7421 18.1987 63.7808 18.1934 63.8192 18.1966L65.4792 18.1866ZM61.5992 23.9066C61.8568 23.9146 62.1131 23.8659 62.3498 23.7639C62.5865 23.662 62.798 23.5093 62.9692 23.3166C63.3017 22.8873 63.4821 22.3596 63.4821 21.8166C63.4821 21.2736 63.3017 20.746 62.9692 20.3166C62.7986 20.1266 62.5884 19.9761 62.3535 19.8759C62.1185 19.7757 61.8645 19.7282 61.6092 19.7366C61.3486 19.7284 61.0894 19.7769 60.8494 19.8788C60.6094 19.9807 60.3944 20.1335 60.2192 20.3266C59.8509 20.7373 59.6572 21.2754 59.6792 21.8266C59.6612 22.3724 59.8506 22.9048 60.2092 23.3166C60.3848 23.5092 60.5999 23.6617 60.8398 23.7635C61.0797 23.8653 61.3387 23.9141 61.5992 23.9066Z" fill="black"/>
<path d="M74.3883 24.6367C73.5425 25.3306 72.4823 25.7098 71.3883 25.7098C70.2943 25.7098 69.2341 25.3306 68.3883 24.6367C67.6628 23.8791 67.2578 22.8707 67.2578 21.8217C67.2578 20.7728 67.6628 19.7643 68.3883 19.0067C69.2349 18.3146 70.2948 17.9365 71.3883 17.9365C72.4818 17.9365 73.5417 18.3146 74.3883 19.0067C75.1132 19.7626 75.5179 20.7694 75.5179 21.8167C75.5179 22.864 75.1132 23.8708 74.3883 24.6267V24.6367ZM69.9583 23.3167C70.15 23.4991 70.376 23.6416 70.6232 23.736C70.8704 23.8304 71.1338 23.8749 71.3983 23.8667C71.6611 23.8735 71.9227 23.8285 72.1681 23.7341C72.4135 23.6397 72.6378 23.4979 72.8283 23.3167C73.1771 22.9063 73.3686 22.3853 73.3686 21.8467C73.3686 21.3081 73.1771 20.7871 72.8283 20.3767C72.6378 20.1956 72.4135 20.0537 72.1681 19.9594C71.9227 19.865 71.6611 19.8199 71.3983 19.8267C71.1338 19.8186 70.8704 19.863 70.6232 19.9574C70.376 20.0518 70.15 20.1944 69.9583 20.3767C69.6096 20.7871 69.4181 21.3081 69.4181 21.8467C69.4181 22.3853 69.6096 22.9063 69.9583 23.3167Z" fill="black"/>
<path d="M79.1274 16.4867C78.8631 16.7181 78.5237 16.8456 78.1724 16.8456C77.8211 16.8456 77.4818 16.7181 77.2174 16.4867C77.0976 16.3736 77.0021 16.2372 76.9368 16.0859C76.8716 15.9346 76.8379 15.7715 76.8379 15.6067C76.8379 15.4419 76.8716 15.2789 76.9368 15.1275C77.0021 14.9762 77.0976 14.8398 77.2174 14.7267C77.4845 14.5011 77.8228 14.3774 78.1724 14.3774C78.522 14.3774 78.8603 14.5011 79.1274 14.7267C79.2473 14.8398 79.3428 14.9762 79.408 15.1275C79.4733 15.2789 79.5069 15.4419 79.5069 15.6067C79.5069 15.7715 79.4733 15.9346 79.408 16.0859C79.3428 16.2372 79.2473 16.3736 79.1274 16.4867ZM79.3374 25.7067C78.743 25.7359 78.1557 25.5671 77.6674 25.2267C77.4671 25.0737 77.3062 24.8749 77.1984 24.647C77.0905 24.4191 77.0387 24.1687 77.0474 23.9167V18.4767C77.0426 18.4375 77.0467 18.3976 77.0596 18.3602C77.0724 18.3228 77.0936 18.2889 77.1216 18.2609C77.1496 18.2329 77.1835 18.2117 77.2209 18.1989C77.2583 18.186 77.2982 18.1819 77.3374 18.1867H79.0174C79.2074 18.1867 79.2974 18.2867 79.2974 18.4767V23.1967C79.2974 23.5767 79.4674 23.7667 79.8074 23.7667C79.9591 23.7722 80.1107 23.7553 80.2574 23.7167C80.4574 23.7167 80.5674 23.7767 80.5774 23.9567L80.7274 25.2067C80.7346 25.2432 80.7339 25.2807 80.7254 25.3169C80.7169 25.353 80.7007 25.387 80.6779 25.4163C80.6552 25.4457 80.6264 25.4699 80.5936 25.4872C80.5607 25.5045 80.5245 25.5146 80.4874 25.5167C80.1162 25.639 79.7283 25.7031 79.3374 25.7067Z" fill="black"/>
<path d="M86.9092 17.9467C87.434 17.926 87.9575 18.0109 88.4488 18.1964C88.9401 18.382 89.3892 18.6643 89.7692 19.0267C90.4764 19.7857 90.8696 20.7844 90.8696 21.8217C90.8696 22.859 90.4764 23.8578 89.7692 24.6167C89.391 24.9824 88.9425 25.2675 88.4509 25.4548C87.9593 25.6422 87.4349 25.7279 86.9092 25.7067C86.1604 25.7234 85.4265 25.4952 84.8192 25.0567V28.6667C84.8192 28.8567 84.7192 28.9467 84.5292 28.9467H82.8492C82.8109 28.9539 82.7714 28.9516 82.7341 28.9401C82.6969 28.9285 82.663 28.9081 82.6354 28.8805C82.6079 28.8529 82.5874 28.8191 82.5759 28.7818C82.5643 28.7446 82.5621 28.7051 82.5692 28.6667V20.4667C82.581 20.3865 82.5738 20.3047 82.5484 20.2277C82.5229 20.1508 82.4797 20.0808 82.4224 20.0235C82.3651 19.9662 82.2952 19.9231 82.2182 19.8976C82.1413 19.8721 82.0594 19.865 81.9792 19.8767H81.6492C81.4292 19.8767 81.3192 19.7967 81.3192 19.6367V18.4567C81.314 18.3837 81.334 18.3111 81.3759 18.2511C81.4177 18.191 81.4789 18.1471 81.5492 18.1267C81.8951 18.001 82.2612 17.94 82.6292 17.9467C82.9962 17.9142 83.3645 17.9921 83.687 18.1702C84.0094 18.3484 84.2714 18.6188 84.4392 18.9467C84.7613 18.6209 85.1465 18.3642 85.5712 18.1922C85.9959 18.0203 86.4512 17.9367 86.9092 17.9467ZM85.3492 23.3167C85.5275 23.5031 85.7417 23.6514 85.9789 23.7527C86.2161 23.854 86.4713 23.9062 86.7292 23.9062C86.9871 23.9062 87.2424 23.854 87.4795 23.7527C87.7167 23.6514 87.9309 23.5031 88.1092 23.3167C88.4848 22.8978 88.6821 22.3489 88.6592 21.7867C88.6854 21.2241 88.4876 20.6739 88.1092 20.2567C87.9309 20.0704 87.7167 19.9221 87.4795 19.8208C87.2424 19.7194 86.9871 19.6672 86.7292 19.6672C86.4713 19.6672 86.2161 19.7194 85.9789 19.8208C85.7417 19.9221 85.5275 20.0704 85.3492 20.2567C84.9854 20.6813 84.796 21.228 84.8192 21.7867C84.7989 22.345 84.988 22.8907 85.3492 23.3167Z" fill="black"/>
<path d="M95.5874 25.7065C94.6897 25.7434 93.7996 25.5287 93.0174 25.0865C92.7036 24.8975 92.4364 24.6402 92.2355 24.3338C92.0347 24.0274 91.9055 23.6797 91.8574 23.3165C91.8574 23.1165 91.9274 23.0165 92.1474 23.0165H93.6174C93.6873 23.0193 93.7552 23.0412 93.8134 23.0801C93.8716 23.1189 93.918 23.173 93.9474 23.2365C94.1574 23.7765 94.7074 24.0465 95.5874 24.0465C95.8944 24.0606 96.2 23.9987 96.4774 23.8665C96.5732 23.8233 96.6553 23.7549 96.7152 23.6686C96.7751 23.5823 96.8104 23.4813 96.8174 23.3765C96.8174 23.1165 96.6574 22.9365 96.3374 22.8165C95.9579 22.6902 95.5655 22.6063 95.1674 22.5665C94.6959 22.5131 94.2283 22.4296 93.7674 22.3165C93.3192 22.2151 92.9117 21.9817 92.5974 21.6465C92.4123 21.4187 92.2761 21.1552 92.1971 20.8725C92.1182 20.5898 92.0983 20.2938 92.1386 20.0031C92.179 19.7123 92.2787 19.4329 92.4316 19.1824C92.5845 18.9318 92.7873 18.7154 93.0274 18.5465C93.7482 18.0874 94.5939 17.8637 95.4474 17.9065C96.2738 17.8786 97.0914 18.083 97.8074 18.4965C98.096 18.66 98.3444 18.8857 98.5347 19.1573C98.725 19.4289 98.8523 19.7395 98.9074 20.0665C98.9074 20.2665 98.8174 20.3665 98.6374 20.3665H97.1574C97.0951 20.3702 97.0331 20.355 96.9796 20.3229C96.9261 20.2908 96.8835 20.2432 96.8574 20.1865C96.7585 19.9497 96.5723 19.7599 96.3374 19.6565C96.0724 19.5179 95.7764 19.449 95.4774 19.4565C95.1843 19.4406 94.8919 19.4991 94.6274 19.6265C94.5342 19.6625 94.454 19.7255 94.3969 19.8075C94.3399 19.8895 94.3087 19.9867 94.3074 20.0865C94.3138 20.2233 94.3639 20.3544 94.4503 20.4606C94.5367 20.5668 94.6548 20.6424 94.7874 20.6765C95.1714 20.8213 95.5707 20.9219 95.9774 20.9765C96.4451 21.0381 96.9091 21.1249 97.3674 21.2365C97.8156 21.338 98.2231 21.5713 98.5374 21.9065C98.7056 22.0912 98.8354 22.3073 98.9195 22.5425C99.0036 22.7776 99.0403 23.0271 99.0274 23.2765C99.036 23.6222 98.9549 23.9642 98.7919 24.2692C98.6289 24.5741 98.3896 24.8316 98.0974 25.0165C97.3503 25.4962 96.4748 25.7368 95.5874 25.7065Z" fill="black"/>
<path d="M109.599 25.2065C109.605 25.242 109.603 25.2783 109.595 25.3132C109.586 25.3482 109.571 25.381 109.549 25.4099C109.528 25.4388 109.501 25.4631 109.47 25.4814C109.439 25.4997 109.405 25.5116 109.369 25.5165C109.004 25.6357 108.623 25.6998 108.239 25.7065C107.859 25.7459 107.475 25.6865 107.125 25.5341C106.774 25.3817 106.469 25.1414 106.239 24.8365C105.533 25.4438 104.619 25.7554 103.689 25.7065C103.257 25.7264 102.826 25.6557 102.423 25.499C102.02 25.3423 101.654 25.103 101.349 24.7965C101.046 24.4754 100.811 24.0964 100.658 23.6823C100.505 23.2682 100.438 22.8275 100.459 22.3865V18.4765C100.459 18.2865 100.549 18.1865 100.739 18.1865H102.419C102.609 18.1865 102.699 18.2865 102.699 18.4765V22.0865C102.681 22.5363 102.834 22.9761 103.129 23.3165C103.276 23.4725 103.455 23.5951 103.653 23.6762C103.851 23.7573 104.065 23.7949 104.279 23.7865C104.498 23.7961 104.717 23.7622 104.923 23.6866C105.129 23.6111 105.318 23.4955 105.479 23.3465C105.631 23.1895 105.75 23.0029 105.827 22.7982C105.905 22.5935 105.939 22.3751 105.929 22.1565V18.4765C105.929 18.2865 106.019 18.1865 106.209 18.1865H107.909C108.099 18.1865 108.189 18.2865 108.189 18.4765V23.1865C108.189 23.5765 108.359 23.7665 108.689 23.7665C108.844 23.7725 108.999 23.7557 109.149 23.7165C109.187 23.7059 109.227 23.704 109.265 23.711C109.304 23.7179 109.34 23.7335 109.372 23.7566C109.404 23.7797 109.43 23.8097 109.449 23.8443C109.467 23.8789 109.477 23.9173 109.479 23.9565L109.599 25.2065Z" fill="black"/>
<path d="M125.489 25.2068C125.498 25.2426 125.499 25.28 125.492 25.3162C125.484 25.3523 125.469 25.3865 125.447 25.4161C125.425 25.4457 125.397 25.4701 125.364 25.4875C125.332 25.505 125.296 25.515 125.259 25.5168C124.887 25.6377 124.5 25.7018 124.109 25.7068C123.514 25.7375 122.927 25.5686 122.439 25.2268C122.228 25.0804 122.057 24.8843 121.94 24.6558C121.823 24.4273 121.764 24.1734 121.769 23.9168V21.5668C121.79 21.1184 121.64 20.6787 121.349 20.3368C121.209 20.1805 121.035 20.0573 120.842 19.976C120.648 19.8948 120.439 19.8575 120.229 19.8668C120.04 19.8597 119.852 19.8956 119.678 19.9718C119.505 20.048 119.352 20.1626 119.229 20.3068C118.965 20.6419 118.83 21.0607 118.849 21.4868V25.1768C118.849 25.3668 118.759 25.4668 118.569 25.4668H116.879C116.84 25.4717 116.8 25.4675 116.763 25.4547C116.725 25.4418 116.691 25.4206 116.663 25.3926C116.635 25.3647 116.614 25.3307 116.601 25.2933C116.588 25.2559 116.584 25.2161 116.589 25.1768V21.5668C116.611 21.1233 116.472 20.6867 116.199 20.3368C116.077 20.1898 115.924 20.0715 115.751 19.9903C115.579 19.9091 115.39 19.8669 115.199 19.8668C114.995 19.8586 114.792 19.8935 114.602 19.9694C114.412 20.0452 114.241 20.1602 114.099 20.3068C113.813 20.6312 113.666 21.055 113.689 21.4868V25.1768C113.694 25.2161 113.69 25.2559 113.677 25.2933C113.664 25.3307 113.643 25.3647 113.615 25.3926C113.587 25.4206 113.553 25.4418 113.516 25.4547C113.478 25.4675 113.438 25.4717 113.399 25.4668H111.769C111.579 25.4668 111.489 25.3668 111.489 25.1768V20.4668C111.501 20.3866 111.494 20.3048 111.468 20.2278C111.443 20.1509 111.4 20.0809 111.342 20.0236C111.285 19.9663 111.215 19.9232 111.138 19.8977C111.061 19.8722 110.979 19.8651 110.899 19.8768H110.569C110.349 19.8768 110.239 19.7968 110.239 19.6368V18.4568C110.234 18.3838 110.254 18.3112 110.296 18.2512C110.338 18.1911 110.399 18.1472 110.469 18.1268C110.815 18.0011 111.181 17.9401 111.549 17.9468C111.902 17.9167 112.257 17.9871 112.572 18.1499C112.887 18.3127 113.149 18.5612 113.329 18.8668C113.666 18.5471 114.066 18.3003 114.503 18.142C114.94 17.9837 115.405 17.9173 115.869 17.9468C116.32 17.9248 116.769 18.0093 117.181 18.1935C117.593 18.3777 117.955 18.6563 118.239 19.0068C118.57 18.6471 118.977 18.3655 119.43 18.1821C119.883 17.9988 120.371 17.9185 120.859 17.9468C121.295 17.9264 121.731 17.9967 122.139 18.1534C122.547 18.31 122.918 18.5495 123.229 18.8568C123.533 19.1773 123.768 19.5562 123.921 19.9705C124.074 20.3847 124.142 20.8258 124.119 21.2668V23.1968C124.119 23.5768 124.289 23.7668 124.609 23.7668C124.764 23.774 124.919 23.7572 125.069 23.7168C125.276 23.7168 125.386 23.7968 125.399 23.9568L125.489 25.2068Z" fill="black"/>
<path d="M8.22836 16.8867C8.96613 13.9214 10.6748 11.2881 13.0823 9.40619C15.4898 7.52429 18.4577 6.50195 21.5134 6.50195C24.5691 6.50195 27.537 7.52429 29.9445 9.40619C32.352 11.2881 34.0606 13.9214 34.7984 16.8867H33.5984C31.5741 16.8569 29.5913 17.4619 27.9284 18.6167C27.8324 18.6862 27.7322 18.7497 27.6284 18.8067H27.4884C27.3846 18.7497 27.2844 18.6862 27.1884 18.6167C25.5108 17.4886 23.535 16.8861 21.5134 16.8861C19.4918 16.8861 17.516 17.4886 15.8384 18.6167C15.7424 18.6862 15.6422 18.7497 15.5384 18.8067H15.3984C15.2946 18.7497 15.1944 18.6862 15.0984 18.6167C13.4355 17.4619 11.4527 16.8569 9.42836 16.8867H8.22836ZM31.4384 23.1567C32.0544 22.677 32.8179 22.426 33.5984 22.4467H35.2084V19.2367H33.5984C32.2236 19.2201 30.8803 19.648 29.7684 20.4567C29.1427 20.918 28.3858 21.1669 27.6084 21.1669C26.831 21.1669 26.0741 20.918 25.4484 20.4567C24.3083 19.6631 22.9525 19.2376 21.5634 19.2376C20.1743 19.2376 18.8185 19.6631 17.6784 20.4567C17.0527 20.918 16.2958 21.1669 15.5184 21.1669C14.741 21.1669 13.9841 20.918 13.3584 20.4567C12.2328 19.6376 10.8702 19.2092 9.47836 19.2367H7.81836V22.4467H9.42836C10.2089 22.426 10.9724 22.677 11.5884 23.1567C12.7264 23.9509 14.0807 24.3767 15.4684 24.3767C16.8561 24.3767 18.2104 23.9509 19.3484 23.1567C19.9652 22.6785 20.7281 22.4277 21.5084 22.4467C22.2892 22.4243 23.0532 22.6755 23.6684 23.1567C24.8085 23.9504 26.1643 24.3758 27.5534 24.3758C28.9425 24.3758 30.2983 23.9504 31.4384 23.1567ZM31.4384 28.8967C32.0544 28.417 32.8179 28.166 33.5984 28.1867H35.2084V24.9767H33.5984C32.2236 24.9601 30.8803 25.388 29.7684 26.1967C29.1427 26.658 28.3858 26.9069 27.6084 26.9069C26.831 26.9069 26.0741 26.658 25.4484 26.1967C24.3083 25.4031 22.9525 24.9777 21.5634 24.9777C20.1743 24.9777 18.8185 25.4031 17.6784 26.1967C17.0527 26.658 16.2958 26.9069 15.5184 26.9069C14.741 26.9069 13.9841 26.658 13.3584 26.1967C12.2328 25.3777 10.8702 24.9492 9.47836 24.9767H7.81836V28.1867H9.42836C10.2089 28.166 10.9724 28.417 11.5884 28.8967C12.7264 29.6909 14.0807 30.1167 15.4684 30.1167C16.8561 30.1167 18.2104 29.6909 19.3484 28.8967C19.9652 28.4185 20.7281 28.1677 21.5084 28.1867C22.2892 28.1643 23.0532 28.4155 23.6684 28.8967C24.8085 29.6904 26.1643 30.1158 27.5534 30.1158C28.9425 30.1158 30.2983 29.6904 31.4384 28.8967Z" fill="black"/>
</g>
</svg>
