<svg width="25" height="26" viewBox="0 0 25 26" fill="none" xmlns="http://www.w3.org/2000/svg">
<g clip-path="url(#clip0_585_226)">
<path d="M23.3665 15.7707L16.2256 12.9764L23.4286 10.1821C23.8012 10.058 24.0496 9.62328 23.9875 9.25071C23.8633 8.44348 23.4907 7.69834 23.056 7.0153C22.6835 6.27016 22.1867 5.64921 21.5658 5.09035C21.2553 4.84197 20.8206 4.84197 20.5102 5.09035L14.4869 9.93376L15.7288 2.29608C15.853 1.86141 15.6047 1.48885 15.2321 1.36466C14.4869 1.05418 13.6176 0.929991 12.8104 0.992086C12.0031 0.929991 11.1338 1.05418 10.3887 1.36466C10.0161 1.48885 9.76773 1.92351 9.89192 2.29608L11.1338 9.93376L5.11061 5.09035C4.80014 4.77988 4.36547 4.77988 4.055 5.09035C3.43405 5.58711 2.93729 6.27016 2.56472 7.0153C2.06796 7.69834 1.75748 8.44348 1.5712 9.25071C1.5091 9.68538 1.75748 10.058 2.13005 10.1821L9.20888 12.9764L2.00586 15.7707C1.63329 15.8949 1.38492 16.3295 1.44701 16.7021C1.5712 17.5093 1.88167 18.2545 2.37843 18.9375C2.751 19.6827 3.24776 20.3036 3.86871 20.8625C4.17919 21.1108 4.61385 21.1108 4.92433 20.8625L10.9475 16.0191L9.70563 23.6567C9.58144 24.0914 9.82983 24.464 10.2024 24.6503C11.0096 24.8986 11.8169 25.0228 12.6241 24.9607C13.4313 25.0228 14.3007 24.8986 15.0458 24.6503C15.4184 24.5261 15.6668 24.0914 15.5426 23.6567L14.3007 16.0191L20.3239 20.8625C20.6343 21.1108 21.069 21.1108 21.4416 20.8625C22.0625 20.3657 22.5593 19.7448 22.9319 18.9996C23.4286 18.3166 23.7391 17.5714 23.9254 16.7642C23.9875 16.2674 23.8012 15.8949 23.3665 15.7707Z" fill="#1A55F9"/>
</g>
<defs>
<clipPath id="clip0_585_226">
<rect width="24" height="25" fill="white" transform="translate(0.5 0.5)"/>
</clipPath>
</defs>
</svg>
